<svg width="60" height="60" fill="none" xmlns="http://www.w3.org/2000/svg">
<defs>
        <linearGradient id="b" x1="55.389" y1="4.61" x2="4.61" y2="55.389" gradientUnits="userSpaceOnUse">
            <stop stop-color="#1677F1"/>
            <stop offset=".176" stop-color="#186EE9"/>
            <stop offset=".461" stop-color="#1E56D3"/>
            <stop offset=".819" stop-color="#262EB0"/>
            <stop offset="1" stop-color="#2B189C"/>
        </linearGradient>
        <clipPath id="a">
            <path fill="#fff" d="M0 0h60v60H0z"/>
        </clipPath>
    </defs>
    <g clip-path="url(#a)">
        <path d="M0 44.31V15.7C0 7.07 7.06.01 15.69.01H44.3c8.63 0 15.69 7.06 15.69 15.69v28.61C59.99 52.94 52.93 60 44.3 60h-9.62l-5.04-1.23L25.3 60h-9.62C7.06 60 0 52.94 0 44.31z" fill="url(#b)"/>
        <path d="m41.68 39.66 1.33-8.67h-8.32v-5.63c0-2.37 1.16-4.69 4.89-4.69h3.78v-7.38s-3.43-.59-6.72-.59c-6.85 0-11.33 4.15-11.33 11.67v6.61h-7.62v8.67h7.62V60h9.38V39.66h6.99z" fill="#fff"/>
    </g>
    
</svg>
