<svg width="60" height="60" fill="none" xmlns="http://www.w3.org/2000/svg">
<defs>
        <linearGradient id="a" x1="63.468" y1="-3.468" x2="-21.351" y2="81.351" gradientUnits="userSpaceOnUse">
            <stop offset=".001" stop-color="#FFE185"/>
            <stop offset=".209" stop-color="#FFBB36"/>
            <stop offset=".377" stop-color="#FF5176"/>
            <stop offset=".524" stop-color="#F63395"/>
            <stop offset=".739" stop-color="#A436D2"/>
            <stop offset="1" stop-color="#5F4EED"/>
        </linearGradient>
    </defs>
    <path d="M0 52.35V7.65C0 3.44 3.44 0 7.65 0h44.7C56.56 0 60 3.44 60 7.65v44.7c0 4.21-3.44 7.65-7.65 7.65H7.65C3.44 60 0 56.56 0 52.35z" fill="url(#a)"/>
    <path d="M39.31 18.69c-1.14 0-2.06.92-2.06 2.06 0 1.14.92 2.06 2.06 2.06 1.14 0 2.06-.92 2.06-2.06 0-1.13-.92-2.06-2.06-2.06zM30.14 21.34c-4.78 0-8.66 3.89-8.66 8.66 0 4.78 3.89 8.66 8.66 8.66 4.78 0 8.66-3.89 8.66-8.66.01-4.78-3.88-8.66-8.66-8.66zm0 14.21c-3.06 0-5.55-2.49-5.55-5.55 0-3.06 2.49-5.55 5.55-5.55 3.06 0 5.55 2.49 5.55 5.55 0 3.06-2.49 5.55-5.55 5.55z" fill="#fff"/>
    <path d="M37.02 47.59H22.98c-5.83 0-10.57-4.74-10.57-10.57V22.98c0-5.83 4.74-10.57 10.57-10.57h14.04c5.83 0 10.57 4.74 10.57 10.57v14.04c0 5.83-4.74 10.57-10.57 10.57zM22.98 15.72c-4 0-7.26 3.25-7.26 7.26v14.04c0 4 3.25 7.26 7.26 7.26h14.04c4 0 7.26-3.25 7.26-7.26V22.98c0-4-3.26-7.26-7.26-7.26H22.98z" fill="#fff"/>
    
</svg>
