<svg width="60" height="60" fill="none" xmlns="http://www.w3.org/2000/svg">
<defs>
        <linearGradient id="a" x1="57.753" y1="2.247" x2="2.247" y2="57.753" gradientUnits="userSpaceOnUse">
            <stop stop-color="#0CF"/>
            <stop offset="1" stop-color="#0080FF"/>
        </linearGradient>
    </defs>
    <path d="M0 52.35V7.65C0 3.44 3.44 0 7.65 0h44.7C56.56 0 60 3.44 60 7.65v44.7c0 4.21-3.44 7.65-7.65 7.65H7.65C3.44 60 0 56.56 0 52.35z" fill="url(#a)"/>
    <path d="M46.58 19.72c-1.04.47-2.19.76-3.31.94.53-.09 1.31-1.05 1.63-1.44.48-.59.87-1.27 1.1-2 .03-.06.05-.13-.01-.17-.07-.03-.12-.01-.18.01-1.25.67-2.55 1.16-3.92 1.5-.11.03-.2 0-.27-.07a2.83 2.83 0 0 0-.34-.35c-.58-.49-1.2-.88-1.9-1.16a6.73 6.73 0 0 0-2.91-.47c-.96.06-1.91.33-2.77.78-.86.45-1.62 1.07-2.23 1.82-.63.78-1.09 1.7-1.33 2.67-.23.94-.21 1.87-.07 2.82.02.16.01.18-.14.16-5.39-.8-9.85-2.73-13.48-6.86-.16-.18-.24-.18-.37.01-1.59 2.38-.82 6.2 1.17 8.08.26.25.54.5.83.73-.11.02-1.43-.12-2.6-.73-.16-.1-.24-.04-.25.14-.01.26.01.49.04.77.3 2.41 1.97 4.64 4.26 5.51.27.11.57.21.86.26-.52.11-1.06.2-2.55.08-.19-.04-.26.06-.19.24 1.12 3.06 3.55 3.97 5.36 4.49.24.04.49.04.73.1-.01.02-.03.02-.04.04-.6.92-2.69 1.6-3.66 1.94-1.77.62-3.69.9-5.56.71-.3-.04-.36-.04-.44 0-.08.05-.01.12.09.2.38.25.76.47 1.16.69 1.19.63 2.42 1.13 3.72 1.49 6.68 1.84 14.2.49 19.22-4.49 3.94-3.91 5.32-9.31 5.32-14.71 0-.21.25-.33.4-.44 1.02-.77 1.85-1.69 2.62-2.72.17-.23.17-.44.17-.52v-.03c-.03-.11-.03-.08-.16-.02z" fill="#fff"/>
    
</svg>
