<svg xmlns="http://www.w3.org/2000/svg" viewBox="0 0 32 32"><path fill="#3c3b42" d="M22.5 5.304h-14v-2a1 1 0 0 1 1-1h12a1 1 0 0 1 1 1v2z"/><path fill="#2b2a2f" d="M21.5 2.304H20a1 1 0 0 1 1 1 .5.5 0 0 1-.5.5h-12v1.5h14v-2a1 1 0 0 0-1-1z"/><path fill="#3c3b42" d="M23 28.304h-2a1 1 0 0 1-1-1v-3h4v3a1 1 0 0 1-1 1zm-13 0H8a1 1 0 0 1-1-1v-3h4v3a1 1 0 0 1-1 1z"/><path fill="#2b2a2f" d="M7 24.304h4v2H7z"/><path fill="none" stroke="#696d77" stroke-linecap="round" stroke-linejoin="round" stroke-miterlimit="10" d="M28.5 9.304v-2a1 1 0 0 0-1-1h-2"/><path fill="#2b2a2f" d="M20 24.304h4v2h-4z"/><path fill="none" stroke="#696d77" stroke-linecap="round" stroke-linejoin="round" stroke-miterlimit="10" d="M2.5 9.304v-2a1 1 0 0 1 1-1h2"/><path fill="#fcd770" d="M25 25.304H6a1 1 0 0 1-1-1v-18a2 2 0 0 1 2-2h17a2 2 0 0 1 2 2v18a1 1 0 0 1-1 1z"/><path fill="#ffcc5c" d="M24 4.304h-2a2 2 0 0 1 2 2v18a1 1 0 0 1-1 1h2a1 1 0 0 0 1-1v-18a2 2 0 0 0-2-2z"/><path fill="#ffcc5c" d="M22 19.304v-1a1 1 0 0 0-1-1H10a1 1 0 0 0-1 1v1a1 1 0 0 1-1 1H6a1 1 0 0 0-1 1v3a1 1 0 0 0 1 1h19a1 1 0 0 0 1-1v-3a1 1 0 0 0-1-1h-2a1 1 0 0 1-1-1z"/><path fill="#f7b546" d="M22 19.304v-1a1 1 0 0 0-1-1h-2a1 1 0 0 1 1 1v1a1 1 0 0 0 1 1h2a1 1 0 0 1-1-1zm3 1h-2a1 1 0 0 1 1 1v3a1 1 0 0 1-1 1h2a1 1 0 0 0 1-1v-3a1 1 0 0 0-1-1z"/><path fill="#90cff1" d="M23 14.304H8a1 1 0 0 1-1-1v-6a1 1 0 0 1 1-1h15a1 1 0 0 1 1 1v6a1 1 0 0 1-1 1z"/><path fill="#90cff1" d="M23 14.304H8a1 1 0 0 1-1-1v-6a1 1 0 0 1 1-1h15a1 1 0 0 1 1 1v6a1 1 0 0 1-1 1z"/><path fill="#72b7e5" d="M23 6.304h-2a1 1 0 0 1 1 1v6a1 1 0 0 1-1 1h2a1 1 0 0 0 1-1v-6a1 1 0 0 0-1-1z"/><path fill="#3c3b42" d="M18 19.804h-5a.5.5 0 0 1 0-1h5a.5.5 0 0 1 0 1zm0 2h-5a.5.5 0 0 1 0-1h5a.5.5 0 0 1 0 1zm-7 2a.5.5 0 0 1-.5-.5v-4a.5.5 0 0 1 1 0v4a.5.5 0 0 1-.5.5zm9 0a.5.5 0 0 1-.5-.5v-4a.5.5 0 0 1 1 0v4a.5.5 0 0 1-.5.5zm-2 0h-5a.5.5 0 0 1 0-1h5a.5.5 0 0 1 0 1z"/><path fill="#2b2a2f" d="M18 18.804h-.5a.5.5 0 0 1 0 1h.5a.5.5 0 0 0 0-1zm0 2h-.5a.5.5 0 0 1 0 1h.5a.5.5 0 0 0 0-1zm-7-2a.481.481 0 0 0-.25.077c.147.087.25.24.25.423v4a.492.492 0 0 1-.25.423.49.49 0 0 0 .25.077.5.5 0 0 0 .5-.5v-4a.5.5 0 0 0-.5-.5zm9 0a.481.481 0 0 0-.25.077c.147.087.25.24.25.423v4a.492.492 0 0 1-.25.423.49.49 0 0 0 .25.077.5.5 0 0 0 .5-.5v-4a.5.5 0 0 0-.5-.5zm-2 4h-.5a.5.5 0 0 1 0 1h.5a.5.5 0 0 0 0-1z"/><circle cx="8" cy="22.804" r="1" fill="#f04c4d"/><path fill="#e13340" d="M8 21.804c-.089 0-.168.029-.25.05.428.113.75.486.75.95a.987.987 0 0 1-.75.95c.082.022.161.05.25.05a1 1 0 0 0 0-2z"/><circle cx="23" cy="22.804" r="1" fill="#f04c4d"/><path fill="#3c3b42" d="M3 14.304H2a1 1 0 0 1-1-1v-3a1 1 0 0 1 1-1h1a1 1 0 0 1 1 1v3a1 1 0 0 1-1 1z"/><path fill="#2b2a2f" d="M3 9.304H2a1 1 0 0 1 1 1v3a1 1 0 0 1-1 1h1a1 1 0 0 0 1-1v-3a1 1 0 0 0-1-1z"/><path fill="#3c3b42" d="M28 14.304h1a1 1 0 0 0 1-1v-3a1 1 0 0 0-1-1h-1a1 1 0 0 0-1 1v3a1 1 0 0 0 1 1z"/><path fill="#e13340" d="M23 21.804c-.089 0-.168.029-.25.05.428.113.75.486.75.95a.987.987 0 0 1-.75.95c.082.022.161.05.25.05a1 1 0 0 0 0-2z"/><path fill="#2b2a2f" d="M28 14.304h1a1 1 0 0 1-1-1v-3a1 1 0 0 1 1-1h-1a1 1 0 0 0-1 1v3a1 1 0 0 0 1 1z"/><path fill="#eff2fa" d="M15.179 8.33a.5.5 0 0 0-.707 0l-1.236 1.236a.5.5 0 0 0 .708.707l1.236-1.236a.501.501 0 0 0-.001-.707zm-2.969 2.261-.194.194a.5.5 0 0 0 .708.708l.194-.194a.5.5 0 0 0-.708-.708zm1.349-2.377a.5.5 0 0 0-.707-.707l-1.616 1.616a.5.5 0 0 0 .708.707l1.615-1.616zm-3.543 2.129-.194.194a.5.5 0 0 0 .708.707l.194-.194a.5.5 0 0 0-.708-.707zM24.179 8.33a.5.5 0 0 0-.707 0l-1.236 1.236a.5.5 0 0 0 .708.707l1.236-1.236a.501.501 0 0 0-.001-.707zm-2.969 2.261-.194.194a.5.5 0 0 0 .708.708l.194-.194a.5.5 0 0 0-.708-.708zm1.349-2.377a.5.5 0 0 0-.707-.707l-1.616 1.616a.5.5 0 0 0 .708.707l1.615-1.616zm-3.543 2.129-.194.194a.5.5 0 0 0 .708.707l.194-.194a.5.5 0 0 0-.708-.707z" opacity=".25"/><path fill="#3c3b42" d="M23 14.804H8c-.827 0-1.5-.673-1.5-1.5v-6c0-.827.673-1.5 1.5-1.5h15c.827 0 1.5.673 1.5 1.5v6c0 .827-.673 1.5-1.5 1.5zm-15-8a.5.5 0 0 0-.5.5v6a.5.5 0 0 0 .5.5h15a.5.5 0 0 0 .5-.5v-6a.5.5 0 0 0-.5-.5H8z"/><path fill="#3c3b42" d="M15.5 14.804a.5.5 0 0 1-.5-.5v-8a.5.5 0 0 1 1 0v8a.5.5 0 0 1-.5.5z"/></svg>