<?xml version="1.0" encoding="UTF-8"?>
<svg width="752pt" height="752pt" version="1.1" viewBox="0 0 752 752" xmlns="http://www.w3.org/2000/svg">
 <path d="m376 561.8h-0.023438c-2.6172-0.015625-4.7266-2.1445-4.7109-4.7578l0.097656-18.941c0.015625-2.6172 2.0977-4.7539 4.7578-4.7109 2.6172 0.015625 4.7266 2.1445 4.7109 4.7578l-0.097656 18.941c-0.011719 2.6094-2.1289 4.7109-4.7344 4.7109zm0.19531-37.887h-0.023437c-2.6172-0.015625-4.7266-2.1445-4.7109-4.7578l0.09375-18.941c0.015624-2.6094 2.1328-4.7109 4.7344-4.7109h0.023438c2.6172 0.015625 4.7266 2.1445 4.7109 4.7578l-0.09375 18.941c-0.011719 2.6094-2.1289 4.7109-4.7344 4.7109zm0.19141-37.887h-0.023438c-2.6172-0.015626-4.7266-2.1445-4.7109-4.7578l0.097656-18.941c0.015625-2.6055 2.1328-4.7109 4.7344-4.7109h0.023437c2.6172 0.015625 4.7266 2.1445 4.7109 4.7578l-0.097656 18.938c-0.015625 2.6133-2.1328 4.7148-4.7344 4.7148zm0.19141-37.887h-0.023437c-2.6172-0.015625-4.7266-2.1445-4.7109-4.7578l0.097656-18.941c0.015625-2.6055 2.1328-4.7109 4.7344-4.7109h0.023438c2.6172 0.015626 4.7266 2.1445 4.7109 4.7578l-0.097656 18.941c-0.011719 2.6094-2.1289 4.7109-4.7344 4.7109zm0.19141-37.887h-0.023437c-2.6172-0.015625-4.7266-2.1445-4.7109-4.7578l0.097656-18.941c0.015626-2.6055 2.1328-4.7109 4.7344-4.7109h0.023437c2.6172 0.015625 4.7266 2.1445 4.7109 4.7578l-0.097656 18.941c-0.015625 2.6094-2.1289 4.7109-4.7344 4.7109zm0.19141-37.887h-0.023438c-2.6172-0.015625-4.7266-2.1445-4.7109-4.7578l0.097657-18.941c0.015625-2.6055 2.1328-4.7109 4.7344-4.7109h0.023437c2.6172 0.015625 4.7266 2.1445 4.7109 4.7578l-0.097657 18.941c-0.011718 2.6094-2.1289 4.7109-4.7344 4.7109zm0.19531-37.887h-0.023438c-2.6172-0.015624-4.7266-2.1445-4.7109-4.7578l0.097656-18.941c0.015625-2.6133 2.2539-4.7695 4.7578-4.7109 2.6172 0.015625 4.7266 2.1445 4.7109 4.7578l-0.097656 18.941c-0.011719 2.6094-2.1289 4.7109-4.7344 4.7109zm0.19141-37.887h-0.023437c-2.6172-0.015625-4.7266-2.1445-4.7109-4.7578l0.097657-18.938c0.015624-2.6172 2.0664-4.7773 4.7578-4.7109 2.6172 0.015625 4.7266 2.1445 4.7109 4.7578l-0.097657 18.941c-0.015625 2.6055-2.1328 4.707-4.7344 4.707zm0.19141-37.879h-0.023437c-2.6172-0.015626-4.7266-2.1445-4.7109-4.7578l0.097656-18.941c0.015625-2.6094 2.1328-4.7109 4.7344-4.7109h0.023437c2.6172 0.015625 4.7266 2.1445 4.7109 4.7578l-0.097656 18.941c-0.011719 2.6055-2.1289 4.7109-4.7344 4.7109zm0.19531-37.887h-0.023437c-2.6172-0.015625-4.7266-2.1445-4.7109-4.7578l0.09375-18.941c0.015625-2.6094 2.1328-4.7109 4.7344-4.7109h0.023437c2.6172 0.015626 4.7266 2.1445 4.7109 4.7578l-0.09375 18.941c-0.011719 2.6055-2.1289 4.7109-4.7344 4.7109z"/>
</svg>
