<svg width="294" height="324" viewBox="0 0 294 324" fill="none" xmlns="http://www.w3.org/2000/svg">
<path d="M256 133C256 197.341 139.5 323.5 139.5 323.5C139.5 323.5 23 197.341 23 133C23 68.6588 75.1588 16.5 139.5 16.5C203.841 16.5 256 68.6588 256 133Z" fill="#2CBEFF"/>
<path fill-rule="evenodd" clip-rule="evenodd" d="M33.0398 85.116C51.6967 72.4204 74.2318 65 98.5 65C162.841 65 215 117.159 215 181.5C215 219.037 175.347 277.615 142.31 319.907C140.498 321.919 139.5 323 139.5 323C139.5 323 23 196.841 23 132.5C23 115.627 26.5869 99.5923 33.0398 85.116Z" fill="#6ED6DB"/>
<g clip-path="url(#clip0_176_6)">
<g opacity="0.2">
<path d="M293.981 276.982C293.981 279.752 250.556 282 196.99 282C143.425 282 100 279.752 100 276.982C100 276.359 102.181 275.765 106.17 275.218H287.81C291.8 275.763 293.981 276.359 293.981 276.982Z" fill="#6B184E"/>
</g>
<path d="M256.054 253.103H126.078V268.809H256.054V253.103Z" fill="#6E4D42"/>
<path d="M256.205 268.961H125.926V252.952H256.205V268.961ZM126.229 268.658H255.902V253.254H126.229V268.658Z" fill="#6B184E"/>
<path d="M281.739 209.45V267.421C281.735 267.898 281.543 268.354 281.205 268.691C280.867 269.028 280.409 269.219 279.931 269.222H254.061C253.583 269.219 253.125 269.029 252.787 268.691C252.448 268.354 252.256 267.898 252.252 267.421V264.372C252.252 264.136 252.246 263.899 252.227 263.669C252.152 262.595 251.897 261.542 251.471 260.554C251.446 260.488 251.417 260.425 251.389 260.362C251.117 259.76 250.785 259.187 250.399 258.651C248.755 256.386 246.156 254.861 243.178 254.757C241.294 254.69 239.433 255.188 237.835 256.187C236.238 257.186 234.977 258.64 234.216 260.362C234.188 260.422 234.159 260.488 234.137 260.554C233.934 261.035 233.774 261.534 233.66 262.043C233.66 262.049 233.656 262.053 233.656 262.059C233.625 262.186 233.6 262.312 233.577 262.441C233.549 262.602 233.524 262.763 233.502 262.926C233.467 263.168 233.445 263.418 233.432 263.667C233.426 263.829 233.42 263.986 233.42 264.147V267.417C233.419 267.895 233.228 268.354 232.889 268.691C232.55 269.029 232.09 269.219 231.611 269.219H174.492C174.014 269.218 173.555 269.028 173.216 268.69C172.878 268.353 172.688 267.895 172.687 267.417V264.372C172.687 263.973 172.662 263.575 172.611 263.179C172.051 258.62 168.314 254.924 163.618 254.757C161.231 254.672 158.901 255.494 157.098 257.058C155.295 258.621 154.154 260.809 153.906 263.179C153.874 263.498 153.858 263.82 153.858 264.148V267.007C153.858 267.972 153.105 269.052 152.198 269.222H149.779C149.3 269.223 148.841 269.033 148.501 268.695C148.162 268.357 147.971 267.899 147.971 267.421V264.378C147.971 264.22 147.971 264.06 147.958 263.902C147.958 263.785 147.945 263.665 147.936 263.548C147.932 263.495 147.926 263.445 147.92 263.391C147.907 263.261 147.892 263.135 147.876 263.006C147.872 262.993 147.872 262.981 147.869 262.968C147.847 262.813 147.819 262.662 147.79 262.51C146.962 258.263 143.367 254.921 138.902 254.759C137.638 254.714 136.378 254.924 135.197 255.375C134.015 255.827 132.938 256.511 132.027 257.388C131.117 258.264 130.393 259.314 129.898 260.476C129.403 261.637 129.148 262.886 129.148 264.148V267.01C129.147 267.278 129.087 267.542 128.972 267.783C128.857 268.025 128.689 268.237 128.481 268.406C128.273 268.575 128.03 268.695 127.769 268.758C127.509 268.821 127.237 268.826 126.975 268.771L104.214 264.943C103.591 264.839 103.026 264.519 102.618 264.038C102.21 263.558 101.986 262.949 101.985 262.319V209.734C101.985 208.813 102.166 207.901 102.519 207.05C102.872 206.199 103.39 205.426 104.042 204.775C104.695 204.123 105.469 203.607 106.322 203.254C107.175 202.901 108.088 202.72 109.011 202.72H274.991C275.877 202.719 276.755 202.893 277.574 203.231C278.392 203.569 279.136 204.064 279.763 204.689C280.39 205.314 280.887 206.057 281.226 206.874C281.565 207.691 281.739 208.566 281.739 209.45Z" fill="#FFB640"/>
<path d="M279.931 269.374H254.061C253.801 269.374 253.544 269.323 253.304 269.222C253.064 269.121 252.847 268.973 252.666 268.787C252.485 268.609 252.342 268.396 252.244 268.161C252.147 267.926 252.097 267.675 252.098 267.421V264.372C252.098 264.11 252.09 263.884 252.073 263.681C252.001 262.624 251.749 261.587 251.329 260.614C251.303 260.545 251.275 260.484 251.248 260.423C250.98 259.831 250.654 259.267 250.274 258.739C248.579 256.404 245.989 255.007 243.17 254.909C241.316 254.843 239.485 255.333 237.913 256.315C236.341 257.298 235.101 258.729 234.352 260.422C234.325 260.483 234.299 260.54 234.278 260.604C234.079 261.076 233.922 261.564 233.809 262.063L233.801 262.098C233.77 262.22 233.746 262.341 233.724 262.469C233.696 262.628 233.671 262.788 233.649 262.949C233.616 263.176 233.594 263.421 233.58 263.676C233.574 263.833 233.568 263.99 233.568 264.148V267.418C233.567 267.936 233.36 268.433 232.993 268.799C232.625 269.165 232.127 269.371 231.608 269.371H174.492C173.974 269.371 173.476 269.165 173.109 268.798C172.742 268.432 172.536 267.936 172.535 267.418V264.372C172.535 263.98 172.51 263.588 172.461 263.199C171.9 258.632 168.096 255.068 163.613 254.909C158.743 254.733 154.552 258.377 154.055 263.195C154.024 263.507 154.008 263.828 154.008 264.148V267.007C154.008 268.088 153.175 269.193 152.224 269.369H149.781C149.261 269.369 148.763 269.163 148.396 268.797C148.028 268.431 147.821 267.934 147.82 267.416V264.378C147.82 264.223 147.82 264.066 147.808 263.911C147.804 263.79 147.795 263.675 147.785 263.561C147.785 263.512 147.778 263.469 147.772 263.424C147.759 263.294 147.746 263.182 147.732 263.073L147.721 262.989C147.699 262.84 147.671 262.695 147.644 262.549C146.795 258.204 143.2 255.067 138.897 254.912C137.653 254.867 136.413 255.073 135.251 255.517C134.088 255.96 133.028 256.634 132.131 257.496C131.235 258.358 130.522 259.391 130.035 260.534C129.548 261.677 129.297 262.906 129.296 264.148V267.01C129.296 267.3 129.232 267.587 129.107 267.849C128.982 268.111 128.8 268.342 128.574 268.525C128.349 268.708 128.085 268.838 127.802 268.906C127.52 268.975 127.226 268.979 126.941 268.92L104.185 265.094C103.527 264.985 102.929 264.647 102.498 264.138C102.067 263.63 101.831 262.985 101.833 262.319V209.734C101.835 207.835 102.592 206.014 103.937 204.67C105.283 203.327 107.108 202.571 109.011 202.568H274.991C276.82 202.57 278.574 203.295 279.867 204.586C281.161 205.876 281.888 207.625 281.891 209.45V267.421C281.892 267.675 281.842 267.928 281.744 268.163C281.647 268.398 281.503 268.611 281.321 268.79C281.14 268.975 280.924 269.122 280.685 269.222C280.446 269.323 280.19 269.374 279.931 269.374ZM242.841 254.598C242.954 254.598 243.068 254.598 243.182 254.604C246.095 254.706 248.772 256.148 250.525 258.56C250.916 259.105 251.253 259.686 251.53 260.297C251.559 260.364 251.59 260.429 251.616 260.498C252.047 261.5 252.306 262.568 252.381 263.656C252.398 263.865 252.407 264.1 252.407 264.371V267.419C252.406 267.633 252.447 267.846 252.53 268.044C252.612 268.242 252.734 268.422 252.887 268.573C253.039 268.73 253.222 268.855 253.425 268.94C253.627 269.025 253.844 269.069 254.064 269.069H279.931C280.15 269.069 280.366 269.026 280.568 268.941C280.77 268.856 280.952 268.732 281.105 268.575C281.259 268.425 281.38 268.244 281.463 268.046C281.546 267.847 281.588 267.634 281.587 267.419V209.45C281.585 207.706 280.889 206.033 279.653 204.8C278.416 203.566 276.74 202.873 274.991 202.871H109.011C107.188 202.873 105.441 203.597 104.152 204.884C102.863 206.171 102.138 207.915 102.137 209.734V262.319C102.135 262.914 102.345 263.489 102.73 263.943C103.115 264.396 103.649 264.698 104.236 264.795L126.997 268.623C127.238 268.674 127.487 268.671 127.726 268.613C127.965 268.556 128.189 268.446 128.38 268.292C128.571 268.138 128.726 267.942 128.832 267.721C128.938 267.499 128.993 267.257 128.993 267.011V264.148C128.993 262.865 129.253 261.596 129.755 260.415C130.258 259.234 130.995 258.167 131.92 257.276C132.845 256.385 133.941 255.69 135.142 255.231C136.342 254.772 137.623 254.56 138.908 254.606C143.353 254.766 147.068 258.004 147.94 262.478C147.971 262.64 148.001 262.791 148.021 262.944L148.034 263.033C148.047 263.147 148.061 263.259 148.072 263.373C148.08 263.434 148.085 263.485 148.088 263.537C148.098 263.652 148.107 263.775 148.111 263.895C148.12 264.051 148.123 264.215 148.123 264.375V267.421C148.124 267.859 148.299 268.278 148.61 268.588C148.921 268.897 149.342 269.071 149.781 269.071H152.196C152.973 268.922 153.704 267.938 153.704 267.007V264.148C153.704 263.818 153.721 263.487 153.753 263.164C154.266 258.188 158.6 254.425 163.624 254.606C168.255 254.771 172.183 258.449 172.762 263.161C172.813 263.562 172.839 263.967 172.839 264.372V267.42C172.839 267.858 173.014 268.277 173.324 268.586C173.634 268.896 174.054 269.07 174.492 269.07H231.61C232.049 269.07 232.47 268.896 232.781 268.587C233.091 268.278 233.266 267.858 233.267 267.42V264.15C233.267 263.987 233.273 263.827 233.28 263.666C233.293 263.397 233.317 263.143 233.351 262.909C233.373 262.744 233.398 262.58 233.428 262.418C233.449 262.292 233.474 262.167 233.504 262.044L233.511 262.013C233.628 261.495 233.791 260.989 233.997 260.499C234.02 260.433 234.047 260.367 234.077 260.304C234.827 258.608 236.055 257.167 237.61 256.155C239.166 255.143 240.983 254.604 242.841 254.604V254.598Z" fill="#6B184E"/>
<path d="M281.738 250.896V259.555H251.47C251.445 259.489 251.416 259.426 251.388 259.363C251.115 258.762 250.784 258.189 250.398 257.652C248.753 255.387 246.154 253.863 243.177 253.759C241.293 253.691 239.432 254.189 237.834 255.188C236.236 256.187 234.976 257.642 234.215 259.363C234.186 259.426 234.159 259.49 234.136 259.555H189.414C188.884 259.555 188.363 259.431 187.89 259.194C187.417 258.957 187.007 258.613 186.691 258.189L181.271 250.896L179.136 248.028C178.822 247.604 178.412 247.26 177.939 247.022C177.467 246.785 176.945 246.662 176.417 246.662H101.983V238.003H180.784C181.313 238.002 181.834 238.126 182.306 238.363C182.779 238.6 183.188 238.945 183.503 239.369L188.926 246.662L191.054 249.527C191.37 249.95 191.781 250.294 192.253 250.531C192.726 250.768 193.248 250.892 193.777 250.893L281.738 250.896Z" fill="white"/>
<g opacity="0.3">
<path d="M128.646 262.204H129.345C129.212 262.843 129.144 263.495 129.143 264.148V267.009C129.143 267.276 129.083 267.541 128.968 267.782C128.853 268.024 128.685 268.236 128.477 268.405C128.269 268.574 128.026 268.695 127.766 268.758C127.505 268.821 127.234 268.826 126.971 268.772L104.216 264.943C103.593 264.84 103.027 264.519 102.619 264.039C102.211 263.559 101.986 262.949 101.986 262.319V258.966H104.588L126.971 262.732C127.272 262.795 127.585 262.78 127.878 262.687C128.171 262.595 128.436 262.428 128.646 262.204Z" fill="#6B184E"/>
</g>
<g opacity="0.3">
<path d="M149.779 263.179H153.906C153.874 263.498 153.858 263.82 153.858 264.148V267.007C153.858 267.972 153.105 269.052 152.198 269.222H149.779C149.3 269.223 148.841 269.033 148.501 268.695C148.162 268.357 147.971 267.899 147.971 267.421V264.378C147.971 264.217 147.971 264.06 147.958 263.902C147.958 263.781 147.945 263.665 147.936 263.548C147.932 263.495 147.926 263.445 147.92 263.391C147.907 263.261 147.892 263.132 147.876 263.006C147.872 262.993 147.872 262.981 147.869 262.968C147.847 262.813 147.822 262.662 147.79 262.51C147.772 262.409 147.749 262.309 147.73 262.207H148.175C148.327 262.501 148.558 262.746 148.841 262.918C149.124 263.089 149.448 263.18 149.779 263.179Z" fill="#6E4D42"/>
<path d="M149.779 269.374C149.26 269.373 148.762 269.168 148.395 268.802C148.027 268.436 147.82 267.939 147.819 267.421V264.378C147.819 264.22 147.819 264.066 147.807 263.911C147.803 263.79 147.794 263.675 147.784 263.561C147.784 263.512 147.776 263.469 147.771 263.424C147.756 263.277 147.741 263.149 147.725 263.024L147.719 262.989C147.697 262.838 147.673 262.686 147.642 262.541C147.622 262.439 147.6 262.339 147.581 262.238L147.541 262.057H148.269L148.312 262.138C148.451 262.407 148.661 262.632 148.92 262.789C149.179 262.946 149.477 263.029 149.779 263.028H154.07L154.053 263.195C154.022 263.507 154.007 263.828 154.007 264.148V267.007C154.007 268.088 153.173 269.193 152.223 269.369L149.779 269.374ZM147.915 262.356C147.923 262.397 147.932 262.438 147.939 262.477C147.971 262.628 148 262.783 148.02 262.941L148.026 262.981C148.042 263.109 148.058 263.24 148.071 263.371C148.079 263.431 148.084 263.483 148.087 263.534C148.097 263.65 148.106 263.77 148.11 263.892C148.119 264.048 148.122 264.209 148.122 264.373V267.418C148.123 267.856 148.298 268.276 148.609 268.585C148.92 268.895 149.341 269.068 149.779 269.068H152.195C152.971 268.92 153.703 267.935 153.703 267.005V264.148C153.703 263.875 153.715 263.603 153.737 263.331H149.779C149.435 263.332 149.097 263.243 148.798 263.072C148.5 262.9 148.252 262.653 148.08 262.356H147.915Z" fill="#6B184E"/>
</g>
<g opacity="0.3">
<path d="M233.659 262.043C233.659 262.049 233.656 262.053 233.656 262.059C233.627 262.186 233.602 262.312 233.577 262.441C233.548 262.602 233.523 262.763 233.501 262.926C233.469 263.168 233.447 263.418 233.431 263.667C233.425 263.829 233.419 263.986 233.419 264.147V267.417C233.418 267.895 233.228 268.354 232.888 268.691C232.549 269.029 232.089 269.219 231.61 269.219H174.492C174.014 269.218 173.555 269.028 173.216 268.69C172.878 268.353 172.688 267.895 172.687 267.417V264.372C172.687 263.973 172.662 263.575 172.611 263.179H231.61C231.972 263.18 232.326 263.072 232.625 262.869C232.924 262.667 233.156 262.379 233.289 262.043H233.659Z" fill="#6B184E"/>
</g>
<g opacity="0.3">
<path d="M281.738 262.622V267.709C281.735 267.913 281.686 268.115 281.596 268.298C281.505 268.482 281.375 268.643 281.215 268.771C280.854 269.07 280.398 269.231 279.929 269.225H254.063C253.593 269.231 253.137 269.07 252.776 268.771C252.616 268.643 252.486 268.482 252.396 268.298C252.305 268.115 252.257 267.913 252.254 267.709V265.142C252.254 264.944 252.245 264.745 252.228 264.551C252.19 264.088 252.104 263.63 251.971 263.184H252.38C252.475 263.378 252.61 263.549 252.776 263.687C253.137 263.985 253.593 264.146 254.063 264.14H279.929C280.398 264.146 280.854 263.985 281.215 263.687C281.375 263.559 281.506 263.397 281.596 263.213C281.686 263.029 281.735 262.827 281.738 262.622Z" fill="#6B184E"/>
</g>
<g opacity="0.55">
<path d="M281.738 209.451V212.186C281.738 211.302 281.564 210.426 281.225 209.609C280.886 208.792 280.389 208.05 279.763 207.425C279.136 206.8 278.392 206.304 277.574 205.966C276.755 205.627 275.878 205.453 274.992 205.454H109.01C108.087 205.454 107.174 205.636 106.321 205.988C105.469 206.341 104.694 206.858 104.042 207.509C103.39 208.16 102.873 208.933 102.52 209.784C102.167 210.635 101.986 211.547 101.986 212.468V209.733C101.986 208.812 102.167 207.9 102.52 207.049C102.873 206.198 103.39 205.425 104.042 204.774C104.695 204.123 105.469 203.606 106.321 203.253C107.174 202.901 108.087 202.719 109.01 202.719H274.992C275.878 202.719 276.755 202.893 277.574 203.231C278.392 203.569 279.136 204.065 279.763 204.69C280.389 205.315 280.886 206.058 281.225 206.874C281.564 207.691 281.738 208.567 281.738 209.451Z" fill="white"/>
</g>
<path d="M276.327 209.451H281.738V250.403H277.381C276.938 250.403 276.499 250.316 276.09 250.147C275.681 249.978 275.309 249.73 274.996 249.418C274.683 249.105 274.434 248.734 274.265 248.326C274.095 247.917 274.008 247.48 274.008 247.038V211.765C274.008 211.461 274.068 211.16 274.185 210.879C274.301 210.599 274.472 210.344 274.687 210.129C274.903 209.914 275.158 209.743 275.44 209.627C275.721 209.511 276.022 209.451 276.327 209.451Z" fill="#2CBEFF"/>
<g opacity="0.3">
<path d="M280.07 250.403H277.382C276.939 250.403 276.501 250.316 276.091 250.147C275.682 249.978 275.31 249.731 274.997 249.418C274.683 249.106 274.435 248.735 274.265 248.327C274.095 247.919 274.008 247.481 274.008 247.039V211.767C274.007 211.153 274.251 210.564 274.686 210.129C275.121 209.695 275.711 209.451 276.326 209.45H279.013C278.709 209.451 278.407 209.511 278.126 209.627C277.845 209.744 277.589 209.914 277.374 210.13C277.159 210.345 276.988 210.6 276.872 210.881C276.755 211.162 276.696 211.463 276.696 211.767V247.039C276.696 247.931 277.052 248.787 277.685 249.418C278.317 250.049 279.175 250.403 280.07 250.403Z" fill="#6B184E"/>
</g>
<path d="M239.927 209.451H224.889C223.375 209.451 222.149 210.675 222.149 212.186V227.192C222.149 228.703 223.375 229.927 224.889 229.927H239.927C241.441 229.927 242.668 228.703 242.668 227.192V212.186C242.668 210.675 241.441 209.451 239.927 209.451Z" fill="#2CBEFF"/>
<path d="M214.629 209.451H199.591C198.078 209.451 196.851 210.675 196.851 212.186V227.192C196.851 228.703 198.078 229.927 199.591 229.927H214.629C216.143 229.927 217.37 228.703 217.37 227.192V212.186C217.37 210.675 216.143 209.451 214.629 209.451Z" fill="#2CBEFF"/>
<path d="M189.332 209.451H174.293C172.78 209.451 171.553 210.675 171.553 212.186V227.192C171.553 228.703 172.78 229.927 174.293 229.927H189.332C190.845 229.927 192.072 228.703 192.072 227.192V212.186C192.072 210.675 190.845 209.451 189.332 209.451Z" fill="#2CBEFF"/>
<path d="M164.034 209.451H148.996C147.483 209.451 146.256 210.675 146.256 212.186V227.192C146.256 228.703 147.483 229.927 148.996 229.927H164.034C165.548 229.927 166.775 228.703 166.775 227.192V212.186C166.775 210.675 165.548 209.451 164.034 209.451Z" fill="#2CBEFF"/>
<path d="M141.476 212.186V227.194C141.475 227.919 141.186 228.614 140.672 229.127C140.159 229.639 139.462 229.928 138.735 229.928H123.7C123.34 229.928 122.984 229.858 122.651 229.72C122.319 229.583 122.016 229.382 121.762 229.128C121.507 228.874 121.305 228.572 121.168 228.24C121.03 227.909 120.959 227.553 120.959 227.194V212.186C120.959 211.547 121.184 210.929 121.592 210.438C122.001 209.947 122.569 209.614 123.198 209.497C123.364 209.467 123.532 209.451 123.7 209.451H138.735C139.462 209.451 140.159 209.739 140.673 210.252C141.187 210.765 141.476 211.46 141.476 212.186Z" fill="#2CBEFF"/>
<g opacity="0.45">
<path d="M137.79 229.928H131.044L120.959 215.813V212.186C120.959 211.547 121.184 210.929 121.592 210.438C122.001 209.947 122.569 209.614 123.198 209.497L137.79 229.928Z" fill="white"/>
</g>
<g opacity="0.45">
<path d="M141.476 224.451V227.194C141.476 227.627 141.373 228.054 141.175 228.44C140.977 228.825 140.69 229.158 140.337 229.411L126.077 209.451H130.762L141.476 224.451Z" fill="white"/>
</g>
<g opacity="0.45">
<path d="M163.088 229.928H156.342L146.26 215.813V212.186C146.26 211.547 146.484 210.929 146.893 210.438C147.302 209.947 147.87 209.614 148.498 209.497L163.088 229.928Z" fill="white"/>
</g>
<g opacity="0.45">
<path d="M166.771 224.451V227.194C166.771 227.627 166.668 228.054 166.47 228.44C166.272 228.825 165.985 229.158 165.632 229.411L151.372 209.451H156.056L166.771 224.451Z" fill="white"/>
</g>
<g opacity="0.45">
<path d="M188.386 229.928H181.638L171.554 215.813V212.186C171.555 211.547 171.779 210.929 172.188 210.438C172.597 209.947 173.164 209.614 173.793 209.497L188.386 229.928Z" fill="white"/>
</g>
<g opacity="0.45">
<path d="M192.071 224.451V227.194C192.071 227.627 191.968 228.054 191.77 228.44C191.572 228.825 191.285 229.158 190.932 229.411L176.672 209.451H181.357L192.071 224.451Z" fill="white"/>
</g>
<g opacity="0.45">
<path d="M213.683 229.928H206.937L196.852 215.813V212.186C196.852 211.547 197.076 210.929 197.485 210.438C197.894 209.947 198.462 209.614 199.091 209.497L213.683 229.928Z" fill="white"/>
</g>
<g opacity="0.45">
<path d="M217.368 224.451V227.194C217.368 227.627 217.265 228.054 217.067 228.44C216.869 228.825 216.582 229.158 216.23 229.411L201.969 209.451H206.653L217.368 224.451Z" fill="white"/>
</g>
<g opacity="0.45">
<path d="M238.982 229.928H232.235L222.149 215.813V212.186C222.15 211.547 222.374 210.929 222.783 210.438C223.192 209.947 223.76 209.614 224.388 209.497L238.982 229.928Z" fill="white"/>
</g>
<g opacity="0.45">
<path d="M242.666 224.451V227.194C242.666 227.627 242.563 228.054 242.365 228.44C242.167 228.825 241.88 229.158 241.527 229.411L227.267 209.451H231.952L242.666 224.451Z" fill="white"/>
</g>
<g opacity="0.3">
<path d="M242.636 211.79H227.559C226.832 211.79 226.135 212.078 225.621 212.591C225.107 213.104 224.819 213.8 224.819 214.525V229.533C224.818 229.665 224.827 229.798 224.848 229.928C224.128 229.917 223.442 229.624 222.937 229.112C222.433 228.601 222.15 227.912 222.149 227.194V212.186C222.149 211.826 222.22 211.471 222.358 211.139C222.496 210.807 222.697 210.506 222.952 210.252C223.207 209.998 223.509 209.796 223.841 209.659C224.174 209.522 224.53 209.451 224.89 209.451H239.925C240.583 209.451 241.22 209.687 241.717 210.117C242.215 210.546 242.541 211.14 242.636 211.79Z" fill="#6B184E"/>
<path d="M217.339 211.79H202.261C201.534 211.79 200.837 212.078 200.323 212.591C199.809 213.104 199.521 213.8 199.521 214.525V229.533C199.52 229.665 199.53 229.798 199.55 229.928C198.831 229.917 198.145 229.624 197.64 229.112C197.135 228.601 196.852 227.912 196.852 227.194V212.186C196.852 211.46 197.141 210.765 197.655 210.252C198.169 209.739 198.866 209.451 199.592 209.451H214.628C215.286 209.451 215.922 209.687 216.42 210.117C216.917 210.546 217.244 211.14 217.339 211.79Z" fill="#6B184E"/>
<path d="M192.041 211.79H176.965C176.238 211.79 175.541 212.078 175.027 212.591C174.513 213.104 174.225 213.8 174.225 214.525V229.533C174.224 229.665 174.233 229.798 174.254 229.928C173.534 229.917 172.848 229.624 172.344 229.112C171.839 228.601 171.556 227.912 171.555 227.194V212.186C171.555 211.826 171.626 211.471 171.764 211.139C171.902 210.807 172.104 210.506 172.358 210.252C172.613 209.998 172.915 209.796 173.247 209.659C173.58 209.522 173.936 209.451 174.296 209.451H189.332C189.989 209.451 190.625 209.688 191.123 210.117C191.62 210.547 191.946 211.141 192.041 211.79Z" fill="#6B184E"/>
<path d="M166.744 211.79H151.666C150.939 211.79 150.242 212.078 149.728 212.591C149.214 213.104 148.926 213.8 148.926 214.525V229.533C148.925 229.665 148.935 229.798 148.955 229.928C148.236 229.917 147.55 229.624 147.045 229.112C146.54 228.601 146.257 227.912 146.257 227.194V212.186C146.257 211.46 146.546 210.765 147.06 210.252C147.573 209.739 148.27 209.451 148.997 209.451H164.033C164.691 209.451 165.327 209.687 165.825 210.117C166.322 210.546 166.649 211.14 166.744 211.79Z" fill="#6B184E"/>
<path d="M141.446 211.79H126.369C125.642 211.79 124.945 212.078 124.431 212.591C123.917 213.104 123.628 213.8 123.628 214.525V229.533C123.627 229.665 123.637 229.798 123.658 229.928C122.938 229.917 122.252 229.624 121.747 229.112C121.243 228.601 120.959 227.912 120.959 227.194V212.186C120.959 211.826 121.03 211.471 121.168 211.139C121.305 210.807 121.507 210.506 121.762 210.252C122.016 209.998 122.319 209.796 122.651 209.659C122.984 209.522 123.34 209.451 123.7 209.451H138.735C139.393 209.451 140.029 209.687 140.527 210.117C141.025 210.547 141.351 211.14 141.446 211.79Z" fill="#6B184E"/>
</g>
<g opacity="0.55">
<path d="M244.846 214.5V229.508C244.846 229.867 244.775 230.222 244.637 230.554C244.499 230.886 244.298 231.188 244.043 231.442C243.789 231.696 243.487 231.897 243.154 232.035C242.821 232.172 242.465 232.243 242.105 232.243H227.066C226.403 232.243 225.763 232.004 225.263 231.569C224.764 231.134 224.44 230.533 224.35 229.878C224.528 229.912 224.709 229.929 224.89 229.928H239.925C240.652 229.928 241.349 229.64 241.863 229.127C242.377 228.615 242.666 227.919 242.666 227.194V212.186C242.666 212.062 242.657 211.938 242.64 211.816C243.262 211.94 243.822 212.275 244.224 212.764C244.626 213.254 244.846 213.867 244.846 214.5Z" fill="white"/>
<path d="M219.548 214.5V229.508C219.548 230.233 219.26 230.929 218.745 231.442C218.231 231.955 217.534 232.243 216.807 232.243H201.768C201.105 232.243 200.465 232.003 199.966 231.569C199.467 231.134 199.142 230.533 199.053 229.878C199.231 229.912 199.411 229.929 199.592 229.928H214.628C215.354 229.928 216.051 229.64 216.565 229.127C217.079 228.615 217.368 227.919 217.368 227.194V212.186C217.368 212.062 217.36 211.938 217.343 211.816C217.965 211.94 218.525 212.275 218.927 212.764C219.329 213.254 219.548 213.867 219.548 214.5Z" fill="white"/>
<path d="M194.25 214.5V229.508C194.251 229.867 194.18 230.222 194.042 230.554C193.904 230.886 193.703 231.188 193.448 231.442C193.194 231.696 192.891 231.897 192.559 232.035C192.226 232.172 191.87 232.243 191.51 232.243H176.471C175.808 232.243 175.168 232.004 174.668 231.569C174.169 231.134 173.845 230.533 173.755 229.878C173.933 229.912 174.114 229.929 174.295 229.928H189.33C190.057 229.928 190.754 229.64 191.268 229.127C191.782 228.615 192.071 227.919 192.071 227.194V212.186C192.071 212.062 192.062 211.938 192.045 211.816C192.667 211.94 193.227 212.275 193.629 212.764C194.031 213.254 194.251 213.867 194.25 214.5Z" fill="white"/>
<path d="M168.955 214.5V229.508C168.955 229.867 168.884 230.222 168.747 230.554C168.609 230.886 168.407 231.188 168.153 231.442C167.898 231.696 167.596 231.897 167.264 232.035C166.931 232.172 166.575 232.243 166.215 232.243H151.175C150.513 232.243 149.872 232.003 149.373 231.569C148.874 231.134 148.55 230.533 148.46 229.878C148.638 229.912 148.819 229.929 149 229.928H164.035C164.762 229.928 165.459 229.64 165.973 229.127C166.487 228.615 166.775 227.919 166.775 227.194V212.186C166.775 212.062 166.767 211.938 166.75 211.816C167.372 211.94 167.932 212.275 168.334 212.764C168.736 213.254 168.955 213.867 168.955 214.5Z" fill="white"/>
<path d="M143.655 214.5V229.508C143.656 229.867 143.585 230.222 143.447 230.554C143.309 230.886 143.107 231.188 142.853 231.442C142.599 231.696 142.296 231.897 141.964 232.035C141.631 232.172 141.275 232.243 140.915 232.243H125.876C125.213 232.243 124.573 232.004 124.073 231.569C123.574 231.134 123.25 230.533 123.16 229.878C123.338 229.912 123.519 229.929 123.7 229.928H138.735C139.462 229.928 140.159 229.64 140.673 229.127C141.187 228.615 141.476 227.919 141.476 227.194V212.186C141.476 212.062 141.467 211.938 141.45 211.816C142.072 211.94 142.632 212.275 143.034 212.764C143.436 213.254 143.656 213.867 143.655 214.5Z" fill="white"/>
</g>
<path d="M109.154 212.186V227.194C109.154 227.452 109.117 227.708 109.044 227.955C108.926 228.367 108.712 228.744 108.42 229.057C108.128 229.37 107.765 229.609 107.363 229.756C107.06 229.871 106.738 229.93 106.414 229.928H101.984V209.451H106.414C107.14 209.451 107.837 209.739 108.351 210.252C108.865 210.765 109.154 211.46 109.154 212.186Z" fill="#2CBEFF"/>
<g opacity="0.55">
<path d="M111.19 214.07V229.075C111.19 229.8 110.902 230.496 110.388 231.009C109.874 231.522 109.176 231.81 108.449 231.81H105.934C105.428 231.809 104.943 231.608 104.585 231.251C104.227 230.894 104.026 230.41 104.025 229.905V229.473H106.415C106.775 229.473 107.132 229.402 107.464 229.265C107.797 229.127 108.099 228.926 108.354 228.672C108.608 228.418 108.81 228.116 108.948 227.784C109.085 227.453 109.156 227.097 109.156 226.738V211.73C109.157 211.627 109.151 211.525 109.139 211.423C109.727 211.575 110.247 211.917 110.618 212.396C110.99 212.875 111.191 213.464 111.19 214.07Z" fill="white"/>
</g>
<g opacity="0.45">
<path d="M109.044 227.955C108.926 228.367 108.712 228.744 108.42 229.057C108.128 229.37 107.765 229.609 107.363 229.756L105.921 229.411L101.987 223.904V218.076L109.044 227.955Z" fill="white"/>
</g>
<g opacity="0.45">
<path d="M109.154 219.856V224.034L101.986 213.999V210.187L102.248 210.192L109.154 219.856Z" fill="white"/>
</g>
<path d="M281.738 251.455H277.381C276.206 251.455 275.079 250.989 274.249 250.16C273.418 249.331 272.951 248.207 272.951 247.035V211.765C272.952 210.872 273.308 210.017 273.94 209.386C274.572 208.755 275.43 208.4 276.324 208.399H281.735C282.014 208.399 282.283 208.51 282.48 208.707C282.678 208.904 282.789 209.172 282.789 209.451V250.403C282.789 250.682 282.678 250.949 282.481 251.146C282.284 251.343 282.017 251.454 281.738 251.455ZM276.327 210.503C275.992 210.503 275.67 210.636 275.433 210.873C275.196 211.11 275.063 211.43 275.062 211.765V247.037C275.063 247.651 275.307 248.239 275.742 248.673C276.177 249.107 276.766 249.351 277.381 249.352H280.684V210.503H276.327Z" fill="#6B184E"/>
<path d="M101.985 237.01H104.655C105.214 237.01 105.75 237.231 106.146 237.626C106.541 238.02 106.763 238.555 106.763 239.113V257.626C106.763 258.184 106.541 258.719 106.146 259.114C105.75 259.508 105.214 259.73 104.655 259.73H101.985V237.01Z" fill="#EF3D30"/>
<g opacity="0.3">
<path d="M106.763 253.999V257.626C106.763 258.184 106.541 258.719 106.145 259.114C105.75 259.508 105.214 259.73 104.655 259.73H101.985V256.103H104.655C105.214 256.103 105.75 255.881 106.145 255.487C106.541 255.092 106.763 254.557 106.763 253.999Z" fill="#6B184E"/>
</g>
<g opacity="0.55">
<path d="M271.092 211.942V259.945C271.092 260.434 270.996 260.918 270.808 261.37C270.621 261.821 270.346 262.232 269.999 262.578C269.653 262.924 269.241 263.198 268.789 263.385C268.336 263.572 267.851 263.668 267.36 263.668H265.43C265.92 263.668 266.405 263.572 266.858 263.385C267.31 263.198 267.722 262.924 268.068 262.578C268.415 262.232 268.69 261.821 268.877 261.37C269.065 260.918 269.161 260.434 269.161 259.945V211.942C269.161 211.614 269.096 211.291 268.971 210.988C268.845 210.686 268.662 210.412 268.43 210.18C268.198 209.949 267.923 209.765 267.62 209.64C267.317 209.515 266.992 209.451 266.664 209.451H268.595C268.923 209.451 269.248 209.515 269.551 209.64C269.854 209.765 270.129 209.949 270.361 210.18C270.593 210.411 270.777 210.686 270.902 210.988C271.027 211.29 271.092 211.614 271.092 211.942Z" fill="white"/>
</g>
<g opacity="0.55">
<path d="M106.763 239.113V241.743C106.763 241.185 106.541 240.65 106.145 240.256C105.75 239.861 105.214 239.639 104.655 239.639H101.985V237.007H104.655C104.932 237.007 105.206 237.062 105.462 237.168C105.718 237.274 105.95 237.429 106.146 237.625C106.342 237.82 106.497 238.052 106.603 238.308C106.709 238.563 106.763 238.837 106.763 239.113Z" fill="white"/>
</g>
<path d="M269.161 211.942V237.431H248.64V211.942C248.642 211.282 248.906 210.649 249.373 210.182C249.841 209.716 250.475 209.453 251.136 209.451H266.664C266.992 209.451 267.317 209.515 267.62 209.64C267.923 209.765 268.198 209.949 268.43 210.18C268.662 210.412 268.845 210.686 268.971 210.988C269.096 211.291 269.161 211.614 269.161 211.942Z" fill="#2CBEFF"/>
<path d="M104.655 260.782H101.985C101.846 260.782 101.709 260.755 101.581 260.702C101.453 260.649 101.337 260.572 101.239 260.474C101.141 260.376 101.064 260.26 101.011 260.133C100.958 260.005 100.93 259.868 100.93 259.73V237.007C100.93 236.728 101.041 236.461 101.239 236.264C101.437 236.066 101.705 235.955 101.984 235.955H104.654C105.493 235.956 106.297 236.289 106.889 236.881C107.482 237.472 107.816 238.274 107.816 239.111V257.626C107.816 258.463 107.482 259.265 106.889 259.856C106.297 260.448 105.493 260.781 104.655 260.782ZM103.039 258.678H104.655C104.934 258.678 105.202 258.567 105.4 258.37C105.598 258.173 105.709 257.905 105.709 257.626V239.113C105.709 238.835 105.598 238.567 105.4 238.37C105.202 238.173 104.934 238.062 104.655 238.062H103.039V258.678Z" fill="#6B184E"/>
<path d="M106.763 254.155H101.985C101.846 254.155 101.709 254.128 101.581 254.075C101.453 254.022 101.337 253.945 101.239 253.847C101.141 253.749 101.063 253.633 101.01 253.506C100.957 253.378 100.93 253.241 100.93 253.103V245.635C100.93 245.497 100.957 245.36 101.01 245.233C101.063 245.105 101.141 244.989 101.239 244.891C101.337 244.793 101.453 244.716 101.581 244.663C101.709 244.61 101.846 244.583 101.984 244.583H106.762C107.042 244.583 107.31 244.694 107.508 244.891C107.705 245.089 107.816 245.356 107.816 245.635V253.103C107.816 253.382 107.706 253.649 107.508 253.847C107.31 254.044 107.042 254.155 106.763 254.155ZM103.039 252.051H105.709V246.687H103.039V252.051Z" fill="#6B184E"/>
<g opacity="0.45">
<path d="M265.286 237.431H257.174L248.64 222.684V211.942C248.639 211.592 248.713 211.246 248.856 210.927C248.999 210.608 249.209 210.323 249.471 210.09L265.286 237.431Z" fill="white"/>
</g>
<g opacity="0.45">
<path d="M269.161 226.626V235.625L254.02 209.451H259.223L269.161 226.626Z" fill="white"/>
</g>
<path d="M265.43 264.72H258.734C256.832 264.72 255.188 263.405 254.737 261.523C254.012 258.526 252.149 255.926 249.541 254.271C248.315 253.488 247.584 252.175 247.584 250.759V211.943C247.585 211.004 247.959 210.103 248.625 209.439C249.29 208.775 250.193 208.401 251.134 208.4H266.663C267.604 208.401 268.506 208.775 269.172 209.439C269.837 210.103 270.211 211.004 270.213 211.943V259.946C270.21 261.211 269.705 262.424 268.809 263.318C267.913 264.213 266.697 264.717 265.43 264.72ZM251.136 210.503C250.754 210.503 250.388 210.655 250.117 210.925C249.847 211.194 249.695 211.56 249.694 211.942V250.758C249.694 251.453 250.063 252.103 250.68 252.497C253.746 254.445 255.935 257.503 256.786 261.029C257.01 261.963 257.811 262.614 258.734 262.614H265.43C266.139 262.614 266.82 262.332 267.322 261.831C267.824 261.33 268.106 260.651 268.107 259.943V211.942C268.106 211.56 267.954 211.194 267.684 210.925C267.414 210.655 267.047 210.503 266.665 210.503H251.136Z" fill="#6B184E"/>
<path d="M239.927 230.979H224.889C223.883 230.978 222.918 230.579 222.207 229.869C221.495 229.159 221.095 228.196 221.094 227.192V212.186C221.095 211.182 221.495 210.219 222.207 209.509C222.918 208.799 223.883 208.4 224.889 208.399H239.927C240.933 208.4 241.897 208.8 242.608 209.509C243.32 210.219 243.72 211.182 243.721 212.186V227.192C243.72 228.196 243.32 229.159 242.608 229.869C241.897 230.579 240.933 230.978 239.927 230.979ZM224.889 210.503C224.442 210.503 224.013 210.681 223.697 210.996C223.381 211.312 223.203 211.739 223.202 212.186V227.192C223.203 227.639 223.381 228.066 223.697 228.382C224.013 228.697 224.442 228.875 224.889 228.875H239.927C240.374 228.875 240.802 228.697 241.118 228.382C241.434 228.066 241.612 227.639 241.613 227.192V212.186C241.612 211.74 241.434 211.312 241.118 210.996C240.802 210.681 240.374 210.503 239.927 210.503H224.889Z" fill="#6B184E"/>
<path d="M214.629 230.979H199.591C198.585 230.978 197.621 230.579 196.909 229.869C196.198 229.159 195.798 228.196 195.797 227.192V212.186C195.798 211.182 196.198 210.219 196.909 209.509C197.621 208.8 198.585 208.4 199.591 208.399H214.629C215.635 208.4 216.6 208.8 217.311 209.509C218.023 210.219 218.423 211.182 218.424 212.186V227.192C218.423 228.196 218.023 229.159 217.311 229.869C216.6 230.579 215.635 230.978 214.629 230.979ZM199.591 210.503C199.144 210.503 198.715 210.681 198.399 210.996C198.083 211.312 197.905 211.739 197.905 212.186V227.192C197.905 227.639 198.083 228.066 198.399 228.382C198.715 228.697 199.144 228.875 199.591 228.875H214.629C215.076 228.875 215.505 228.697 215.821 228.382C216.137 228.066 216.315 227.639 216.316 227.192V212.186C216.315 211.74 216.137 211.312 215.821 210.996C215.505 210.681 215.076 210.503 214.629 210.503H199.591Z" fill="#6B184E"/>
<path d="M189.332 230.979H174.295C173.289 230.978 172.325 230.579 171.613 229.869C170.902 229.159 170.502 228.196 170.501 227.192V212.186C170.502 211.182 170.902 210.219 171.613 209.509C172.325 208.8 173.289 208.4 174.295 208.399H189.333C190.339 208.4 191.304 208.8 192.015 209.509C192.727 210.219 193.127 211.182 193.128 212.186V227.192C193.127 228.197 192.726 229.159 192.015 229.869C191.303 230.579 190.338 230.978 189.332 230.979ZM174.295 210.503C173.848 210.503 173.42 210.681 173.103 210.996C172.787 211.312 172.609 211.74 172.609 212.186V227.192C172.609 227.639 172.787 228.066 173.103 228.382C173.42 228.697 173.848 228.875 174.295 228.875H189.333C189.78 228.875 190.209 228.697 190.525 228.382C190.841 228.066 191.019 227.639 191.02 227.192V212.186C191.019 211.74 190.841 211.312 190.525 210.996C190.209 210.681 189.78 210.503 189.333 210.503H174.295Z" fill="#6B184E"/>
<path d="M164.034 230.979H148.996C147.99 230.978 147.025 230.579 146.314 229.869C145.603 229.159 145.202 228.196 145.201 227.192V212.186C145.202 211.182 145.603 210.219 146.314 209.509C147.025 208.799 147.99 208.4 148.996 208.399H164.034C165.04 208.4 166.005 208.799 166.716 209.509C167.427 210.219 167.828 211.182 167.829 212.186V227.192C167.828 228.196 167.427 229.159 166.716 229.869C166.005 230.579 165.04 230.978 164.034 230.979ZM148.996 210.503C148.549 210.503 148.12 210.681 147.804 210.996C147.488 211.312 147.31 211.739 147.31 212.186V227.192C147.31 227.639 147.488 228.066 147.804 228.382C148.12 228.697 148.549 228.875 148.996 228.875H164.034C164.481 228.875 164.91 228.697 165.226 228.382C165.542 228.066 165.72 227.639 165.721 227.192V212.186C165.72 211.739 165.542 211.312 165.226 210.996C164.91 210.681 164.481 210.503 164.034 210.503H148.996Z" fill="#6B184E"/>
<path d="M138.735 230.979H123.698C122.692 230.978 121.728 230.579 121.016 229.869C120.305 229.159 119.905 228.196 119.904 227.192V212.186C119.905 211.182 120.305 210.219 121.016 209.509C121.728 208.8 122.692 208.4 123.698 208.399H138.735C139.741 208.4 140.706 208.8 141.417 209.509C142.129 210.219 142.529 211.182 142.53 212.186V227.192C142.529 228.196 142.129 229.159 141.417 229.869C140.706 230.579 139.741 230.978 138.735 230.979ZM123.698 210.503C123.251 210.503 122.823 210.681 122.507 210.996C122.19 211.312 122.013 211.74 122.012 212.186V227.192C122.013 227.639 122.19 228.066 122.507 228.382C122.823 228.697 123.251 228.875 123.698 228.875H138.735C139.182 228.875 139.611 228.697 139.927 228.382C140.243 228.066 140.421 227.639 140.422 227.192V212.186C140.421 211.74 140.243 211.312 139.927 210.996C139.611 210.681 139.182 210.503 138.735 210.503H123.698Z" fill="#6B184E"/>
<path d="M106.414 230.98H101.984C101.704 230.98 101.436 230.869 101.238 230.672C101.041 230.475 100.93 230.207 100.93 229.928C100.93 229.649 101.041 229.382 101.238 229.185C101.436 228.987 101.704 228.877 101.984 228.877H106.414C106.861 228.876 107.289 228.699 107.605 228.383C107.922 228.068 108.099 227.64 108.1 227.194V212.186C108.099 211.74 107.921 211.312 107.605 210.996C107.289 210.681 106.861 210.503 106.414 210.503H101.984C101.704 210.503 101.436 210.392 101.238 210.195C101.041 209.997 100.93 209.73 100.93 209.451C100.93 209.172 101.041 208.904 101.238 208.707C101.436 208.51 101.704 208.399 101.984 208.399H106.414C107.42 208.4 108.384 208.8 109.095 209.509C109.807 210.219 110.207 211.182 110.208 212.186V227.194C110.207 228.198 109.807 229.16 109.095 229.87C108.384 230.58 107.42 230.979 106.414 230.98Z" fill="#6B184E"/>
<path d="M269.161 238.482H248.64C248.502 238.482 248.365 238.455 248.237 238.402C248.109 238.35 247.993 238.272 247.895 238.174C247.797 238.077 247.719 237.961 247.666 237.833C247.613 237.705 247.586 237.569 247.586 237.431C247.586 237.292 247.613 237.156 247.666 237.028C247.719 236.9 247.797 236.784 247.895 236.687C247.993 236.589 248.109 236.512 248.237 236.459C248.365 236.406 248.502 236.379 248.64 236.379H269.161C269.44 236.379 269.709 236.49 269.906 236.687C270.104 236.884 270.215 237.152 270.215 237.431C270.215 237.71 270.104 237.977 269.906 238.174C269.709 238.372 269.44 238.482 269.161 238.482Z" fill="#6B184E"/>
<path d="M253.453 240.691H252.4C251.934 240.691 251.556 241.068 251.556 241.533V245.529C251.556 245.994 251.934 246.371 252.4 246.371H253.453C253.919 246.371 254.297 245.994 254.297 245.529V241.533C254.297 241.068 253.919 240.691 253.453 240.691Z" fill="#6B184E"/>
<path d="M151.948 270.353C151.828 270.353 151.709 270.344 151.59 270.327H149.779C149.007 270.326 148.267 270.019 147.721 269.474C147.175 268.929 146.868 268.191 146.867 267.42V264.372C146.867 259.837 143.277 256.019 138.865 255.861C137.749 255.821 136.636 256.006 135.593 256.404C134.55 256.802 133.598 257.406 132.794 258.179C131.99 258.953 131.351 259.88 130.914 260.905C130.477 261.931 130.251 263.034 130.251 264.148V267.007C130.25 267.437 130.155 267.862 129.97 268.25C129.786 268.639 129.518 268.982 129.185 269.255C128.852 269.528 128.462 269.723 128.044 269.828C127.626 269.933 127.19 269.944 126.768 269.86L104.025 266.032C103.144 265.885 102.344 265.431 101.767 264.75C101.19 264.069 100.875 263.206 100.876 262.315V209.731C100.876 205.256 104.524 201.617 109.008 201.617H274.991C279.323 201.617 282.846 205.129 282.846 209.452V267.423C282.845 268.193 282.538 268.932 281.992 269.477C281.446 270.021 280.705 270.328 279.933 270.329H254.061C253.289 270.328 252.549 270.021 252.003 269.476C251.457 268.932 251.15 268.193 251.149 267.423V264.372C251.149 259.835 247.557 256.016 243.139 255.861C242.023 255.821 240.91 256.006 239.867 256.404C238.824 256.802 237.873 257.406 237.069 258.18C236.265 258.953 235.626 259.88 235.189 260.906C234.752 261.931 234.526 263.034 234.526 264.148V267.418C234.526 268.189 234.219 268.928 233.673 269.474C233.127 270.019 232.386 270.325 231.613 270.325H174.492C173.72 270.325 172.979 270.019 172.433 269.474C171.886 268.928 171.58 268.189 171.58 267.418V264.372C171.58 264.021 171.558 263.67 171.513 263.321C171.008 259.208 167.597 256.004 163.578 255.861C159.209 255.707 155.447 258.972 155.004 263.293C154.977 263.569 154.962 263.859 154.962 264.148V267.007C154.962 268.525 153.806 270.025 152.43 270.302L152.392 270.309C152.246 270.339 152.097 270.353 151.948 270.353ZM242.836 253.647C242.963 253.647 243.089 253.647 243.216 253.653C248.809 253.851 253.359 258.659 253.359 264.372V267.42C253.36 267.605 253.434 267.783 253.566 267.914C253.697 268.044 253.876 268.117 254.061 268.117H279.931C280.116 268.117 280.295 268.044 280.426 267.914C280.558 267.783 280.632 267.605 280.633 267.42V209.45C280.631 207.958 280.036 206.527 278.978 205.472C277.92 204.417 276.485 203.824 274.989 203.824H109.011C107.442 203.826 105.937 204.449 104.828 205.556C103.718 206.664 103.094 208.165 103.092 209.731V262.315C103.091 262.684 103.222 263.041 103.461 263.324C103.7 263.606 104.031 263.794 104.396 263.855L127.152 267.685L127.191 267.693C127.293 267.714 127.399 267.712 127.5 267.687C127.601 267.662 127.696 267.615 127.777 267.55C127.858 267.484 127.923 267.402 127.968 267.308C128.013 267.214 128.037 267.111 128.037 267.007V264.148C128.037 262.737 128.323 261.341 128.876 260.042C129.429 258.744 130.238 257.57 131.256 256.59C132.273 255.611 133.478 254.846 134.799 254.341C136.119 253.837 137.528 253.603 138.941 253.653C144.531 253.854 149.075 258.663 149.075 264.372V267.42C149.076 267.605 149.15 267.783 149.282 267.914C149.413 268.044 149.591 268.117 149.777 268.117H152.047C152.375 267.99 152.746 267.468 152.746 267.006V264.148C152.746 263.785 152.764 263.422 152.799 263.07C153.364 257.594 158.126 253.457 163.653 253.653C168.751 253.835 173.071 257.872 173.706 263.045C173.762 263.485 173.79 263.929 173.79 264.372V267.421C173.79 267.605 173.864 267.783 173.995 267.913C174.126 268.044 174.304 268.118 174.489 268.118H231.61C231.795 268.118 231.972 268.044 232.103 267.913C232.234 267.783 232.308 267.606 232.309 267.421V264.151C232.309 261.366 233.418 258.695 235.392 256.726C237.365 254.756 240.041 253.65 242.832 253.649L242.836 253.647Z" fill="#6B184E"/>
<path d="M278.242 258.117H283.846C284.331 258.117 284.795 258.309 285.138 258.651C285.481 258.993 285.673 259.457 285.673 259.94V263.827C285.673 265.258 285.104 266.63 284.09 267.642C283.076 268.654 281.701 269.222 280.267 269.222H276.819V259.537C276.819 259.35 276.856 259.166 276.927 258.994C276.999 258.821 277.104 258.665 277.236 258.533C277.368 258.401 277.525 258.296 277.697 258.225C277.87 258.154 278.055 258.117 278.242 258.117Z" fill="#FFB640"/>
<path d="M280.267 269.373H276.666V259.537C276.666 259.12 276.832 258.72 277.127 258.425C277.422 258.13 277.823 257.963 278.241 257.963H283.845C284.369 257.963 284.872 258.171 285.243 258.542C285.614 258.912 285.823 259.414 285.824 259.937V263.824C285.823 265.295 285.237 266.705 284.195 267.745C283.154 268.786 281.741 269.371 280.267 269.373ZM276.971 269.07H280.267C281.66 269.069 282.995 268.516 283.98 267.533C284.966 266.55 285.52 265.217 285.521 263.827V259.94C285.521 259.497 285.344 259.072 285.03 258.759C284.716 258.445 284.29 258.269 283.846 258.268H278.244C277.906 258.269 277.583 258.403 277.345 258.642C277.106 258.88 276.973 259.203 276.973 259.54L276.971 269.07Z" fill="#6B184E"/>
<g opacity="0.3">
<path d="M280.267 264.076H276.819V269.828H280.267C281.701 269.828 283.076 269.26 284.09 268.248C285.104 267.237 285.673 265.864 285.673 264.433V260.546C285.673 260.312 285.627 260.079 285.539 259.862C285.27 261.057 284.602 262.126 283.644 262.892C282.685 263.658 281.495 264.075 280.267 264.076Z" fill="#6B184E"/>
</g>
<g opacity="0.55">
<path d="M285.671 259.94V262.605C285.671 262.122 285.479 261.658 285.137 261.317C284.794 260.975 284.33 260.783 283.846 260.783H278.244C278.057 260.783 277.872 260.819 277.699 260.89C277.526 260.961 277.369 261.066 277.237 261.197C277.105 261.329 276.999 261.485 276.928 261.658C276.856 261.83 276.819 262.014 276.818 262.201V259.536C276.819 259.35 276.856 259.165 276.927 258.993C276.999 258.821 277.104 258.664 277.237 258.533C277.369 258.401 277.526 258.296 277.699 258.225C277.872 258.154 278.057 258.118 278.244 258.118H283.847C284.331 258.119 284.795 258.311 285.137 258.652C285.479 258.994 285.671 259.457 285.671 259.94Z" fill="white"/>
</g>
<path d="M280.267 270.326H276.819C276.674 270.326 276.53 270.298 276.395 270.242C276.261 270.187 276.139 270.105 276.036 270.003C275.933 269.9 275.852 269.778 275.796 269.644C275.741 269.51 275.712 269.367 275.712 269.222V259.537C275.713 258.868 275.98 258.226 276.454 257.753C276.928 257.279 277.571 257.013 278.242 257.012H283.846C284.624 257.013 285.369 257.322 285.919 257.871C286.469 258.42 286.779 259.164 286.779 259.94V263.827C286.777 265.55 286.091 267.202 284.87 268.421C283.649 269.639 281.994 270.324 280.267 270.326ZM277.925 268.118H280.267C281.407 268.116 282.5 267.664 283.306 266.86C284.112 266.055 284.565 264.965 284.566 263.827V259.94C284.566 259.75 284.49 259.567 284.355 259.432C284.22 259.297 284.037 259.222 283.846 259.221H278.244C278.16 259.221 278.079 259.255 278.02 259.314C277.961 259.373 277.927 259.453 277.927 259.537L277.925 268.118Z" fill="#6B184E"/>
<path d="M292.946 212.596V220.33C292.946 221.24 292.583 222.112 291.939 222.755C291.294 223.399 290.42 223.76 289.509 223.761C289.079 223.76 288.666 223.59 288.362 223.286C288.058 222.983 287.887 222.571 287.886 222.142V213.322H269.16V211.053C269.16 210.843 269.201 210.634 269.282 210.44C269.363 210.245 269.481 210.068 269.63 209.919C269.779 209.77 269.957 209.652 270.152 209.572C270.347 209.491 270.556 209.45 270.767 209.45H289.794C290.208 209.45 290.618 209.531 291 209.689C291.383 209.848 291.73 210.079 292.023 210.371C292.316 210.664 292.548 211.01 292.706 211.392C292.865 211.774 292.946 212.183 292.946 212.596Z" fill="#FFB640"/>
<path d="M289.509 223.912C289.039 223.912 288.588 223.725 288.255 223.393C287.922 223.061 287.735 222.611 287.735 222.142V213.474H269.009V211.051C269.009 210.586 269.194 210.139 269.524 209.81C269.854 209.48 270.302 209.295 270.768 209.295H289.795C290.671 209.296 291.511 209.644 292.13 210.262C292.75 210.88 293.098 211.718 293.099 212.593V220.33C293.099 221.28 292.72 222.191 292.047 222.862C291.373 223.534 290.461 223.912 289.509 223.912ZM269.312 213.171H288.038V222.142C288.038 222.531 288.193 222.904 288.469 223.179C288.745 223.454 289.119 223.609 289.509 223.609C290.38 223.608 291.215 223.262 291.831 222.648C292.447 222.033 292.793 221.2 292.794 220.33V212.596C292.793 211.802 292.477 211.041 291.914 210.48C291.352 209.918 290.589 209.603 289.794 209.602H270.767C270.38 209.602 270.01 209.755 269.737 210.027C269.464 210.3 269.31 210.67 269.31 211.055L269.312 213.171Z" fill="#6B184E"/>
<g opacity="0.55">
<path d="M292.946 212.596V214.278C292.947 213.865 292.865 213.455 292.707 213.073C292.549 212.69 292.316 212.343 292.023 212.051C291.73 211.758 291.382 211.526 290.999 211.368C290.616 211.21 290.205 211.129 289.79 211.13H270.767C270.556 211.129 270.347 211.171 270.152 211.251C269.957 211.332 269.779 211.45 269.63 211.599C269.481 211.748 269.363 211.925 269.282 212.119C269.201 212.314 269.16 212.522 269.16 212.733V211.053C269.16 210.843 269.201 210.634 269.282 210.44C269.363 210.245 269.481 210.068 269.63 209.919C269.779 209.77 269.957 209.652 270.152 209.572C270.347 209.491 270.556 209.45 270.767 209.45H289.794C290.208 209.45 290.618 209.531 291 209.689C291.383 209.848 291.73 210.079 292.023 210.371C292.316 210.664 292.548 211.01 292.706 211.392C292.865 211.774 292.946 212.183 292.946 212.596Z" fill="white"/>
</g>
<g opacity="0.3">
<path d="M292.946 216.194V220.33C292.946 221.24 292.583 222.112 291.939 222.755C291.294 223.399 290.42 223.76 289.509 223.761C289.079 223.76 288.666 223.59 288.362 223.286C288.058 222.983 287.887 222.571 287.886 222.142V218.005C287.887 218.434 288.058 218.846 288.362 219.149C288.666 219.453 289.079 219.624 289.509 219.624C290.42 219.623 291.294 219.262 291.939 218.619C292.583 217.975 292.945 217.103 292.946 216.194Z" fill="#6B184E"/>
</g>
<path d="M289.509 224.813C288.799 224.812 288.119 224.53 287.617 224.029C287.115 223.529 286.833 222.85 286.832 222.142V214.374H269.16C268.881 214.374 268.613 214.263 268.415 214.066C268.217 213.869 268.106 213.601 268.106 213.322V211.053C268.107 210.349 268.388 209.675 268.886 209.177C269.385 208.679 270.061 208.399 270.767 208.399H289.794C290.909 208.4 291.978 208.842 292.767 209.629C293.555 210.416 293.999 211.483 294 212.596V220.33C293.999 221.519 293.525 222.658 292.683 223.498C291.841 224.338 290.7 224.811 289.509 224.813ZM270.212 212.27H287.886C288.025 212.27 288.162 212.297 288.29 212.35C288.418 212.403 288.534 212.481 288.632 212.578C288.73 212.676 288.807 212.792 288.86 212.92C288.913 213.047 288.94 213.184 288.94 213.322V222.142C288.94 222.292 289 222.436 289.107 222.543C289.214 222.649 289.358 222.709 289.509 222.709C290.141 222.708 290.747 222.457 291.193 222.011C291.64 221.565 291.891 220.961 291.892 220.33V212.596C291.891 212.041 291.67 211.509 291.277 211.116C290.883 210.724 290.35 210.503 289.794 210.502H270.767C270.62 210.502 270.48 210.56 270.376 210.664C270.273 210.767 270.215 210.907 270.214 211.053L270.212 212.27Z" fill="#6B184E"/>
<path d="M251.897 264.954C252.064 266.288 251.934 267.642 251.515 268.92C251.097 270.198 250.4 271.368 249.476 272.345C248.552 273.323 247.422 274.085 246.169 274.577C244.915 275.068 243.568 275.277 242.223 275.189C240.879 275.1 239.571 274.716 238.393 274.064C237.215 273.412 236.196 272.508 235.409 271.418C234.622 270.327 234.086 269.076 233.839 267.754C233.593 266.433 233.642 265.073 233.984 263.773C234.522 261.722 235.76 259.922 237.483 258.683C239.207 257.443 241.31 256.842 243.43 256.982C245.55 257.122 247.554 257.994 249.1 259.449C250.645 260.904 251.634 262.851 251.897 264.955V264.954Z" fill="#7C6B6A"/>
<path d="M242.819 276.32C237.734 276.32 233.309 272.533 232.658 267.369C231.953 261.774 235.94 256.651 241.547 255.945C247.154 255.24 252.288 259.221 252.995 264.816C253.702 270.41 249.712 275.534 244.106 276.239C243.679 276.293 243.249 276.32 242.819 276.32ZM242.842 258.073C242.502 258.073 242.161 258.095 241.823 258.138C237.427 258.689 234.301 262.707 234.854 267.094C235.407 271.48 239.434 274.603 243.829 274.048C245.856 273.793 247.709 272.778 249.012 271.208C250.315 269.639 250.97 267.633 250.844 265.599C250.719 263.564 249.822 261.654 248.335 260.256C246.849 258.859 244.885 258.078 242.842 258.073Z" fill="#6B184E"/>
<path d="M247.58 266.418C247.761 263.798 245.779 261.527 243.153 261.346C240.527 261.165 238.252 263.142 238.07 265.763C237.889 268.383 239.871 270.654 242.497 270.835C245.123 271.016 247.398 269.039 247.58 266.418Z" fill="#D3DAE2"/>
<path d="M242.823 271.001C241.545 271.001 240.317 270.504 239.399 269.617C238.481 268.729 237.945 267.519 237.905 266.244C237.865 264.97 238.323 263.729 239.184 262.786C240.044 261.842 241.238 261.27 242.514 261.19C243.79 261.109 245.047 261.528 246.019 262.356C246.991 263.185 247.602 264.358 247.722 265.628C247.842 266.898 247.463 268.165 246.664 269.16C245.864 270.156 244.708 270.802 243.44 270.962C243.235 270.988 243.029 271.001 242.823 271.001ZM242.836 261.487C242.64 261.487 242.444 261.499 242.25 261.524C241.345 261.638 240.495 262.017 239.806 262.613C239.117 263.21 238.621 263.997 238.38 264.874C238.139 265.752 238.165 266.681 238.453 267.545C238.741 268.408 239.28 269.167 240 269.725C240.72 270.283 241.59 270.615 242.5 270.68C243.41 270.745 244.318 270.539 245.11 270.089C245.903 269.639 246.544 268.964 246.952 268.15C247.36 267.337 247.518 266.42 247.405 265.517C247.264 264.406 246.723 263.384 245.882 262.642C245.041 261.9 243.958 261.489 242.836 261.487Z" fill="#6B184E"/>
<g opacity="0.3">
<path d="M247.557 265.52C246.96 264.633 246.081 263.972 245.061 263.644C244.042 263.317 242.941 263.341 241.937 263.714C240.934 264.086 240.085 264.786 239.528 265.699C238.971 266.612 238.738 267.685 238.868 268.746C238.466 268.15 238.205 267.471 238.105 266.76C238.004 266.049 238.065 265.324 238.285 264.641C238.505 263.957 238.877 263.331 239.373 262.811C239.87 262.292 240.478 261.891 241.152 261.638C241.826 261.386 242.548 261.29 243.264 261.356C243.981 261.422 244.673 261.65 245.289 262.021C245.905 262.392 246.429 262.898 246.821 263.5C247.214 264.102 247.464 264.785 247.554 265.497C247.554 265.505 247.557 265.513 247.557 265.52Z" fill="#6B184E"/>
</g>
<path d="M243.875 266.913C244.324 266.336 244.219 265.505 243.641 265.057C243.062 264.609 242.23 264.713 241.78 265.29C241.331 265.867 241.436 266.699 242.014 267.147C242.593 267.595 243.426 267.49 243.875 266.913Z" fill="#6B184E"/>
<path d="M243.277 263.803C243.469 263.555 243.424 263.199 243.176 263.007C242.928 262.814 242.571 262.859 242.378 263.107C242.186 263.354 242.231 263.711 242.479 263.903C242.727 264.095 243.084 264.05 243.277 263.803Z" fill="#6B184E"/>
<path d="M243.276 269.097C243.469 268.85 243.424 268.493 243.176 268.301C242.928 268.109 242.571 268.154 242.378 268.401C242.186 268.649 242.23 269.005 242.479 269.197C242.727 269.39 243.084 269.345 243.276 269.097Z" fill="#6B184E"/>
<path d="M240.75 264.246C240.853 264.289 240.942 264.363 241.004 264.456C241.065 264.55 241.098 264.66 241.098 264.772C241.097 264.884 241.063 264.994 241 265.087C240.937 265.18 240.848 265.252 240.744 265.294C240.639 265.337 240.525 265.347 240.415 265.325C240.305 265.302 240.204 265.247 240.125 265.168C240.046 265.088 239.992 264.986 239.971 264.876C239.949 264.766 239.961 264.652 240.005 264.549C240.063 264.41 240.175 264.3 240.314 264.243C240.454 264.186 240.611 264.187 240.75 264.246Z" fill="#6B184E"/>
<path d="M245.344 266.893C245.448 266.936 245.537 267.01 245.599 267.103C245.661 267.197 245.693 267.307 245.693 267.419C245.692 267.532 245.658 267.641 245.595 267.735C245.532 267.828 245.443 267.9 245.338 267.942C245.234 267.985 245.119 267.995 245.009 267.973C244.899 267.95 244.798 267.895 244.719 267.815C244.639 267.735 244.586 267.634 244.565 267.523C244.543 267.413 244.555 267.299 244.599 267.195C244.658 267.057 244.769 266.947 244.909 266.89C245.049 266.833 245.205 266.834 245.344 266.893Z" fill="#6B184E"/>
<path d="M240.186 266.963C240.275 266.896 240.383 266.856 240.495 266.85C240.608 266.843 240.719 266.87 240.816 266.926C240.913 266.983 240.991 267.067 241.04 267.168C241.089 267.269 241.107 267.382 241.092 267.493C241.077 267.605 241.029 267.709 240.954 267.793C240.879 267.876 240.782 267.936 240.673 267.965C240.564 267.993 240.449 267.989 240.343 267.952C240.237 267.916 240.144 267.849 240.076 267.759C240.031 267.7 239.998 267.632 239.979 267.56C239.96 267.488 239.955 267.413 239.965 267.339C239.976 267.265 240 267.194 240.038 267.129C240.076 267.065 240.126 267.008 240.186 266.963Z" fill="#6B184E"/>
<path d="M244.78 264.318C244.87 264.25 244.977 264.21 245.09 264.204C245.202 264.197 245.314 264.224 245.411 264.281C245.508 264.337 245.586 264.421 245.635 264.522C245.684 264.623 245.702 264.736 245.687 264.848C245.671 264.959 245.623 265.063 245.549 265.147C245.474 265.231 245.376 265.291 245.267 265.319C245.158 265.347 245.044 265.343 244.937 265.306C244.831 265.27 244.738 265.202 244.67 265.113C244.625 265.053 244.592 264.986 244.573 264.914C244.554 264.842 244.55 264.766 244.56 264.693C244.57 264.619 244.595 264.548 244.633 264.483C244.67 264.419 244.72 264.363 244.78 264.318Z" fill="#6B184E"/>
<g opacity="0.55">
<path d="M243.423 272.332C242.802 272.41 242.171 272.365 241.567 272.2C240.964 272.035 240.399 271.753 239.904 271.37C239.41 270.987 238.996 270.51 238.686 269.967C238.376 269.425 238.176 268.826 238.098 268.207C238.04 267.755 238.048 267.297 238.123 266.847C238.302 267.963 238.874 268.978 239.735 269.711C240.596 270.444 241.691 270.848 242.823 270.849C243.955 270.85 245.051 270.449 245.913 269.717C246.776 268.986 247.35 267.971 247.531 266.856C247.54 266.91 247.55 266.965 247.556 267.019C247.714 268.27 247.367 269.533 246.592 270.529C245.817 271.526 244.677 272.174 243.423 272.332Z" fill="white"/>
</g>
<path d="M242.822 271.612C241.384 271.612 240.002 271.053 238.969 270.054C237.935 269.055 237.332 267.694 237.287 266.259C237.242 264.824 237.758 263.428 238.726 262.366C239.694 261.304 241.039 260.66 242.474 260.57C243.91 260.48 245.325 260.951 246.419 261.883C247.513 262.815 248.2 264.136 248.336 265.565C248.471 266.994 248.044 268.42 247.144 269.541C246.245 270.661 244.944 271.388 243.517 271.568C243.286 271.597 243.054 271.612 242.822 271.612ZM242.835 262.098C242.665 262.098 242.495 262.109 242.327 262.13C241.54 262.228 240.801 262.557 240.202 263.074C239.603 263.592 239.171 264.275 238.962 265.038C238.752 265.8 238.773 266.608 239.024 267.358C239.274 268.108 239.742 268.768 240.368 269.253C240.993 269.737 241.749 270.026 242.54 270.082C243.33 270.138 244.119 269.959 244.808 269.568C245.496 269.176 246.052 268.589 246.407 267.882C246.761 267.174 246.897 266.378 246.797 265.594C246.675 264.63 246.206 263.744 245.476 263.1C244.747 262.457 243.808 262.1 242.835 262.098Z" fill="#6B184E"/>
<g opacity="0.3">
<path d="M251.499 263.201C249.887 261.849 248.166 262.42 247.122 263.883C246.605 259.783 237.669 260.906 238.186 265.005C237.318 263.508 235.643 262.995 233.984 263.775C234.485 261.875 235.588 260.187 237.127 258.963C238.666 257.738 240.561 257.042 242.528 256.978C244.496 256.914 246.432 257.485 248.048 258.607C249.664 259.728 250.874 261.341 251.499 263.204V263.201Z" fill="#6B184E"/>
</g>
<path d="M172.158 264.954C172.326 266.288 172.195 267.642 171.777 268.92C171.358 270.198 170.662 271.368 169.738 272.345C168.814 273.323 167.684 274.085 166.43 274.577C165.176 275.068 163.829 275.277 162.485 275.189C161.141 275.1 159.833 274.716 158.655 274.064C157.477 273.412 156.458 272.508 155.67 271.418C154.883 270.327 154.347 269.076 154.101 267.754C153.855 266.433 153.904 265.073 154.246 263.773C154.785 261.723 156.022 259.924 157.746 258.685C159.47 257.447 161.572 256.846 163.691 256.985C165.811 257.125 167.815 257.997 169.36 259.451C170.906 260.906 171.895 262.852 172.159 264.955L172.158 264.954Z" fill="#7C6B6A"/>
<path d="M163.08 276.32C157.995 276.32 153.571 272.533 152.92 267.369C152.214 261.774 156.201 256.651 161.808 255.945C167.414 255.24 172.549 259.221 173.256 264.816C173.963 270.41 169.974 275.534 164.368 276.239C163.941 276.293 163.511 276.32 163.08 276.32ZM163.104 258.073C162.763 258.073 162.423 258.095 162.085 258.138C157.689 258.689 154.56 262.707 155.116 267.094C155.672 271.48 159.697 274.603 164.091 274.048C166.117 273.793 167.97 272.778 169.273 271.208C170.576 269.639 171.232 267.633 171.106 265.599C170.981 263.564 170.083 261.654 168.597 260.256C167.111 258.859 165.147 258.078 163.104 258.073Z" fill="#6B184E"/>
<path d="M167.842 266.418C168.023 263.798 166.042 261.527 163.416 261.346C160.79 261.165 158.514 263.142 158.333 265.763C158.151 268.383 160.133 270.654 162.759 270.835C165.385 271.016 167.661 269.039 167.842 266.418Z" fill="#D3DAE2"/>
<path d="M163.084 271.001C161.806 271.001 160.578 270.504 159.66 269.616C158.742 268.728 158.207 267.519 158.167 266.244C158.126 264.969 158.585 263.729 159.446 262.785C160.306 261.842 161.5 261.27 162.776 261.19C164.052 261.109 165.309 261.528 166.281 262.356C167.253 263.185 167.863 264.358 167.984 265.628C168.104 266.898 167.724 268.165 166.925 269.16C166.126 270.156 164.97 270.802 163.702 270.962C163.497 270.988 163.291 271.001 163.084 271.001ZM163.091 261.487C162.897 261.488 162.704 261.5 162.512 261.524C161.323 261.674 160.24 262.279 159.491 263.212C158.742 264.145 158.386 265.333 158.499 266.523C158.612 267.713 159.184 268.813 160.095 269.589C161.006 270.366 162.184 270.758 163.38 270.683C164.575 270.608 165.695 270.071 166.501 269.187C167.307 268.303 167.737 267.14 167.7 265.945C167.662 264.75 167.16 263.617 166.3 262.785C165.44 261.953 164.289 261.488 163.091 261.487Z" fill="#6B184E"/>
<g opacity="0.3">
<path d="M167.819 265.52C167.221 264.633 166.342 263.972 165.323 263.644C164.303 263.317 163.203 263.341 162.199 263.714C161.195 264.086 160.346 264.786 159.79 265.699C159.233 266.612 159 267.685 159.129 268.746C158.728 268.15 158.467 267.471 158.366 266.76C158.265 266.049 158.326 265.324 158.546 264.64C158.766 263.956 159.138 263.331 159.634 262.811C160.131 262.291 160.739 261.889 161.413 261.637C162.087 261.385 162.809 261.289 163.526 261.355C164.242 261.421 164.935 261.649 165.551 262.02C166.167 262.392 166.691 262.897 167.083 263.5C167.475 264.102 167.726 264.785 167.815 265.497C167.815 265.505 167.819 265.513 167.819 265.52Z" fill="#6B184E"/>
</g>
<path d="M164.134 266.911C164.583 266.334 164.478 265.503 163.9 265.055C163.322 264.606 162.489 264.711 162.04 265.288C161.59 265.865 161.695 266.697 162.274 267.145C162.852 267.593 163.685 267.488 164.134 266.911Z" fill="#6B184E"/>
<path d="M163.536 263.801C163.728 263.553 163.683 263.197 163.435 263.004C163.187 262.812 162.83 262.857 162.638 263.105C162.445 263.352 162.49 263.709 162.738 263.901C162.986 264.093 163.343 264.048 163.536 263.801Z" fill="#6B184E"/>
<path d="M163.535 269.095C163.728 268.848 163.683 268.491 163.435 268.299C163.187 268.107 162.83 268.152 162.637 268.399C162.445 268.647 162.49 269.003 162.738 269.195C162.986 269.387 163.343 269.343 163.535 269.095Z" fill="#6B184E"/>
<path d="M161.011 264.246C161.115 264.289 161.203 264.363 161.265 264.456C161.327 264.55 161.36 264.66 161.359 264.772C161.359 264.884 161.325 264.994 161.262 265.087C161.199 265.18 161.109 265.252 161.005 265.294C160.901 265.337 160.787 265.347 160.676 265.325C160.566 265.302 160.465 265.247 160.386 265.168C160.307 265.088 160.254 264.986 160.232 264.876C160.211 264.766 160.223 264.652 160.267 264.549C160.325 264.41 160.437 264.3 160.576 264.244C160.716 264.187 160.872 264.188 161.011 264.246Z" fill="#6B184E"/>
<path d="M165.951 267.463C165.978 267.151 165.746 266.875 165.434 266.848C165.121 266.821 164.845 267.052 164.818 267.364C164.791 267.677 165.022 267.952 165.335 267.979C165.648 268.006 165.924 267.775 165.951 267.463Z" fill="#6B184E"/>
<path d="M161.21 267.789C161.425 267.56 161.412 267.201 161.182 266.987C160.953 266.774 160.593 266.786 160.379 267.015C160.165 267.244 160.177 267.603 160.407 267.817C160.636 268.031 160.996 268.018 161.21 267.789Z" fill="#6B184E"/>
<path d="M165.041 264.318C165.131 264.25 165.239 264.21 165.351 264.203C165.463 264.196 165.575 264.223 165.673 264.279C165.77 264.336 165.848 264.42 165.897 264.521C165.947 264.622 165.965 264.736 165.95 264.847C165.934 264.958 165.886 265.063 165.811 265.147C165.737 265.231 165.639 265.291 165.53 265.319C165.421 265.348 165.306 265.343 165.199 265.307C165.093 265.27 165 265.202 164.932 265.113C164.841 264.993 164.801 264.842 164.822 264.693C164.842 264.544 164.921 264.409 165.041 264.318Z" fill="#6B184E"/>
<g opacity="0.55">
<path d="M163.684 272.332C163.063 272.41 162.432 272.365 161.829 272.2C161.225 272.035 160.66 271.753 160.165 271.37C159.671 270.987 159.257 270.51 158.947 269.967C158.637 269.425 158.437 268.826 158.359 268.207C158.302 267.755 158.31 267.297 158.384 266.847C158.566 267.961 159.138 268.974 159.999 269.705C160.859 270.436 161.953 270.838 163.083 270.84C164.214 270.841 165.308 270.441 166.17 269.711C167.032 268.981 167.606 267.969 167.79 266.856C167.799 266.91 167.808 266.965 167.814 267.019C167.972 268.27 167.626 269.532 166.851 270.529C166.077 271.525 164.937 272.174 163.684 272.332Z" fill="white"/>
</g>
<path d="M163.084 271.612C161.647 271.612 160.266 271.053 159.234 270.055C158.202 269.057 157.599 267.697 157.554 266.264C157.509 264.83 158.025 263.435 158.992 262.374C159.959 261.313 161.302 260.67 162.737 260.58C164.171 260.49 165.585 260.96 166.678 261.892C167.771 262.823 168.457 264.142 168.593 265.57C168.728 266.998 168.301 268.423 167.403 269.542C166.504 270.662 165.204 271.388 163.778 271.568C163.548 271.597 163.316 271.612 163.084 271.612ZM163.091 262.098C162.277 262.097 161.482 262.344 160.812 262.805C160.142 263.266 159.629 263.919 159.34 264.679C159.052 265.438 159.002 266.267 159.198 267.056C159.393 267.844 159.825 268.554 160.435 269.091C161.045 269.629 161.805 269.968 162.613 270.064C163.421 270.16 164.239 270.008 164.959 269.628C165.678 269.248 166.264 268.658 166.639 267.938C167.015 267.217 167.161 266.399 167.059 265.594C166.934 264.63 166.463 263.745 165.733 263.102C165.003 262.459 164.064 262.103 163.091 262.098Z" fill="#6B184E"/>
<g opacity="0.3">
<path d="M171.76 263.201C170.149 261.849 168.428 262.42 167.383 263.883C166.866 259.783 157.931 260.906 158.448 265.005C157.579 263.508 155.905 262.995 154.246 263.775C154.747 261.875 155.849 260.187 157.389 258.963C158.928 257.738 160.822 257.042 162.79 256.978C164.757 256.914 166.693 257.485 168.309 258.607C169.926 259.728 171.136 261.341 171.76 263.204L171.76 263.201Z" fill="#6B184E"/>
</g>
<path d="M129.626 196.105H161.835C162.301 196.104 162.763 196.196 163.194 196.373C163.624 196.551 164.016 196.812 164.345 197.141C164.675 197.469 164.936 197.86 165.115 198.289C165.293 198.719 165.385 199.18 165.385 199.645V202.719H126.078V199.645C126.078 198.706 126.452 197.805 127.117 197.141C127.783 196.478 128.685 196.105 129.626 196.105Z" fill="#FFA829"/>
<g opacity="0.55">
<path d="M165.384 199.645V201.84C165.384 201.375 165.292 200.915 165.114 200.485C164.936 200.056 164.675 199.665 164.345 199.337C164.016 199.008 163.625 198.747 163.195 198.569C162.764 198.392 162.303 198.3 161.837 198.3H129.624C128.683 198.3 127.781 198.673 127.116 199.337C126.451 200.001 126.077 200.901 126.077 201.84V199.645C126.077 198.706 126.451 197.806 127.116 197.142C127.781 196.478 128.683 196.105 129.624 196.105H161.837C162.303 196.105 162.764 196.196 163.195 196.374C163.625 196.552 164.016 196.813 164.345 197.141C164.675 197.47 164.936 197.86 165.114 198.29C165.292 198.719 165.384 199.18 165.384 199.645Z" fill="white"/>
</g>
<path d="M165.385 203.823H126.078C125.784 203.823 125.503 203.706 125.295 203.499C125.088 203.292 124.971 203.011 124.971 202.718V199.645C124.973 198.413 125.463 197.233 126.336 196.362C127.208 195.491 128.391 195.001 129.625 195H161.838C163.072 195.001 164.255 195.491 165.127 196.362C165.999 197.233 166.49 198.413 166.491 199.645V202.719C166.491 203.012 166.375 203.292 166.167 203.499C165.96 203.706 165.678 203.823 165.385 203.823ZM127.184 201.614H164.278V199.645C164.277 198.999 164.02 198.38 163.563 197.923C163.105 197.467 162.485 197.21 161.838 197.209H129.625C128.978 197.21 128.358 197.467 127.9 197.923C127.442 198.38 127.185 198.999 127.184 199.645V201.614Z" fill="#6B184E"/>
<path d="M216.287 196.105H248.499C249.44 196.105 250.342 196.478 251.008 197.141C251.673 197.805 252.047 198.706 252.047 199.645V202.719H212.74V199.645C212.74 198.706 213.114 197.805 213.779 197.141C214.444 196.478 215.346 196.105 216.287 196.105Z" fill="#FFA829"/>
<g opacity="0.55">
<path d="M252.046 199.645V201.84C252.046 201.375 251.955 200.915 251.776 200.485C251.598 200.056 251.337 199.665 251.008 199.337C250.678 199.008 250.287 198.747 249.857 198.569C249.426 198.392 248.965 198.3 248.499 198.3H216.287C215.347 198.3 214.445 198.673 213.779 199.337C213.114 200.001 212.741 200.901 212.74 201.84V199.645C212.741 198.706 213.114 197.806 213.779 197.142C214.445 196.478 215.347 196.105 216.287 196.105H248.5C248.966 196.105 249.427 196.197 249.858 196.375C250.288 196.552 250.679 196.813 251.008 197.142C251.337 197.471 251.598 197.861 251.777 198.29C251.955 198.72 252.046 199.18 252.046 199.645Z" fill="white"/>
</g>
<path d="M252.047 203.823H212.74C212.446 203.823 212.165 203.707 211.957 203.499C211.75 203.292 211.633 203.011 211.633 202.718V199.645C211.634 198.413 212.125 197.233 212.998 196.362C213.87 195.491 215.053 195.001 216.287 195H248.499C249.733 195.001 250.916 195.491 251.789 196.362C252.661 197.233 253.152 198.413 253.154 199.645V202.719C253.153 203.012 253.037 203.293 252.829 203.5C252.622 203.707 252.34 203.823 252.047 203.823ZM213.847 201.614H250.94V199.645C250.939 198.999 250.682 198.38 250.224 197.923C249.767 197.467 249.146 197.21 248.499 197.209H216.287C215.64 197.21 215.02 197.467 214.562 197.923C214.105 198.38 213.847 198.999 213.847 199.645V201.614Z" fill="#6B184E"/>
<g opacity="0.3">
<path d="M251.371 214.364C251.373 213.704 251.636 213.071 252.104 212.605C252.572 212.138 253.206 211.875 253.867 211.873H269.395C269.418 211.873 269.439 211.873 269.461 211.873C269.443 211.225 269.173 210.609 268.707 210.157C268.242 209.704 267.618 209.451 266.968 209.451H251.44C250.778 209.453 250.145 209.716 249.677 210.182C249.209 210.649 248.945 211.282 248.943 211.942V237.431H251.371V214.364Z" fill="#6B184E"/>
</g>
<path d="M147.888 264.954C148.055 266.288 147.925 267.642 147.506 268.92C147.088 270.198 146.392 271.368 145.467 272.345C144.543 273.323 143.414 274.085 142.16 274.577C140.906 275.068 139.559 275.277 138.215 275.189C136.871 275.1 135.563 274.716 134.385 274.064C133.206 273.412 132.187 272.508 131.4 271.418C130.613 270.327 130.077 269.076 129.83 267.754C129.584 266.433 129.634 265.073 129.975 263.773C130.514 261.723 131.752 259.924 133.476 258.685C135.199 257.447 137.301 256.846 139.421 256.985C141.54 257.125 143.545 257.997 145.09 259.451C146.635 260.906 147.625 262.852 147.889 264.955L147.888 264.954Z" fill="#7C6B6A"/>
<path d="M138.81 276.32C133.725 276.32 129.3 272.533 128.649 267.369C127.944 261.774 131.931 256.651 137.538 255.945C138.927 255.771 140.337 255.883 141.681 256.273C143.026 256.664 144.276 257.325 145.354 258.216C146.432 259.107 147.316 260.209 147.951 261.454C148.586 262.699 148.958 264.061 149.046 265.456C149.133 266.85 148.933 268.247 148.458 269.562C147.983 270.876 147.243 272.079 146.285 273.097C145.326 274.115 144.168 274.926 142.883 275.481C141.598 276.035 140.212 276.321 138.812 276.32H138.81ZM138.834 258.073C138.493 258.073 138.152 258.095 137.814 258.138C133.418 258.689 130.293 262.707 130.845 267.094C131.398 271.48 135.427 274.603 139.82 274.048C141.847 273.793 143.7 272.778 145.003 271.208C146.306 269.639 146.961 267.633 146.836 265.599C146.71 263.564 145.813 261.654 144.326 260.256C142.84 258.859 140.876 258.078 138.834 258.073Z" fill="#6B184E"/>
<path d="M142.188 269.456C144.049 267.599 144.049 264.587 142.188 262.73C140.327 260.872 137.309 260.872 135.448 262.73C133.586 264.587 133.586 267.599 135.448 269.456C137.309 271.313 140.327 271.313 142.188 269.456Z" fill="#D3DAE2"/>
<path d="M138.814 271.001C137.535 271.001 136.306 270.504 135.387 269.616C134.469 268.727 133.932 267.517 133.892 266.241C133.852 264.965 134.311 263.724 135.172 262.779C136.033 261.835 137.228 261.262 138.505 261.182C139.782 261.102 141.039 261.521 142.012 262.35C142.985 263.179 143.596 264.353 143.717 265.624C143.837 266.895 143.457 268.163 142.657 269.159C141.857 270.155 140.7 270.802 139.431 270.962C139.227 270.988 139.021 271.001 138.814 271.001ZM138.821 261.487C138.627 261.488 138.434 261.5 138.241 261.524C137.337 261.638 136.486 262.017 135.797 262.613C135.108 263.21 134.612 263.997 134.372 264.874C134.131 265.752 134.156 266.681 134.444 267.545C134.733 268.408 135.271 269.167 135.991 269.725C136.712 270.283 137.582 270.615 138.491 270.68C139.401 270.745 140.309 270.539 141.102 270.089C141.894 269.639 142.535 268.964 142.943 268.15C143.352 267.337 143.509 266.42 143.396 265.517C143.254 264.406 142.712 263.383 141.87 262.642C141.028 261.9 139.944 261.49 138.821 261.487Z" fill="#6B184E"/>
<g opacity="0.3">
<path d="M143.548 265.52C142.951 264.633 142.072 263.972 141.052 263.644C140.033 263.317 138.933 263.341 137.929 263.714C136.925 264.086 136.076 264.786 135.519 265.699C134.962 266.612 134.73 267.685 134.859 268.746C134.458 268.15 134.197 267.471 134.096 266.76C133.995 266.049 134.057 265.324 134.276 264.641C134.496 263.957 134.868 263.331 135.365 262.811C135.861 262.292 136.469 261.891 137.143 261.638C137.817 261.386 138.539 261.29 139.256 261.356C139.972 261.422 140.665 261.65 141.281 262.021C141.897 262.392 142.42 262.898 142.813 263.5C143.205 264.102 143.455 264.785 143.546 265.497C143.546 265.505 143.548 265.513 143.548 265.52Z" fill="#6B184E"/>
</g>
<path d="M139.863 266.911C140.312 266.334 140.207 265.502 139.629 265.054C139.05 264.606 138.217 264.711 137.768 265.288C137.319 265.865 137.424 266.696 138.002 267.144C138.581 267.592 139.414 267.488 139.863 266.911Z" fill="#6B184E"/>
<path d="M139.264 263.8C139.457 263.553 139.412 263.196 139.164 263.004C138.916 262.812 138.559 262.857 138.366 263.104C138.174 263.352 138.219 263.708 138.467 263.9C138.715 264.092 139.072 264.048 139.264 263.8Z" fill="#6B184E"/>
<path d="M139.265 269.095C139.457 268.847 139.412 268.491 139.164 268.298C138.916 268.106 138.559 268.151 138.367 268.399C138.174 268.646 138.219 269.003 138.467 269.195C138.715 269.387 139.072 269.342 139.265 269.095Z" fill="#6B184E"/>
<path d="M136.741 264.246C136.844 264.289 136.933 264.363 136.995 264.456C137.057 264.55 137.089 264.66 137.089 264.772C137.088 264.884 137.054 264.994 136.991 265.087C136.928 265.18 136.839 265.252 136.735 265.294C136.631 265.337 136.516 265.347 136.406 265.325C136.296 265.302 136.195 265.247 136.116 265.168C136.037 265.088 135.983 264.986 135.962 264.876C135.941 264.766 135.952 264.652 135.996 264.549C136.055 264.41 136.166 264.3 136.306 264.244C136.445 264.187 136.602 264.188 136.741 264.246Z" fill="#6B184E"/>
<path d="M141.336 266.893C141.439 266.936 141.528 267.01 141.59 267.103C141.652 267.197 141.685 267.307 141.684 267.419C141.683 267.532 141.649 267.641 141.586 267.735C141.523 267.828 141.434 267.9 141.329 267.942C141.225 267.985 141.111 267.995 141 267.973C140.89 267.95 140.789 267.895 140.71 267.815C140.631 267.735 140.577 267.634 140.556 267.523C140.535 267.413 140.547 267.299 140.59 267.195C140.649 267.057 140.76 266.947 140.9 266.89C141.04 266.833 141.196 266.834 141.336 266.893Z" fill="#6B184E"/>
<path d="M136.176 266.963C136.266 266.896 136.374 266.856 136.486 266.849C136.599 266.842 136.71 266.869 136.808 266.925C136.905 266.982 136.983 267.066 137.032 267.167C137.082 267.268 137.1 267.382 137.084 267.493C137.069 267.604 137.021 267.709 136.947 267.793C136.872 267.877 136.774 267.937 136.665 267.965C136.556 267.994 136.441 267.989 136.335 267.953C136.228 267.916 136.135 267.849 136.067 267.759C136.022 267.7 135.989 267.632 135.97 267.56C135.951 267.488 135.946 267.413 135.956 267.339C135.967 267.265 135.991 267.194 136.029 267.129C136.067 267.065 136.117 267.009 136.176 266.963Z" fill="#6B184E"/>
<path d="M140.771 264.318C140.861 264.25 140.969 264.21 141.081 264.204C141.193 264.197 141.305 264.224 141.402 264.281C141.499 264.337 141.577 264.421 141.626 264.522C141.675 264.623 141.693 264.736 141.678 264.848C141.662 264.959 141.614 265.063 141.54 265.147C141.465 265.231 141.367 265.291 141.258 265.319C141.15 265.347 141.035 265.343 140.929 265.306C140.822 265.27 140.729 265.202 140.661 265.113C140.616 265.053 140.583 264.986 140.564 264.914C140.545 264.842 140.541 264.766 140.551 264.693C140.561 264.619 140.586 264.548 140.624 264.483C140.662 264.419 140.712 264.363 140.771 264.318Z" fill="#6B184E"/>
<g opacity="0.55">
<path d="M139.414 272.332C138.678 272.424 137.931 272.344 137.232 272.098C136.533 271.852 135.901 271.447 135.387 270.914C134.872 270.382 134.489 269.737 134.268 269.031C134.047 268.325 133.994 267.577 134.114 266.847C134.293 267.963 134.865 268.978 135.726 269.711C136.587 270.444 137.682 270.848 138.814 270.849C139.946 270.85 141.042 270.449 141.905 269.717C142.767 268.986 143.341 267.971 143.523 266.856C143.532 266.91 143.541 266.965 143.547 267.019C143.705 268.27 143.358 269.533 142.583 270.529C141.808 271.526 140.668 272.174 139.414 272.332Z" fill="white"/>
</g>
<path d="M138.814 271.612C137.376 271.612 135.995 271.053 134.963 270.055C133.931 269.057 133.329 267.697 133.284 266.264C133.238 264.83 133.754 263.435 134.721 262.374C135.689 261.313 137.032 260.67 138.466 260.58C139.901 260.49 141.314 260.96 142.407 261.892C143.5 262.823 144.187 264.142 144.322 265.57C144.458 266.998 144.031 268.423 143.132 269.542C142.234 270.662 140.934 271.388 139.508 271.568C139.278 271.597 139.046 271.612 138.814 271.612ZM138.826 262.098C138.656 262.098 138.486 262.109 138.318 262.13C137.532 262.228 136.792 262.557 136.193 263.074C135.594 263.592 135.163 264.275 134.953 265.038C134.743 265.8 134.765 266.608 135.015 267.358C135.265 268.108 135.733 268.768 136.359 269.253C136.985 269.737 137.741 270.026 138.531 270.082C139.321 270.138 140.111 269.959 140.799 269.568C141.487 269.176 142.044 268.589 142.398 267.882C142.752 267.174 142.888 266.378 142.788 265.594C142.666 264.63 142.197 263.744 141.468 263.1C140.738 262.457 139.799 262.101 138.826 262.098Z" fill="#6B184E"/>
<g opacity="0.3">
<path d="M147.489 263.201C145.878 261.849 144.157 262.42 143.112 263.883C142.596 259.783 133.66 260.906 134.177 265.005C133.308 263.508 131.634 262.995 129.975 263.775C130.477 261.875 131.579 260.187 133.118 258.963C134.658 257.738 136.552 257.042 138.519 256.978C140.487 256.914 142.423 257.485 144.039 258.607C145.655 259.728 146.865 261.341 147.49 263.204L147.489 263.201Z" fill="#6B184E"/>
</g>
<path d="M288.835 275.571C285.007 276.119 281.181 276.251 277.354 276.318C273.526 276.385 269.7 276.354 265.873 276.313L260.133 276.279H254.393H128.107H122.367L119.499 276.308L116.629 276.352C114.715 276.375 112.802 276.341 110.889 276.25C108.976 276.135 107.062 275.975 105.148 275.574C105.069 275.555 104.998 275.509 104.948 275.445C104.898 275.381 104.87 275.302 104.87 275.221C104.87 275.139 104.898 275.06 104.948 274.996C104.998 274.932 105.069 274.887 105.148 274.868C107.062 274.467 108.976 274.306 110.889 274.191C112.802 274.102 114.715 274.069 116.629 274.09L119.499 274.134L122.369 274.159H128.11H254.396H260.136L265.876 274.126C269.703 274.084 273.53 274.044 277.357 274.12C281.183 274.196 285.011 274.319 288.838 274.868C288.923 274.88 289.001 274.922 289.057 274.987C289.113 275.052 289.144 275.135 289.144 275.221C289.144 275.307 289.113 275.39 289.057 275.454C289.001 275.519 288.923 275.562 288.838 275.574L288.835 275.571Z" fill="#6B184E"/>
</g>
<path d="M26.5592 51.569C28.6564 51.0589 30.867 51.1156 32.9075 51.7391C31.2637 39.1557 43.3936 25.9489 56.0903 33.3742C56.9405 27.7061 59.7746 22.2079 64.4792 18.9771C69.1837 15.7462 76.0422 15.4628 80.4634 19.0905C80.5767 12.9122 84.5445 7.13063 89.8158 3.89977C95.0872 0.66892 101.549 -0.351349 107.727 0.102104C114.529 0.612238 121.274 3.21959 126.376 7.81081C132.384 13.2522 133.404 20.3941 132.951 28.2729C136.181 27.6494 139.582 27.4227 142.7 28.3862C151.656 31.1636 153.243 43.4069 151.032 51.2289C156.7 50.0953 162.708 49.1317 168.093 51.0589C173.535 52.9861 177.956 58.881 176.312 64.4358C179.486 63.1321 182.774 61.8284 186.231 61.6584C189.689 61.4883 193.373 62.6786 195.414 65.456C198.134 69.2537 196.887 74.6951 194.167 78.4928C190.539 83.5941 184.701 86.7683 178.579 88.1287C168.036 90.4526 156.473 87.3918 148.481 80.1366C149.955 81.4969 137.372 88.6388 136.125 89.0356C131.08 90.736 125.922 92.4365 120.537 91.1328C114.756 89.7158 109.768 85.8614 106.254 81.0435C94.067 90.7927 74.9086 90.3959 63.1755 80.0799C51.8392 89.4324 33.531 88.7522 22.8748 78.6062C18.4537 80.3633 12.8989 81.1002 9.38461 77.926C6.72058 75.4887 6.21044 71.0108 8.25098 68.0067C10.3482 65.0026 14.7127 63.9256 17.9435 65.6261C16.9233 61.6584 18.2269 57.1805 21.2311 54.3464C22.8748 52.9294 24.6887 52.0225 26.5592 51.569Z" fill="white"/>
<path d="M133.007 28.2729C133.461 20.3941 132.44 13.2522 126.432 7.81081C121.331 3.21959 114.586 0.555557 107.784 0.102104C101.606 -0.351349 95.1439 0.66892 89.8725 3.89977C100.359 2.36937 111.865 2.8795 120.254 9.39789C122.408 11.0417 124.278 13.0822 125.525 15.4628C126.942 18.1269 127.566 21.1877 127.509 24.2485C127.396 31.277 123.598 38.0221 118.043 42.3866C112.545 46.7511 105.403 48.905 98.3748 49.0184C105.573 50.6621 113.339 49.5285 119.744 45.7875C126.092 42.0465 132.554 35.5848 133.007 28.2729Z" fill="#F5FBFF"/>
<path d="M80.4634 19.0905C76.0422 15.5195 69.1837 15.8029 64.4792 18.9771C59.7746 22.1513 56.9405 27.7061 56.0903 33.3742C55.5235 37.1719 59.2078 40.4027 62.552 42.2166C65.9529 44.0304 69.9206 44.4271 73.7183 43.8603C69.9773 43.4636 66.9732 40.4027 65.4994 36.9452C63.6289 32.524 63.969 27.1392 66.7464 23.2282C69.5238 19.3172 75.8155 17.9568 80.4634 19.0905Z" fill="#F5FBFF"/>
<path d="M32.9075 51.7391C30.867 51.0589 28.6564 51.0589 26.5592 51.569C24.632 52.0225 22.8748 52.9861 21.4011 54.2897C18.397 57.1238 17.0933 61.6017 18.1136 65.5694C14.8827 63.8689 10.5182 65.0026 8.42103 67.95C6.32381 70.9542 6.83394 75.432 9.55466 77.8693C13.0689 81.0435 18.6237 80.3066 23.0449 78.5495C33.701 88.6955 52.0092 89.3757 63.3455 80.0232C75.0786 90.3393 94.237 90.736 106.424 80.9868C109.938 85.8047 114.926 89.6591 120.707 91.0761C126.092 92.3798 131.25 90.6227 136.295 88.9789C137.485 88.5821 150.125 81.4403 148.651 80.0799C156.644 87.2785 168.207 90.3393 178.749 88.072C184.814 86.7116 190.709 83.5375 194.337 78.4361C197.057 74.6385 198.248 69.197 195.584 65.3993C193.543 62.5653 189.859 61.4316 186.401 61.6017C182.944 61.7717 179.656 63.0754 176.482 64.3791C178.183 58.881 173.705 52.9861 168.263 51.0022C162.822 49.075 156.814 50.0386 151.202 51.1723C153.469 43.4069 151.826 31.107 142.87 28.3296C140.999 27.7627 139.072 27.5927 137.088 27.7061C138.392 34.3378 137.769 41.4797 134.028 47.0912C130.06 52.9861 122.181 56.4437 115.549 53.9497C108.861 60.0146 99.4517 62.9054 90.496 61.715C81.5403 60.5247 73.2648 55.1967 68.4469 47.5446C63.4022 50.9455 55.8636 50.6054 51.7825 46.0709C47.588 41.423 49.6853 36.6618 51.9525 32.0139C52.0092 31.9005 52.0659 31.7871 52.1226 31.6738C40.9563 28.783 31.4338 40.5161 32.9075 51.7391Z" fill="#F5FBFF"/>
<path d="M26.5592 51.569C28.6564 51.0589 30.867 51.1156 32.9075 51.7391C31.4338 40.5161 40.9563 28.783 52.0092 31.6738C47.8148 31.9572 43.7904 33.9977 41.1263 37.2286C38.4623 40.4594 37.1019 44.6539 37.0453 48.8483C37.0453 50.4921 37.2153 52.1358 37.7821 53.6096C39.3692 57.5773 43.6203 59.7879 47.6447 61.3183C43.847 62.1685 39.9927 60.1846 36.8752 57.8607C33.8144 55.5367 30.3001 52.5893 26.5592 51.569Z" fill="#DFF2FD"/>
<path d="M148.595 80.1366C156.587 87.3351 168.15 90.3959 178.693 88.1287C184.758 86.7683 190.652 83.5941 194.28 78.4928C197.001 74.6951 198.191 69.2537 195.527 65.456C195.584 72.8246 188.329 79.0596 181.243 81.0435C174.101 83.0273 166.393 81.3269 159.761 78.1527C156.587 76.6223 153.469 74.6951 151.202 71.9177C148.991 69.1403 147.744 65.3993 148.651 61.9984C145.931 67.3832 146.894 74.355 148.595 80.1366Z" fill="#DFF2FD"/>
<path d="M106.424 81.0435C94.237 90.7927 75.0786 90.3959 63.3455 80.0799C52.0092 89.4324 33.701 88.7522 23.0449 78.6062C18.6237 80.3633 13.0689 81.1002 9.55466 77.926C6.89062 75.4887 6.38049 71.0108 8.42103 68.0067C10.2348 74.1283 19.0772 76.679 24.2352 72.938C22.6481 70.6141 21.8546 67.78 21.9113 65.0026C27.5794 71.4643 36.5351 74.8085 45.0374 73.6182C53.5396 72.4846 61.305 66.8731 65.046 59.1644C65.2727 64.209 64.5358 69.2537 62.9488 74.0716C74.1717 85.2379 92.3098 88.1854 106.424 81.0435Z" fill="#DFF2FD"/>
<path d="M259.36 151.866C258.462 145.417 254.218 139.54 248.423 136.602C242.627 133.663 235.363 133.663 229.649 136.683C226.058 127.297 216.1 120.685 206.06 121.012C196.02 121.338 186.552 128.603 183.613 138.234C177.246 137.908 171.288 143.866 171.696 150.151C166.88 147.948 161.085 153.58 162.228 158.804C163.37 163.946 169.574 166.884 174.716 165.66C187.613 175.128 205.652 176.924 220.181 170.231C231.69 177.822 249.321 173.414 255.932 161.252C255.034 162.885 268.829 165.415 271.441 159.62C274.379 152.927 264.421 148.927 259.36 151.866Z" fill="white"/>
<path d="M162.228 158.722C163.37 163.864 169.574 166.803 174.716 165.578C187.613 175.047 205.652 176.843 220.181 170.149C231.69 177.74 249.321 173.333 255.932 161.171C255.034 162.803 268.829 165.333 271.441 159.538C274.461 152.927 264.503 148.927 259.442 151.866C258.544 145.417 254.3 139.54 248.504 136.602C246.872 135.786 245.158 135.214 243.362 134.806C245.321 137.255 246.872 139.948 247.525 142.887C248.423 147.05 247.117 151.866 243.444 154.069C240.913 155.62 237.73 155.539 234.791 155.457C231.282 155.294 227.2 154.559 225.813 151.376C225.323 150.315 225.323 149.09 225.078 147.948C224.017 142.071 218.222 137.5 212.263 137.745C215.365 138.071 217.324 141.662 216.671 144.683C216.018 147.703 213.406 149.988 210.467 151.049C207.529 152.11 204.346 152.029 201.326 151.866C196.183 151.621 190.47 150.641 187.205 146.642C184.674 149.335 180.185 149.907 177.083 147.948C175.532 146.968 174.471 145.499 173.9 143.785C173.818 143.621 173.818 143.458 173.818 143.213C172.349 145.172 171.533 147.621 171.696 150.07C166.88 147.948 161.085 153.58 162.228 158.722Z" fill="#F5FBFF"/>
<path d="M255.85 161.171C254.953 162.803 268.747 165.334 271.359 159.538C274.379 152.927 264.421 148.927 259.36 151.866C261.727 151.539 264.258 151.539 266.625 151.947C267.931 152.192 269.318 152.682 269.89 153.906C270.135 154.396 270.135 154.967 270.135 155.457C270.053 157.253 269.155 159.048 267.686 160.028C266.38 160.844 264.666 161.007 263.115 161.089C260.993 161.171 257.973 161.252 255.85 161.171Z" fill="#DFF2FD"/>
<path d="M255.85 161.171C249.321 173.333 231.608 177.74 220.099 170.149C205.652 176.924 187.531 175.128 174.634 165.578C169.492 166.803 163.289 163.864 162.146 158.722C161.003 153.58 166.799 147.948 171.614 150.07C168.104 150.396 165.819 154.559 166.88 157.906C167.941 161.252 172.349 162.966 175.369 161.252C174.634 159.375 174.226 157.334 174.308 155.294C175.614 158.232 179.369 159.13 182.634 159.212C185.735 159.293 188.919 158.967 191.857 158.151C191.123 161.987 187.613 165.007 183.776 165.333C189.408 168.517 196.02 169.17 202.468 169.088C206.794 169.088 211.284 168.68 215.038 166.476C218.793 164.354 221.568 159.946 220.67 155.702C223.854 158.559 224.752 163.538 222.711 167.292C227.853 170.068 234.138 170.476 239.852 169.17C245.647 168.027 251.361 164.925 255.85 161.171Z" fill="#DFF2FD"/>
<path d="M16.8839 143.168C21.2939 133.829 34.6537 130.068 43.2791 135.775C48.2728 129.225 57.028 125.852 65.0698 127.279C73.1764 128.706 80.2454 134.867 82.7099 142.714C87.055 142.001 92.0487 144.141 93.6701 148.227C95.2914 152.377 92.1784 157.825 87.7684 157.825C86.3416 157.825 84.85 157.241 83.4232 157.63C82.3207 157.955 81.4128 158.798 80.5048 159.511C69.4149 169.044 50.4778 167.164 41.4632 155.685C35.1076 161.262 24.5366 161.132 18.3106 155.36C19.1537 156.139 9.6203 158.149 8.5178 157.955C5.01572 157.436 0.67056 155.296 0.0868813 151.404C-1.14533 143.298 11.1768 139.277 16.8839 143.168Z" fill="white"/>
<path d="M0.0868668 151.404C0.670546 155.296 5.01571 157.371 8.51778 157.955C9.62029 158.149 19.1537 156.139 18.3106 155.36C24.5365 161.067 35.1076 161.197 41.4632 155.685C50.4778 167.164 69.4149 169.044 80.5048 159.511C81.4128 158.733 82.2559 157.89 83.4232 157.63C84.85 157.241 86.2768 157.825 87.7684 157.825C92.1784 157.89 95.2914 152.377 93.6701 148.227C92.0487 144.076 87.1199 142.001 82.7098 142.714C81.9316 140.25 80.6994 137.98 79.1429 135.969C79.532 140.574 78.1053 145.373 75.0572 148.875C73.4359 150.756 71.3606 152.247 69.0258 153.091C65.6535 154.323 61.9568 154.128 58.4547 153.674C56.0552 153.35 53.6556 152.961 51.5803 151.858C49.505 150.756 47.6891 148.81 47.3 146.411C46.9758 144.4 47.754 142.39 48.7268 140.574C50.2184 137.85 52.2937 135.386 54.6933 133.505C48.1431 134.607 42.436 139.407 40.1662 145.632C39.8419 146.54 39.5825 147.448 38.8691 148.097C38.2854 148.616 37.572 148.875 36.7938 149.07C33.162 150.107 29.3357 150.561 25.5742 150.367C22.3964 150.237 18.8295 149.459 17.1433 146.735C16.0408 148.356 14.4194 149.783 12.409 150.107C10.4634 150.432 8.19353 149.264 7.80441 147.319C7.48015 145.762 8.32325 144.206 9.55546 143.233C10.0094 142.909 11.5659 142.325 12.4739 141.741C6.50736 141.222 -0.885931 145.049 0.0868668 151.404Z" fill="#F5FBFF"/>
<path d="M41.4633 155.685C50.4779 167.164 69.415 169.044 80.5049 159.511C81.4128 158.733 82.2559 157.89 83.4233 157.63C84.85 157.241 86.2768 157.825 87.7684 157.825C92.1784 157.89 95.2914 152.377 93.6701 148.227C93.0216 151.08 90.4274 153.545 87.7036 154.712C84.9798 155.879 81.8019 155.685 79.2078 154.193C78.2999 157.176 75.7706 159.446 72.9171 160.678C70.0635 161.911 66.8857 162.17 63.7727 162.235C61.6326 162.235 59.4276 162.17 57.3523 161.716C53.7205 160.938 50.4778 158.992 47.3649 157.047C44.8356 155.425 42.0469 153.48 41.5281 150.496C41.3336 151.988 41.593 154.063 41.4633 155.685Z" fill="#DFF2FD"/>
<path d="M41.4632 155.685C35.1076 161.262 24.5365 161.132 18.3106 155.36C19.1537 156.139 9.62029 158.149 8.51778 157.955C5.01571 157.436 0.670546 155.296 0.0868668 151.404C-0.885931 145.049 6.50736 141.222 12.4739 141.676C9.55546 142.39 6.50733 143.557 4.95086 146.151C3.39438 148.745 3.71866 152.572 6.18308 154.323C7.80441 155.49 10.0094 155.49 11.955 155.231C14.3546 154.842 16.8839 153.934 17.9864 151.793C20.8399 154.842 24.9905 156.398 29.0763 156.852C33.162 157.241 37.3775 156.463 41.4632 155.685Z" fill="#DFF2FD"/>
<defs>
<clipPath id="clip0_176_6">
<rect width="194" height="87" fill="white" transform="translate(100 195)"/>
</clipPath>
</defs>
</svg>
