<svg width="197" height="133" viewBox="0 0 197 133" fill="none" xmlns="http://www.w3.org/2000/svg">
<path d="M55.3048 83.4231V86.2207H51.7469V103.602H48.0503V86.2207H44.4924V83.4231H55.3048Z" fill="#532815"/>
<path d="M60.711 95.7142V103.557H57.0145V83.3773H64.5C66.8566 83.3773 68.0117 84.4321 68.0117 86.5417V92.5038C68.0117 94.2466 67.2262 95.2555 65.6552 95.5766L69.0283 103.557H65.0545L61.9586 95.7142H60.711ZM60.711 86.2207V93.0083H63.391C63.7145 93.0083 63.9917 92.9624 64.0841 92.8248C64.2228 92.6873 64.269 92.4579 64.269 92.1369V87.0921C64.269 86.771 64.2228 86.5417 64.0841 86.4042C63.9455 86.2666 63.7145 86.2207 63.391 86.2207H60.711Z" fill="#532815"/>
<path d="M79.1938 103.557L78.4083 99.3831H73.9724L73.2793 103.557H69.5828L73.6952 83.3773H78.6855L82.9828 103.557H79.1938ZM74.4807 96.5855H77.9462L76.1903 86.9086L74.4807 96.5855Z" fill="#532815"/>
<path d="M95.3662 90.0731H91.6234V86.9545C91.6234 86.6335 91.5772 86.4042 91.4386 86.2666C91.3 86.129 91.069 86.0831 90.7455 86.0831H89.2207C88.8972 86.0831 88.62 86.129 88.5276 86.2666C88.389 86.4042 88.3428 86.6335 88.3428 86.9545V100.071C88.3428 100.392 88.389 100.621 88.5276 100.759C88.6662 100.897 88.8972 100.942 89.2207 100.942H90.7455C91.069 100.942 91.3462 100.897 91.4386 100.759C91.5772 100.621 91.6234 100.392 91.6234 100.071V96.9983H95.3662V100.438C95.3662 102.548 94.211 103.602 91.8545 103.602H88.0655C85.709 103.602 84.5538 102.548 84.5538 100.438V86.5417C84.5538 84.4321 85.709 83.3773 88.0655 83.3773H91.8545C94.211 83.3773 95.3662 84.4321 95.3662 86.5417V90.0731Z" fill="#532815"/>
<path d="M108.628 90.0731H104.885V86.9545C104.885 86.6335 104.839 86.4042 104.7 86.2666C104.561 86.129 104.33 86.0831 104.007 86.0831H102.482C102.159 86.0831 101.881 86.129 101.789 86.2666C101.65 86.4042 101.604 86.6335 101.604 86.9545V100.071C101.604 100.392 101.65 100.621 101.789 100.759C101.928 100.897 102.159 100.942 102.482 100.942H104.007C104.33 100.942 104.608 100.897 104.7 100.759C104.839 100.621 104.885 100.392 104.885 100.071V96.9983H108.628V100.438C108.628 102.548 107.472 103.602 105.116 103.602H101.327C98.9703 103.602 97.8152 102.548 97.8152 100.438V86.5417C97.8152 84.4321 98.9703 83.3773 101.327 83.3773H105.116C107.472 83.3773 108.628 84.4321 108.628 86.5417V90.0731Z" fill="#532815"/>
<path d="M114.588 83.4231H118.516C120.872 83.4231 122.028 84.478 122.028 86.5876V100.438C122.028 102.548 120.872 103.602 118.516 103.602H114.588C112.232 103.602 111.077 102.548 111.077 100.438V86.5876C111.077 84.478 112.278 83.4231 114.588 83.4231ZM118.331 99.8876V87.0462C118.331 86.7252 118.285 86.4959 118.146 86.3583C118.008 86.2207 117.777 86.1749 117.453 86.1749H115.743C115.374 86.1749 115.143 86.2207 115.004 86.3583C114.866 86.4959 114.819 86.7252 114.819 87.0462V99.8876C114.819 100.209 114.866 100.438 115.004 100.576C115.143 100.713 115.374 100.759 115.743 100.759H117.453C117.777 100.759 118.054 100.713 118.146 100.576C118.285 100.484 118.331 100.255 118.331 99.8876Z" fill="#532815"/>
<path d="M128.404 83.4231H132.332C134.688 83.4231 135.843 84.478 135.843 86.5876V100.438C135.843 102.548 134.688 103.602 132.332 103.602H128.404C126.048 103.602 124.892 102.548 124.892 100.438V86.5876C124.892 84.478 126.094 83.4231 128.404 83.4231ZM132.147 99.8876V87.0462C132.147 86.7252 132.101 86.4959 131.962 86.3583C131.823 86.2207 131.592 86.1749 131.269 86.1749H129.559C129.19 86.1749 128.959 86.2207 128.82 86.3583C128.681 86.4959 128.635 86.7252 128.635 87.0462V99.8876C128.635 100.209 128.681 100.438 128.82 100.576C128.959 100.713 129.19 100.759 129.559 100.759H131.269C131.592 100.759 131.87 100.713 131.962 100.576C132.101 100.484 132.147 100.255 132.147 99.8876Z" fill="#532815"/>
<path d="M146.702 83.4231H150.075V103.602H146.61L142.266 90.2566V103.602H138.847V83.4231H142.405L146.702 96.5855V83.4231Z" fill="#532815"/>
<path d="M118.008 58.6117C113.202 64.2528 106.04 67.8759 98 67.8759C89.96 67.8759 82.7979 64.2528 77.9924 58.6117L73.6952 51.3655C72.54 48.4303 71.8931 45.2659 71.8931 41.9638C71.8931 35.2221 74.4807 29.0765 78.7317 24.4445C79.6097 23.4814 80.5338 22.61 81.5503 21.7845C82.0124 21.4176 82.4745 21.0507 82.9366 20.7297C83.6297 20.271 84.3228 19.8124 85.0159 19.3997C87.2338 18.1614 89.6365 17.1983 92.1779 16.6479C92.409 16.6021 92.64 16.5562 92.871 16.5103C93.1021 16.4645 93.3793 16.4186 93.6103 16.3728C94.9965 16.1434 96.4752 16.0059 97.9538 16.0059C99.4324 16.0059 100.911 16.1434 102.343 16.3728C102.621 16.4186 102.898 16.4645 103.175 16.5103C103.406 16.5562 103.591 16.6021 103.822 16.6479H103.868C104.099 16.6938 104.284 16.7397 104.515 16.7855C106.826 17.3817 109.043 18.299 111.077 19.4455C111.77 19.8124 112.417 20.271 113.017 20.6838C113.526 21.0507 114.034 21.4176 114.542 21.8303C115.512 22.61 116.39 23.4814 117.268 24.3986C121.519 29.0307 124.107 35.1762 124.107 41.9179C124.107 45.22 123.46 48.4303 122.305 51.3197C122.305 51.3197 122.305 51.3197 122.305 51.3655L118.008 58.6117Z" fill="white"/>
<path d="M117.268 24.2152C116.437 23.3897 115.605 22.61 114.681 21.8762L110.383 24.5362C113.063 26.5541 115.235 29.26 116.668 32.3328C117.13 33.2959 117.453 34.3048 117.777 35.3597C118.1 36.5521 118.331 37.7903 118.423 39.0745C118.47 39.579 118.47 40.1293 118.47 40.6338C118.47 51.8241 109.321 60.9048 98.0462 60.9048C86.7717 60.9048 77.6228 51.8241 77.6228 40.6338C77.6228 40.0835 77.6228 39.579 77.669 39.0286C77.7614 37.7445 77.9924 36.5521 78.3159 35.3138C78.5931 34.259 78.9628 33.25 79.4248 32.241C80.8572 29.0766 83.0752 26.3707 85.8014 24.3528L81.5041 21.6928C80.5338 22.4266 79.6559 23.2521 78.7779 24.1235C74.1572 28.8931 71.2924 35.3597 71.2924 42.5141C71.2924 57.1441 98 80.3503 98 80.3503C98 80.3503 124.708 57.19 124.708 42.5141C124.708 35.4514 121.889 28.939 117.268 24.2152ZM98 16.0517C93.2869 16.0517 88.851 17.2441 85.0159 19.3997L89.4517 22.2431C92.0393 21.0507 94.9503 20.3628 98.0462 20.3628C101.188 20.3628 104.146 21.0507 106.779 22.289L111.169 19.4455C107.241 17.29 102.759 16.0517 98 16.0517Z" fill="#F3C23C"/>
<path d="M118.377 35.8183C118.192 35.6807 117.961 35.5431 117.73 35.4055C114.727 33.4335 111.723 31.4614 108.72 29.4893C108.166 29.1224 107.611 28.6638 107.057 28.2969C107.149 28.1135 107.241 27.9759 107.334 27.8383C108.073 28.1593 108.859 28.3886 109.552 28.8014C111.261 29.8562 112.879 31.0028 114.542 32.0576C115.466 32.6079 116.206 32.6997 116.668 32.3786C117.037 32.1035 117.222 31.599 117.222 30.8193C117.268 28.6179 117.268 26.4166 117.268 24.2152C117.268 23.1603 117.222 22.1514 117.222 21.1424C117.176 19.3997 116.252 18.8952 114.773 19.7666C112.74 20.959 110.753 22.1972 108.766 23.4355C107.38 24.3069 105.994 25.1783 104.608 26.0497C104.284 26.2331 104.007 26.4166 103.683 26.6459C102.066 27.6548 102.066 28.5721 103.683 29.6269C106.964 31.8741 110.337 33.9838 113.664 36.1852C114.265 36.5521 114.819 37.0107 115.512 37.5152C113.572 38.7535 111.908 38.8452 110.152 37.6986C108.997 36.919 107.703 36.3228 106.594 35.4514C104.7 33.9379 103.037 33.9838 101.003 35.3138C99.6634 36.1852 99.2014 37.1483 99.109 38.7076C98.9703 41.4135 99.2476 43.6148 101.974 45.22C103.961 46.3666 103.406 47.7883 100.68 49.0266C99.5248 47.9717 98.6931 47.3297 98 47.1921C97.2607 47.3297 96.4752 47.9717 95.32 49.0266C92.5476 47.7883 91.9931 46.3666 94.0262 45.22C96.7524 43.6607 97.0297 41.4135 96.891 38.7076C96.7986 37.1483 96.3365 36.231 94.9966 35.3138C92.9634 33.9838 91.3 33.9379 89.4055 35.4514C88.3428 36.3228 87.049 36.919 85.8476 37.6986C84.0917 38.8452 82.4283 38.7535 80.4876 37.5152C81.1807 37.0107 81.7352 36.5521 82.3359 36.1852C85.6628 33.9838 89.0359 31.8741 92.3165 29.6269C93.9338 28.5262 93.9338 27.6548 92.3165 26.6459C92.0393 26.4624 91.8083 26.3248 91.531 26.1414C90.0986 25.2241 88.6662 24.3069 87.1876 23.4355C85.2007 22.1972 83.1676 20.959 81.1807 19.7666C79.7021 18.8952 78.7779 19.3997 78.7317 21.1424C78.6855 22.1514 78.6855 23.2062 78.6855 24.2152C78.6855 26.4166 78.6855 28.6179 78.7317 30.8193C78.7317 31.599 78.9628 32.1035 79.2862 32.3786C79.7483 32.7455 80.4876 32.6538 81.4117 32.0576C83.1214 31.0028 84.7386 29.8562 86.4021 28.8014C87.0952 28.3886 87.8807 28.1593 88.62 27.8383C88.7124 28.0217 88.8048 28.1593 88.8972 28.2969C88.3428 28.7097 87.7883 29.1224 87.2338 29.4893C84.2303 31.4614 81.2269 33.3876 78.2234 35.4055C78.0386 35.5431 77.8076 35.6807 77.6228 35.8183C75.9131 36.9648 75.8207 37.8362 77.4841 38.9828C77.5303 39.0286 77.5766 39.0745 77.6228 39.0745C83.9993 43.6607 90.3759 48.201 96.7986 52.6497C97.0759 52.8331 97.5379 52.9707 97.9538 53.0166C98.4159 52.9707 98.8317 52.8331 99.109 52.6497C105.532 48.201 111.954 43.6607 118.285 39.0745C118.331 39.0286 118.377 38.9828 118.423 38.9828C120.133 37.8362 120.087 36.9648 118.377 35.8183ZM91.7621 40.9548C91.0228 40.9548 90.4221 40.3586 90.4221 39.6248C90.4221 38.891 91.0228 38.2948 91.7621 38.2948C92.5014 38.2948 93.1021 38.891 93.1021 39.6248C93.1021 40.3128 92.5014 40.9548 91.7621 40.9548ZM104.284 40.9548C103.545 40.9548 102.944 40.3586 102.944 39.6248C102.944 38.891 103.545 38.2948 104.284 38.2948C105.023 38.2948 105.624 38.891 105.624 39.6248C105.624 40.3128 105.023 40.9548 104.284 40.9548Z" fill="#532815"/>
<path d="M12.552 121.144C11.6027 121.144 10.7547 120.963 10.008 120.6C9.272 120.237 8.696 119.731 8.28 119.08C7.864 118.429 7.656 117.688 7.656 116.856V113.912C7.656 113.08 7.85867 112.344 8.264 111.704C8.68 111.053 9.25067 110.552 9.976 110.2C10.7013 109.837 11.5333 109.656 12.472 109.656C13.4107 109.656 14.2427 109.8 14.968 110.088C15.704 110.365 16.2747 110.76 16.68 111.272C17.0853 111.773 17.288 112.349 17.288 113C17.288 113.395 17.1547 113.709 16.888 113.944C16.632 114.168 16.2853 114.28 15.848 114.28C15.6347 114.28 15.4 114.248 15.144 114.184C15.1653 113.928 15.176 113.677 15.176 113.432C15.176 112.867 14.9253 112.408 14.424 112.056C13.9227 111.704 13.272 111.528 12.472 111.528C11.6827 111.528 11.0373 111.752 10.536 112.2C10.0453 112.637 9.8 113.208 9.8 113.912V116.856C9.8 117.571 10.056 118.152 10.568 118.6C11.08 119.048 11.7413 119.272 12.552 119.272C13.352 119.272 14.0027 119.096 14.504 118.744C15.0053 118.392 15.256 117.939 15.256 117.384C15.256 117.128 15.2453 116.883 15.224 116.648C15.4907 116.595 15.7147 116.568 15.896 116.568C16.344 116.568 16.7013 116.685 16.968 116.92C17.2347 117.155 17.368 117.475 17.368 117.88C17.368 118.509 17.1653 119.075 16.76 119.576C16.3547 120.067 15.784 120.451 15.048 120.728C14.3227 121.005 13.4907 121.144 12.552 121.144ZM21.8505 121.144C21.1572 121.144 20.5278 121.021 19.9625 120.776C19.4078 120.52 18.9705 120.168 18.6505 119.72C18.3305 119.272 18.1705 118.765 18.1705 118.2V115.944C18.1705 115.368 18.3252 114.845 18.6345 114.376C18.9545 113.907 19.3918 113.539 19.9465 113.272C20.5012 112.995 21.1358 112.856 21.8505 112.856C22.5652 112.856 23.1998 112.995 23.7545 113.272C24.3198 113.539 24.7572 113.907 25.0665 114.376C25.3865 114.845 25.5465 115.368 25.5465 115.944V118.2C25.5465 118.765 25.3812 119.272 25.0505 119.72C24.7305 120.168 24.2878 120.52 23.7225 120.776C23.1678 121.021 22.5438 121.144 21.8505 121.144ZM21.8505 119.432C22.3838 119.432 22.7998 119.309 23.0985 119.064C23.4078 118.819 23.5625 118.488 23.5625 118.072V116.04C23.5625 115.603 23.4078 115.251 23.0985 114.984C22.7998 114.707 22.3838 114.568 21.8505 114.568C21.3278 114.568 20.9118 114.707 20.6025 114.984C20.2932 115.251 20.1385 115.603 20.1385 116.04V118.072C20.1385 118.488 20.2932 118.819 20.6025 119.064C20.9118 119.309 21.3278 119.432 21.8505 119.432ZM29.7243 121.144C28.8389 121.144 28.1669 120.893 27.7083 120.392C27.2603 119.88 27.0363 119.235 27.0363 118.456V110.872C27.0363 110.435 27.1963 110.125 27.5163 109.944C27.8469 109.752 28.3536 109.656 29.0363 109.656V118.376C29.0363 118.739 29.1163 119.005 29.2763 119.176C29.4363 119.336 29.6923 119.416 30.0443 119.416C30.4389 119.416 30.8336 119.315 31.2283 119.112C31.3349 119.208 31.4149 119.331 31.4683 119.48C31.5323 119.619 31.5643 119.763 31.5643 119.912C31.5643 120.232 31.4043 120.52 31.0843 120.776C30.7643 121.021 30.3109 121.144 29.7243 121.144ZM35.1618 121.144C34.2764 121.144 33.6044 120.893 33.1458 120.392C32.6978 119.88 32.4738 119.235 32.4738 118.456V110.872C32.4738 110.435 32.6338 110.125 32.9538 109.944C33.2844 109.752 33.7911 109.656 34.4738 109.656V118.376C34.4738 118.739 34.5538 119.005 34.7138 119.176C34.8738 119.336 35.1298 119.416 35.4818 119.416C35.8764 119.416 36.2711 119.315 36.6658 119.112C36.7724 119.208 36.8524 119.331 36.9058 119.48C36.9698 119.619 37.0018 119.763 37.0018 119.912C37.0018 120.232 36.8418 120.52 36.5218 120.776C36.2018 121.021 35.7484 121.144 35.1618 121.144ZM41.4633 121.144C40.8019 121.144 40.1993 121.016 39.6553 120.76C39.1113 120.493 38.6793 120.136 38.3593 119.688C38.0393 119.229 37.8793 118.717 37.8793 118.152V116.024C37.8793 115.427 38.0446 114.888 38.3753 114.408C38.7059 113.928 39.1433 113.549 39.6873 113.272C40.2419 112.995 40.8393 112.856 41.4793 112.856C42.1086 112.856 42.6846 112.989 43.2073 113.256C43.7406 113.512 44.1619 113.875 44.4713 114.344C44.7806 114.803 44.9353 115.331 44.9353 115.928V116.824C44.9353 117.059 44.8446 117.256 44.6633 117.416C44.4926 117.576 44.2739 117.656 44.0073 117.656H39.8153V118.008C39.8153 118.467 39.9539 118.84 40.2313 119.128C40.5086 119.416 40.9246 119.56 41.4793 119.56C42.0126 119.56 42.4073 119.443 42.6633 119.208C42.9299 118.973 43.0633 118.669 43.0633 118.296C43.2553 118.275 43.3886 118.264 43.4633 118.264C43.8579 118.264 44.1673 118.355 44.3913 118.536C44.6153 118.707 44.7273 118.952 44.7273 119.272C44.7273 119.581 44.5833 119.88 44.2953 120.168C44.0073 120.456 43.6126 120.691 43.1113 120.872C42.6099 121.053 42.0606 121.144 41.4633 121.144ZM43.1273 116.232V115.928C43.1273 115.48 42.9726 115.117 42.6633 114.84C42.3539 114.563 41.9539 114.424 41.4633 114.424C40.9726 114.424 40.5726 114.563 40.2633 114.84C39.9646 115.107 39.8153 115.469 39.8153 115.928V116.232H43.1273ZM49.7713 124.344C49.1419 124.344 48.5819 124.253 48.0913 124.072C47.6006 123.901 47.2166 123.667 46.9393 123.368C46.6619 123.069 46.5233 122.739 46.5233 122.376C46.5233 122.013 46.6459 121.757 46.8913 121.608C47.1473 121.459 47.5046 121.384 47.9633 121.384C48.0059 121.821 48.1766 122.157 48.4753 122.392C48.7739 122.637 49.2059 122.76 49.7713 122.76C50.4006 122.76 50.8433 122.605 51.0993 122.296C51.3659 121.987 51.4993 121.56 51.4993 121.016V120.472C51.6593 120.355 51.7766 120.243 51.8513 120.136L51.7873 120.056C51.5099 120.333 51.1366 120.557 50.6673 120.728C50.2086 120.899 49.7766 120.984 49.3713 120.984C48.7739 120.984 48.2406 120.867 47.7713 120.632C47.3019 120.387 46.9286 120.045 46.6513 119.608C46.3846 119.171 46.2513 118.675 46.2513 118.12V115.736C46.2513 115.203 46.3899 114.717 46.6673 114.28C46.9553 113.832 47.3286 113.485 47.7873 113.24C48.2566 112.984 48.7579 112.856 49.2913 112.856C49.8779 112.856 50.3739 112.973 50.7793 113.208C51.1953 113.443 51.5739 113.779 51.9153 114.216L51.9793 114.152C51.9259 114.056 51.8246 113.917 51.6753 113.736C51.6753 113.149 52.2886 112.856 53.5153 112.856V120.728C53.5153 121.432 53.3553 122.056 53.0353 122.6C52.7153 123.144 52.2673 123.571 51.6913 123.88C51.1259 124.189 50.4859 124.344 49.7713 124.344ZM49.8833 119.272C50.3526 119.272 50.7473 119.155 51.0673 118.92C51.3873 118.675 51.5473 118.387 51.5473 118.056V115.784C51.5473 115.443 51.3873 115.155 51.0673 114.92C50.7579 114.685 50.3633 114.568 49.8833 114.568C49.3606 114.568 48.9553 114.68 48.6673 114.904C48.3899 115.128 48.2513 115.448 48.2513 115.864V117.976C48.2513 118.381 48.3899 118.701 48.6673 118.936C48.9446 119.16 49.3499 119.272 49.8833 119.272ZM58.8226 121.144C58.1613 121.144 57.5586 121.016 57.0146 120.76C56.4706 120.493 56.0386 120.136 55.7186 119.688C55.3986 119.229 55.2386 118.717 55.2386 118.152V116.024C55.2386 115.427 55.404 114.888 55.7346 114.408C56.0653 113.928 56.5026 113.549 57.0466 113.272C57.6013 112.995 58.1986 112.856 58.8386 112.856C59.468 112.856 60.044 112.989 60.5666 113.256C61.1 113.512 61.5213 113.875 61.8306 114.344C62.14 114.803 62.2946 115.331 62.2946 115.928V116.824C62.2946 117.059 62.204 117.256 62.0226 117.416C61.852 117.576 61.6333 117.656 61.3666 117.656H57.1746V118.008C57.1746 118.467 57.3133 118.84 57.5906 119.128C57.868 119.416 58.284 119.56 58.8386 119.56C59.372 119.56 59.7666 119.443 60.0226 119.208C60.2893 118.973 60.4226 118.669 60.4226 118.296C60.6146 118.275 60.748 118.264 60.8226 118.264C61.2173 118.264 61.5266 118.355 61.7506 118.536C61.9746 118.707 62.0866 118.952 62.0866 119.272C62.0866 119.581 61.9426 119.88 61.6546 120.168C61.3666 120.456 60.972 120.691 60.4706 120.872C59.9693 121.053 59.42 121.144 58.8226 121.144ZM60.4866 116.232V115.928C60.4866 115.48 60.332 115.117 60.0226 114.84C59.7133 114.563 59.3133 114.424 58.8226 114.424C58.332 114.424 57.932 114.563 57.6226 114.84C57.324 115.107 57.1746 115.469 57.1746 115.928V116.232H60.4866ZM69.0316 121C68.7436 121 68.493 120.904 68.2796 120.712C68.0663 120.52 67.9596 120.291 67.9596 120.024V110.776C67.9596 110.509 68.061 110.28 68.2636 110.088C68.477 109.896 68.733 109.8 69.0316 109.8H73.3356C74.3596 109.8 75.1756 110.088 75.7836 110.664C76.4023 111.229 76.7116 111.992 76.7116 112.952C76.7116 113.411 76.589 113.848 76.3436 114.264C76.0983 114.669 75.773 114.984 75.3676 115.208V115.256C75.9223 115.448 76.3596 115.763 76.6796 116.2C77.0103 116.637 77.1756 117.139 77.1756 117.704C77.1756 118.344 77.0263 118.915 76.7276 119.416C76.429 119.917 76.013 120.307 75.4796 120.584C74.9463 120.861 74.3383 121 73.6556 121H69.0316ZM73.3036 114.504C73.6556 114.504 73.9543 114.36 74.1996 114.072C74.4556 113.784 74.5836 113.437 74.5836 113.032C74.5836 112.595 74.4663 112.248 74.2316 111.992C74.0076 111.736 73.6983 111.608 73.3036 111.608H70.0396V114.504H73.3036ZM73.6236 119.192C74.061 119.192 74.4076 119.064 74.6636 118.808C74.9196 118.541 75.0476 118.179 75.0476 117.72C75.0476 117.272 74.9196 116.925 74.6636 116.68C74.4183 116.424 74.0716 116.296 73.6236 116.296H70.0396V119.192H73.6236ZM85.8133 119.592C85.8133 120.093 85.6533 120.477 85.3333 120.744C85.0239 121.011 84.5493 121.144 83.9093 121.144V120.184C84.0479 120.024 84.1759 119.848 84.2933 119.656L84.1973 119.592C83.5146 120.627 82.5973 121.144 81.4453 121.144C80.9013 121.144 80.4106 121.021 79.9733 120.776C79.5466 120.52 79.2053 120.168 78.9493 119.72C78.7039 119.272 78.5813 118.765 78.5813 118.2V114.072C78.5813 113.635 78.7413 113.325 79.0613 113.144C79.3919 112.952 79.8933 112.856 80.5653 112.856V118.056C80.5653 118.472 80.6933 118.803 80.9493 119.048C81.2053 119.293 81.5733 119.416 82.0533 119.416C82.5866 119.416 83.0133 119.251 83.3333 118.92C83.6639 118.579 83.8293 118.157 83.8293 117.656V114.072C83.8293 113.635 83.9893 113.325 84.3093 113.144C84.6293 112.952 85.1306 112.856 85.8133 112.856V119.592ZM90.942 121.144C89.918 121.144 89.0913 120.963 88.462 120.6C87.8433 120.227 87.5287 119.731 87.518 119.112C87.518 118.845 87.6247 118.621 87.838 118.44C88.062 118.259 88.414 118.163 88.894 118.152C88.99 118.621 89.214 118.984 89.566 119.24C89.918 119.485 90.3447 119.608 90.846 119.608C91.39 119.608 91.8167 119.539 92.126 119.4C92.4353 119.261 92.59 119.053 92.59 118.776C92.59 118.52 92.462 118.307 92.206 118.136C91.9607 117.965 91.47 117.795 90.734 117.624C89.934 117.432 89.31 117.24 88.862 117.048C88.4247 116.856 88.0993 116.611 87.886 116.312C87.6727 116.013 87.566 115.619 87.566 115.128C87.566 114.445 87.854 113.896 88.43 113.48C89.006 113.064 89.7953 112.856 90.798 112.856C91.7687 112.856 92.574 113.032 93.214 113.384C93.854 113.725 94.174 114.184 94.174 114.76C94.174 115.048 94.0673 115.261 93.854 115.4C93.6407 115.539 93.2887 115.613 92.798 115.624C92.6913 115.197 92.4887 114.877 92.19 114.664C91.8913 114.451 91.47 114.344 90.926 114.344C90.5207 114.344 90.1687 114.413 89.87 114.552C89.582 114.691 89.438 114.872 89.438 115.096C89.438 115.331 89.5607 115.512 89.806 115.64C90.0513 115.768 90.478 115.896 91.086 116.024C92.2807 116.28 93.1447 116.621 93.678 117.048C94.222 117.475 94.494 118.056 94.494 118.792C94.494 119.507 94.174 120.077 93.534 120.504C92.9047 120.931 92.0407 121.144 90.942 121.144ZM103.413 111.656H99.5574C99.5574 110.419 100.117 109.8 101.237 109.8H109.413C109.413 111.037 108.848 111.656 107.717 111.656H105.557V119.56C105.557 120.072 105.376 120.467 105.013 120.744C104.651 121.011 104.117 121.144 103.413 121.144V111.656ZM112.978 114.584C112.349 114.584 111.837 114.755 111.442 115.096C111.047 115.427 110.85 115.843 110.85 116.344V119.928C110.85 120.355 110.69 120.664 110.37 120.856C110.05 121.048 109.549 121.144 108.866 121.144V114.392C108.866 113.901 109.021 113.523 109.33 113.256C109.65 112.989 110.13 112.856 110.77 112.856V113.8C110.61 113.981 110.482 114.157 110.386 114.328L110.482 114.392C111.154 113.368 111.997 112.856 113.01 112.856C113.469 112.856 113.815 112.979 114.05 113.224C114.285 113.459 114.402 113.757 114.402 114.12C114.402 114.397 114.327 114.632 114.178 114.824C113.89 114.664 113.49 114.584 112.978 114.584ZM117.709 121.144C117.165 121.144 116.664 121.037 116.205 120.824C115.757 120.611 115.395 120.307 115.117 119.912C114.851 119.507 114.717 119.027 114.717 118.472C114.717 117.917 114.861 117.437 115.149 117.032C115.437 116.616 115.827 116.301 116.317 116.088C116.819 115.864 117.368 115.752 117.965 115.752C118.456 115.752 118.893 115.832 119.277 115.992C119.672 116.141 120.035 116.371 120.365 116.68L120.445 116.6C120.349 116.504 120.184 116.36 119.949 116.168V115.848C119.949 115.411 119.795 115.064 119.485 114.808C119.176 114.552 118.744 114.424 118.189 114.424C117.197 114.424 116.467 114.787 115.997 115.512C115.763 115.437 115.565 115.32 115.405 115.16C115.245 114.989 115.165 114.808 115.165 114.616C115.165 114.296 115.309 114.003 115.597 113.736C115.885 113.469 116.275 113.256 116.765 113.096C117.256 112.936 117.789 112.856 118.365 112.856C119.496 112.856 120.371 113.123 120.989 113.656C121.608 114.179 121.917 114.893 121.917 115.8V119.8C121.917 120.269 121.768 120.611 121.469 120.824C121.171 121.037 120.701 121.144 120.061 121.144V120.488C120.243 120.307 120.365 120.173 120.429 120.088L120.365 120.008C120.013 120.381 119.635 120.664 119.229 120.856C118.835 121.048 118.328 121.144 117.709 121.144ZM118.221 119.688C118.776 119.688 119.208 119.581 119.517 119.368C119.827 119.155 119.981 118.851 119.981 118.456C119.981 118.072 119.821 117.768 119.501 117.544C119.192 117.32 118.771 117.208 118.237 117.208C117.747 117.208 117.357 117.32 117.069 117.544C116.792 117.757 116.653 118.061 116.653 118.456C116.653 118.861 116.792 119.171 117.069 119.384C117.347 119.587 117.731 119.688 118.221 119.688ZM126.915 121.144C126.222 121.144 125.609 121.021 125.075 120.776C124.542 120.52 124.126 120.168 123.827 119.72C123.529 119.272 123.379 118.765 123.379 118.2V115.96C123.379 115.352 123.529 114.813 123.827 114.344C124.126 113.875 124.542 113.512 125.075 113.256C125.609 112.989 126.217 112.856 126.899 112.856C127.539 112.856 128.105 112.947 128.595 113.128C129.097 113.309 129.486 113.565 129.763 113.896C130.041 114.216 130.179 114.589 130.179 115.016C130.179 115.347 130.051 115.613 129.795 115.816C129.539 116.019 129.203 116.12 128.787 116.12C128.67 116.12 128.585 116.115 128.531 116.104C128.531 115.645 128.382 115.277 128.083 115C127.795 114.723 127.417 114.584 126.947 114.584C126.478 114.584 126.094 114.717 125.795 114.984C125.507 115.251 125.363 115.603 125.363 116.04V118.056C125.363 118.461 125.513 118.792 125.811 119.048C126.11 119.293 126.494 119.416 126.963 119.416C127.433 119.416 127.817 119.277 128.115 119C128.414 118.712 128.563 118.349 128.563 117.912C128.627 117.901 128.718 117.896 128.835 117.896C129.251 117.896 129.587 117.992 129.843 118.184C130.099 118.376 130.227 118.637 130.227 118.968C130.227 119.395 130.083 119.773 129.795 120.104C129.518 120.424 129.129 120.68 128.627 120.872C128.126 121.053 127.555 121.144 126.915 121.144ZM138.973 120.568C138.877 120.749 138.738 120.893 138.557 121C138.375 121.096 138.167 121.144 137.933 121.144C137.73 121.144 137.549 121.096 137.389 121C137.229 120.915 137.074 120.771 136.925 120.568L134.812 117.448L133.725 118.456V119.928C133.725 120.355 133.559 120.664 133.229 120.856C132.909 121.048 132.418 121.144 131.757 121.144V111.192C131.757 110.168 132.423 109.656 133.757 109.656V116.264L137.421 112.856C137.954 113.272 138.221 113.613 138.221 113.88C138.221 114.051 138.173 114.2 138.077 114.328C137.991 114.456 137.853 114.605 137.661 114.776L135.981 116.344L138.973 120.568ZM141.803 112.104C141.419 112.104 141.099 111.992 140.843 111.768C140.598 111.533 140.475 111.235 140.475 110.872C140.475 110.52 140.598 110.232 140.843 110.008C141.099 109.773 141.419 109.656 141.803 109.656C142.187 109.656 142.502 109.773 142.747 110.008C143.003 110.232 143.131 110.52 143.131 110.872C143.131 111.235 143.003 111.533 142.747 111.768C142.502 111.992 142.187 112.104 141.803 112.104ZM140.795 114.072C140.795 113.635 140.961 113.325 141.291 113.144C141.622 112.952 142.123 112.856 142.795 112.856V119.928C142.795 120.355 142.63 120.664 142.299 120.856C141.969 121.048 141.467 121.144 140.795 121.144V114.072ZM145.022 114.392C145.022 113.901 145.177 113.523 145.486 113.256C145.806 112.989 146.286 112.856 146.926 112.856V113.816C146.798 113.965 146.67 114.136 146.542 114.328L146.638 114.392C146.958 113.912 147.369 113.539 147.87 113.272C148.371 112.995 148.926 112.856 149.534 112.856C150.078 112.856 150.558 112.979 150.974 113.224C151.39 113.469 151.71 113.805 151.934 114.232C152.169 114.659 152.286 115.139 152.286 115.672V119.928C152.286 120.355 152.121 120.664 151.79 120.856C151.459 121.048 150.958 121.144 150.286 121.144V115.96C150.286 115.555 150.163 115.224 149.918 114.968C149.683 114.712 149.337 114.584 148.878 114.584C148.334 114.584 147.886 114.755 147.534 115.096C147.182 115.427 147.006 115.843 147.006 116.344V119.928C147.006 120.355 146.846 120.664 146.526 120.856C146.206 121.048 145.705 121.144 145.022 121.144V114.392ZM157.365 124.344C156.736 124.344 156.176 124.253 155.685 124.072C155.194 123.901 154.81 123.667 154.533 123.368C154.256 123.069 154.117 122.739 154.117 122.376C154.117 122.013 154.24 121.757 154.485 121.608C154.741 121.459 155.098 121.384 155.557 121.384C155.6 121.821 155.77 122.157 156.069 122.392C156.368 122.637 156.8 122.76 157.365 122.76C157.994 122.76 158.437 122.605 158.693 122.296C158.96 121.987 159.093 121.56 159.093 121.016V120.472C159.253 120.355 159.37 120.243 159.445 120.136L159.381 120.056C159.104 120.333 158.73 120.557 158.261 120.728C157.802 120.899 157.37 120.984 156.965 120.984C156.368 120.984 155.834 120.867 155.365 120.632C154.896 120.387 154.522 120.045 154.245 119.608C153.978 119.171 153.845 118.675 153.845 118.12V115.736C153.845 115.203 153.984 114.717 154.261 114.28C154.549 113.832 154.922 113.485 155.381 113.24C155.85 112.984 156.352 112.856 156.885 112.856C157.472 112.856 157.968 112.973 158.373 113.208C158.789 113.443 159.168 113.779 159.509 114.216L159.573 114.152C159.52 114.056 159.418 113.917 159.269 113.736C159.269 113.149 159.882 112.856 161.109 112.856V120.728C161.109 121.432 160.949 122.056 160.629 122.6C160.309 123.144 159.861 123.571 159.285 123.88C158.72 124.189 158.08 124.344 157.365 124.344ZM157.477 119.272C157.946 119.272 158.341 119.155 158.661 118.92C158.981 118.675 159.141 118.387 159.141 118.056V115.784C159.141 115.443 158.981 115.155 158.661 114.92C158.352 114.685 157.957 114.568 157.477 114.568C156.954 114.568 156.549 114.68 156.261 114.904C155.984 115.128 155.845 115.448 155.845 115.864V117.976C155.845 118.381 155.984 118.701 156.261 118.936C156.538 119.16 156.944 119.272 157.477 119.272ZM168.189 121.144C167.731 121.091 167.368 120.931 167.101 120.664C166.845 120.397 166.717 120.061 166.717 119.656C166.717 119.347 166.792 119.027 166.941 118.696L170.605 110.36C170.808 109.891 171.16 109.656 171.661 109.656C172.152 109.656 172.499 109.891 172.701 110.36L176.365 118.696C176.515 119.048 176.589 119.368 176.589 119.656C176.589 120.061 176.456 120.397 176.189 120.664C175.933 120.931 175.571 121.091 175.101 121.144L173.757 118.104H169.549L168.189 121.144ZM173.101 116.28L171.341 111.896L171.149 111.976L171.533 112.968L170.189 116.28H173.101ZM178.147 114.232C178.147 113.837 178.302 113.512 178.611 113.256C178.92 112.989 179.379 112.856 179.987 112.856V113.72C179.806 113.965 179.704 114.109 179.683 114.152L179.747 114.216C180.088 113.768 180.462 113.432 180.867 113.208C181.283 112.973 181.795 112.856 182.403 112.856C182.99 112.856 183.507 112.979 183.955 113.224C184.414 113.459 184.771 113.795 185.027 114.232C185.283 114.669 185.411 115.171 185.411 115.736V118.264C185.411 118.84 185.267 119.347 184.979 119.784C184.702 120.221 184.318 120.557 183.827 120.792C183.336 121.027 182.782 121.144 182.163 121.144C181.768 121.144 181.358 121.064 180.931 120.904C180.515 120.733 180.163 120.504 179.875 120.216L179.811 120.296C179.886 120.403 180.003 120.515 180.163 120.632V123C180.163 123.896 179.491 124.344 178.147 124.344V114.232ZM181.779 119.416C182.302 119.416 182.707 119.304 182.995 119.08C183.283 118.856 183.427 118.541 183.427 118.136V115.864C183.427 115.448 183.283 115.133 182.995 114.92C182.718 114.696 182.312 114.584 181.779 114.584C181.299 114.584 180.904 114.701 180.595 114.936C180.286 115.16 180.131 115.443 180.131 115.784V118.216C180.131 118.547 180.28 118.829 180.579 119.064C180.888 119.299 181.288 119.416 181.779 119.416ZM187.007 114.232C187.007 113.837 187.161 113.512 187.471 113.256C187.78 112.989 188.239 112.856 188.847 112.856V113.72C188.665 113.965 188.564 114.109 188.543 114.152L188.607 114.216C188.948 113.768 189.321 113.432 189.727 113.208C190.143 112.973 190.655 112.856 191.263 112.856C191.849 112.856 192.367 112.979 192.815 113.224C193.273 113.459 193.631 113.795 193.887 114.232C194.143 114.669 194.271 115.171 194.271 115.736V118.264C194.271 118.84 194.127 119.347 193.839 119.784C193.561 120.221 193.177 120.557 192.687 120.792C192.196 121.027 191.641 121.144 191.023 121.144C190.628 121.144 190.217 121.064 189.791 120.904C189.375 120.733 189.023 120.504 188.735 120.216L188.671 120.296C188.745 120.403 188.863 120.515 189.023 120.632V123C189.023 123.896 188.351 124.344 187.007 124.344V114.232ZM190.639 119.416C191.161 119.416 191.567 119.304 191.855 119.08C192.143 118.856 192.287 118.541 192.287 118.136V115.864C192.287 115.448 192.143 115.133 191.855 114.92C191.577 114.696 191.172 114.584 190.639 114.584C190.159 114.584 189.764 114.701 189.455 114.936C189.145 115.16 188.991 115.443 188.991 115.784V118.216C188.991 118.547 189.14 118.829 189.439 119.064C189.748 119.299 190.148 119.416 190.639 119.416Z" fill="black"/>
</svg>
