<svg width="119" height="39" viewBox="0 0 119 39" fill="none" xmlns="http://www.w3.org/2000/svg">
<path d="M19.4913 22.7711C17.692 24.8833 15.0103 26.2399 11.9999 26.2399C8.98956 26.2399 6.3079 24.8833 4.50859 22.7711L2.89959 20.058C2.46707 18.959 2.22485 17.7741 2.22485 16.5377C2.22485 14.0135 3.19371 11.7124 4.78541 9.97805C5.11413 9.61744 5.46015 9.29118 5.84077 8.98208C6.01378 8.84471 6.18679 8.70733 6.3598 8.58713C6.61932 8.41541 6.87883 8.24369 7.13835 8.08914C7.9688 7.6255 8.86845 7.26489 9.82001 7.05883C9.90651 7.04166 9.99302 7.02448 10.0795 7.00731C10.166 6.99014 10.2698 6.97297 10.3563 6.9558C10.8754 6.86994 11.429 6.81842 11.9826 6.81842C12.5363 6.81842 13.0899 6.86994 13.6262 6.9558C13.73 6.97297 13.8338 6.99014 13.9377 7.00731C14.0242 7.02448 14.0934 7.04166 14.1799 7.05883H14.1972C14.2837 7.076 14.3529 7.09317 14.4394 7.11034C15.3044 7.33358 16.1349 7.67702 16.8961 8.10631C17.1556 8.24369 17.3979 8.41541 17.6228 8.56996C17.8131 8.70733 18.0034 8.84471 18.1937 8.99925C18.557 9.29118 18.8858 9.61744 19.2145 9.96088C20.8062 11.6952 21.775 13.9963 21.775 16.5206C21.775 17.7569 21.5328 18.959 21.1003 20.0408C21.1003 20.0408 21.1003 20.0408 21.1003 20.058L19.4913 22.7711Z" fill="white"/>
<path d="M19.2145 9.89217C18.9031 9.58308 18.5917 9.29116 18.2457 9.01641L16.6367 10.0124C17.6401 10.7679 18.4533 11.7811 18.9896 12.9316C19.1626 13.2922 19.2837 13.67 19.4048 14.065C19.526 14.5114 19.6125 14.9751 19.6471 15.4559C19.6644 15.6448 19.6644 15.8508 19.6644 16.0397C19.6644 20.2297 16.2388 23.6297 12.0173 23.6297C7.79585 23.6297 4.37024 20.2297 4.37024 16.0397C4.37024 15.8337 4.37024 15.6448 4.38754 15.4387C4.42215 14.9579 4.50865 14.5114 4.62976 14.0478C4.73356 13.6528 4.87197 13.275 5.04498 12.8973C5.58132 11.7124 6.41176 10.6993 7.43253 9.94369L5.82353 8.94772C5.46021 9.22247 5.13149 9.53156 4.80277 9.85783C3.07267 11.6437 2 14.065 2 16.7438C2 22.2216 12 30.9106 12 30.9106C12 30.9106 22 22.2388 22 16.7438C22 14.0993 20.9446 11.6609 19.2145 9.89217ZM12 6.83557C10.2353 6.83557 8.57439 7.28204 7.13841 8.08912L8.79931 9.15378C9.76817 8.70731 10.8581 8.44973 12.0173 8.44973C13.1938 8.44973 14.301 8.70731 15.2872 9.17095L16.9308 8.10629C15.4602 7.29921 13.782 6.83557 12 6.83557Z" fill="#F3C23C"/>
<path d="M19.6298 14.2367C19.5606 14.1852 19.474 14.1336 19.3875 14.0821C18.263 13.3437 17.1384 12.6053 16.0138 11.867C15.8062 11.7296 15.5986 11.5579 15.391 11.4205C15.4256 11.3518 15.4602 11.3003 15.4948 11.2488C15.7716 11.369 16.0657 11.4548 16.3253 11.6094C16.9654 12.0043 17.5709 12.4336 18.1938 12.8286C18.5398 13.0346 18.8166 13.069 18.9896 12.9488C19.128 12.8458 19.1972 12.6569 19.1972 12.3649C19.2145 11.5407 19.2145 10.7164 19.2145 9.89218C19.2145 9.49723 19.1972 9.11945 19.1972 8.74167C19.1799 8.08913 18.8339 7.90024 18.2803 8.22651C17.519 8.67298 16.7751 9.13662 16.0311 9.60026C15.5121 9.92653 14.9931 10.2528 14.474 10.5791C14.3529 10.6477 14.2491 10.7164 14.128 10.8023C13.5225 11.1801 13.5225 11.5235 14.128 11.9185C15.3564 12.7599 16.6194 13.5498 17.865 14.3741C18.09 14.5114 18.2976 14.6832 18.5571 14.872C17.8304 15.3357 17.2076 15.37 16.5502 14.9407C16.1176 14.6488 15.6332 14.4256 15.218 14.0993C14.5086 13.5326 13.8858 13.5498 13.1246 14.0478C12.6228 14.3741 12.4498 14.7347 12.4152 15.3185C12.3633 16.3317 12.4671 17.1559 13.4879 17.7569C14.2318 18.1862 14.0242 18.7186 13.0035 19.1822C12.5709 18.7872 12.2595 18.5468 12 18.4953C11.7232 18.5468 11.4291 18.7872 10.9965 19.1822C9.95847 18.7186 9.75086 18.1862 10.5121 17.7569C11.5329 17.1731 11.6367 16.3317 11.5848 15.3185C11.5502 14.7347 11.3772 14.3912 10.8754 14.0478C10.1142 13.5498 9.49135 13.5326 8.782 14.0993C8.38408 14.4256 7.89965 14.6488 7.44982 14.9407C6.79238 15.37 6.16955 15.3357 5.4429 14.872C5.70242 14.6832 5.91003 14.5114 6.13495 14.3741C7.38062 13.5498 8.6436 12.7599 9.87197 11.9185C10.4775 11.5063 10.4775 11.1801 9.87197 10.8023C9.76816 10.7336 9.68166 10.6821 9.57785 10.6134C9.04152 10.27 8.50519 9.92653 7.95155 9.60026C7.20761 9.13662 6.44636 8.67298 5.70242 8.22651C5.14879 7.90024 4.80277 8.08913 4.78547 8.74167C4.76816 9.11945 4.76816 9.5144 4.76816 9.89218C4.76816 10.7164 4.76816 11.5407 4.78547 12.3649C4.78547 12.6569 4.87197 12.8458 4.99308 12.9488C5.16609 13.0862 5.4429 13.0518 5.78892 12.8286C6.42906 12.4336 7.0346 12.0043 7.65744 11.6094C7.91695 11.4548 8.21107 11.369 8.48789 11.2488C8.52249 11.3175 8.55709 11.369 8.59169 11.4205C8.38408 11.575 8.17647 11.7296 7.96886 11.867C6.84429 12.6053 5.71972 13.3266 4.59515 14.0821C4.52595 14.1336 4.43944 14.1852 4.37024 14.2367C3.7301 14.666 3.6955 14.9922 4.31834 15.4215C4.33564 15.4387 4.35294 15.4559 4.37024 15.4559C6.75778 17.1731 9.14533 18.8731 11.5502 20.5388C11.654 20.6075 11.827 20.659 11.9827 20.6762C12.1557 20.659 12.3114 20.6075 12.4152 20.5388C14.8201 18.8731 17.2249 17.1731 19.5952 15.4559C19.6125 15.4387 19.6298 15.4215 19.6471 15.4215C20.2872 14.9922 20.2699 14.666 19.6298 14.2367ZM9.66436 16.1599C9.38754 16.1599 9.16263 15.9367 9.16263 15.662C9.16263 15.3872 9.38754 15.164 9.66436 15.164C9.94117 15.164 10.1661 15.3872 10.1661 15.662C10.1661 15.9195 9.94117 16.1599 9.66436 16.1599ZM14.3529 16.1599C14.0761 16.1599 13.8512 15.9367 13.8512 15.662C13.8512 15.3872 14.0761 15.164 14.3529 15.164C14.6298 15.164 14.8547 15.3872 14.8547 15.662C14.8547 15.9195 14.6298 16.1599 14.3529 16.1599Z" fill="#532815"/>
<path d="M38.5536 10.0362V12.2494H35.739V25.9999H32.8147V12.2494H30V10.0362H38.5536Z" fill="#532815"/>
<path d="M42.8303 19.7596V25.9637H39.906V10H45.8278C47.692 10 48.6059 10.8345 48.6059 12.5034V17.22C48.6059 18.5986 47.9844 19.3968 46.7416 19.6508L49.41 25.9637H46.2664L43.8173 19.7596H42.8303ZM42.8303 12.2494V17.619H44.9505C45.2063 17.619 45.4257 17.5828 45.4988 17.4739C45.6084 17.3651 45.645 17.1837 45.645 16.9297V12.9388C45.645 12.6848 45.6084 12.5034 45.4988 12.3946C45.3891 12.2857 45.2063 12.2494 44.9505 12.2494H42.8303Z" fill="#532815"/>
<path d="M57.4519 25.9637L56.8304 22.6621H53.3213L52.773 25.9637H49.8486L53.1019 10H57.0498L60.4493 25.9637H57.4519ZM53.7234 20.449H56.4649L55.0759 12.7937L53.7234 20.449Z" fill="#532815"/>
<path d="M70.2458 15.297H67.2849V12.8299C67.2849 12.576 67.2483 12.3946 67.1387 12.2857C67.029 12.1769 66.8463 12.1406 66.5904 12.1406H65.3841C65.1282 12.1406 64.9089 12.1769 64.8358 12.2857C64.7261 12.3946 64.6896 12.576 64.6896 12.8299V23.2063C64.6896 23.4603 64.7261 23.6417 64.8358 23.7506C64.9454 23.8594 65.1282 23.8957 65.3841 23.8957H66.5904C66.8463 23.8957 67.0656 23.8594 67.1387 23.7506C67.2483 23.6417 67.2849 23.4603 67.2849 23.2063V20.7755H70.2458V23.4966C70.2458 25.1655 69.3319 26 67.4677 26H64.4702C62.606 26 61.6921 25.1655 61.6921 23.4966V12.5034C61.6921 10.8345 62.606 10 64.4702 10H67.4677C69.3319 10 70.2458 10.8345 70.2458 12.5034V15.297Z" fill="#532815"/>
<path d="M80.737 15.297H77.7761V12.8299C77.7761 12.576 77.7396 12.3946 77.6299 12.2857C77.5202 12.1769 77.3375 12.1406 77.0816 12.1406H75.8753C75.6194 12.1406 75.4001 12.1769 75.327 12.2857C75.2173 12.3946 75.1808 12.576 75.1808 12.8299V23.2063C75.1808 23.4603 75.2173 23.6417 75.327 23.7506C75.4367 23.8594 75.6194 23.8957 75.8753 23.8957H77.0816C77.3375 23.8957 77.5568 23.8594 77.6299 23.7506C77.7396 23.6417 77.7761 23.4603 77.7761 23.2063V20.7755H80.737V23.4966C80.737 25.1655 79.8231 26 77.9589 26H74.9614C73.0972 26 72.1833 25.1655 72.1833 23.4966V12.5034C72.1833 10.8345 73.0972 10 74.9614 10H77.9589C79.8231 10 80.737 10.8345 80.737 12.5034V15.297Z" fill="#532815"/>
<path d="M85.4524 10.0362H88.5595C90.4238 10.0362 91.3376 10.8707 91.3376 12.5396V23.4965C91.3376 25.1655 90.4238 25.9999 88.5595 25.9999H85.4524C83.5882 25.9999 82.6743 25.1655 82.6743 23.4965V12.5396C82.6743 10.8707 83.6247 10.0362 85.4524 10.0362ZM88.4133 23.0612V12.9024C88.4133 12.6485 88.3767 12.4671 88.2671 12.3582C88.1574 12.2494 87.9746 12.2131 87.7188 12.2131H86.3663C86.0738 12.2131 85.8911 12.2494 85.7814 12.3582C85.6717 12.4671 85.6352 12.6485 85.6352 12.9024V23.0612C85.6352 23.3151 85.6717 23.4965 85.7814 23.6054C85.8911 23.7142 86.0738 23.7505 86.3663 23.7505H87.7188C87.9746 23.7505 88.194 23.7142 88.2671 23.6054C88.3767 23.5328 88.4133 23.3514 88.4133 23.0612Z" fill="#532815"/>
<path d="M96.3819 10.0362H99.489C101.353 10.0362 102.267 10.8707 102.267 12.5396V23.4965C102.267 25.1655 101.353 25.9999 99.489 25.9999H96.3819C94.5176 25.9999 93.6038 25.1655 93.6038 23.4965V12.5396C93.6038 10.8707 94.5542 10.0362 96.3819 10.0362ZM99.3427 23.0612V12.9024C99.3427 12.6485 99.3062 12.4671 99.1965 12.3582C99.0869 12.2494 98.9041 12.2131 98.6482 12.2131H97.2957C97.0033 12.2131 96.8205 12.2494 96.7108 12.3582C96.6012 12.4671 96.5646 12.6485 96.5646 12.9024V23.0612C96.5646 23.3151 96.6012 23.4965 96.7108 23.6054C96.8205 23.7142 97.0033 23.7505 97.2957 23.7505H98.6482C98.9041 23.7505 99.1234 23.7142 99.1965 23.6054C99.3062 23.5328 99.3427 23.3514 99.3427 23.0612Z" fill="#532815"/>
<path d="M110.857 10.0362H113.526V25.9999H110.784L107.348 15.4421V25.9999H104.643V10.0362H107.458L110.857 20.4489V10.0362Z" fill="#532815"/>
<path d="M32.429 33.063C32.0137 33.063 31.6427 32.9837 31.316 32.825C30.994 32.6663 30.742 32.4447 30.56 32.16C30.378 31.8753 30.287 31.551 30.287 31.187V29.899C30.287 29.535 30.3757 29.213 30.553 28.933C30.735 28.6483 30.9847 28.429 31.302 28.275C31.6193 28.1163 31.9833 28.037 32.394 28.037C32.8047 28.037 33.1687 28.1 33.486 28.226C33.808 28.3473 34.0577 28.52 34.235 28.744C34.4123 28.9633 34.501 29.2153 34.501 29.5C34.501 29.6727 34.4427 29.8103 34.326 29.913C34.214 30.011 34.0623 30.06 33.871 30.06C33.7777 30.06 33.675 30.046 33.563 30.018C33.5723 29.906 33.577 29.7963 33.577 29.689C33.577 29.4417 33.4673 29.241 33.248 29.087C33.0287 28.933 32.744 28.856 32.394 28.856C32.0487 28.856 31.7663 28.954 31.547 29.15C31.3323 29.3413 31.225 29.591 31.225 29.899V31.187C31.225 31.4997 31.337 31.754 31.561 31.95C31.785 32.146 32.0743 32.244 32.429 32.244C32.779 32.244 33.0637 32.167 33.283 32.013C33.5023 31.859 33.612 31.6607 33.612 31.418C33.612 31.306 33.6073 31.1987 33.598 31.096C33.7147 31.0727 33.8127 31.061 33.892 31.061C34.088 31.061 34.2443 31.1123 34.361 31.215C34.4777 31.3177 34.536 31.4577 34.536 31.635C34.536 31.9103 34.4473 32.1577 34.27 32.377C34.0927 32.5917 33.843 32.7597 33.521 32.881C33.2037 33.0023 32.8397 33.063 32.429 33.063ZM36.5951 33.063C36.2918 33.063 36.0164 33.0093 35.7691 32.902C35.5264 32.79 35.3351 32.636 35.1951 32.44C35.0551 32.244 34.9851 32.0223 34.9851 31.775V30.788C34.9851 30.536 35.0528 30.3073 35.1881 30.102C35.3281 29.8967 35.5194 29.7357 35.7621 29.619C36.0048 29.4977 36.2824 29.437 36.5951 29.437C36.9078 29.437 37.1854 29.4977 37.4281 29.619C37.6754 29.7357 37.8668 29.8967 38.0021 30.102C38.1421 30.3073 38.2121 30.536 38.2121 30.788V31.775C38.2121 32.0223 38.1398 32.244 37.9951 32.44C37.8551 32.636 37.6614 32.79 37.4141 32.902C37.1714 33.0093 36.8984 33.063 36.5951 33.063ZM36.5951 32.314C36.8284 32.314 37.0104 32.2603 37.1411 32.153C37.2764 32.0457 37.3441 31.901 37.3441 31.719V30.83C37.3441 30.6387 37.2764 30.4847 37.1411 30.368C37.0104 30.2467 36.8284 30.186 36.5951 30.186C36.3664 30.186 36.1844 30.2467 36.0491 30.368C35.9138 30.4847 35.8461 30.6387 35.8461 30.83V31.719C35.8461 31.901 35.9138 32.0457 36.0491 32.153C36.1844 32.2603 36.3664 32.314 36.5951 32.314ZM40.1379 33.063C39.7505 33.063 39.4565 32.9533 39.2559 32.734C39.0599 32.51 38.9619 32.2277 38.9619 31.887V28.569C38.9619 28.3777 39.0319 28.2423 39.1719 28.163C39.3165 28.079 39.5382 28.037 39.8369 28.037V31.852C39.8369 32.0107 39.8719 32.1273 39.9419 32.202C40.0119 32.272 40.1239 32.307 40.2779 32.307C40.4505 32.307 40.6232 32.2627 40.7959 32.174C40.8425 32.216 40.8775 32.2697 40.9009 32.335C40.9289 32.3957 40.9429 32.4587 40.9429 32.524C40.9429 32.664 40.8729 32.79 40.7329 32.902C40.5929 33.0093 40.3945 33.063 40.1379 33.063ZM42.6148 33.063C42.2274 33.063 41.9334 32.9533 41.7328 32.734C41.5368 32.51 41.4388 32.2277 41.4388 31.887V28.569C41.4388 28.3777 41.5088 28.2423 41.6488 28.163C41.7934 28.079 42.0151 28.037 42.3138 28.037V31.852C42.3138 32.0107 42.3488 32.1273 42.4188 32.202C42.4888 32.272 42.6008 32.307 42.7548 32.307C42.9274 32.307 43.1001 32.2627 43.2728 32.174C43.3194 32.216 43.3544 32.2697 43.3778 32.335C43.4058 32.3957 43.4198 32.4587 43.4198 32.524C43.4198 32.664 43.3498 32.79 43.2098 32.902C43.0698 33.0093 42.8714 33.063 42.6148 33.063ZM45.4697 33.063C45.1803 33.063 44.9167 33.007 44.6787 32.895C44.4407 32.7783 44.2517 32.622 44.1117 32.426C43.9717 32.2253 43.9017 32.0013 43.9017 31.754V30.823C43.9017 30.5617 43.974 30.326 44.1187 30.116C44.2633 29.906 44.4547 29.7403 44.6927 29.619C44.9353 29.4977 45.1967 29.437 45.4767 29.437C45.752 29.437 46.004 29.4953 46.2327 29.612C46.466 29.724 46.6503 29.8827 46.7857 30.088C46.921 30.2887 46.9887 30.5197 46.9887 30.781V31.173C46.9887 31.2757 46.949 31.362 46.8697 31.432C46.795 31.502 46.6993 31.537 46.5827 31.537H44.7487V31.691C44.7487 31.8917 44.8093 32.055 44.9307 32.181C45.052 32.307 45.234 32.37 45.4767 32.37C45.71 32.37 45.8827 32.3187 45.9947 32.216C46.1113 32.1133 46.1697 31.9803 46.1697 31.817C46.2537 31.8077 46.312 31.803 46.3447 31.803C46.5173 31.803 46.6527 31.8427 46.7507 31.922C46.8487 31.9967 46.8977 32.104 46.8977 32.244C46.8977 32.3793 46.8347 32.51 46.7087 32.636C46.5827 32.762 46.41 32.8647 46.1907 32.944C45.9713 33.0233 45.731 33.063 45.4697 33.063ZM46.1977 30.914V30.781C46.1977 30.585 46.13 30.4263 45.9947 30.305C45.8593 30.1837 45.6843 30.123 45.4697 30.123C45.255 30.123 45.08 30.1837 44.9447 30.305C44.814 30.4217 44.7487 30.5803 44.7487 30.781V30.914H46.1977ZM49.2024 34.463C48.9271 34.463 48.6821 34.4233 48.4674 34.344C48.2528 34.2693 48.0848 34.1667 47.9634 34.036C47.8421 33.9053 47.7814 33.7607 47.7814 33.602C47.7814 33.4433 47.8351 33.3313 47.9424 33.266C48.0544 33.2007 48.2108 33.168 48.4114 33.168C48.4301 33.3593 48.5048 33.5063 48.6354 33.609C48.7661 33.7163 48.9551 33.77 49.2024 33.77C49.4778 33.77 49.6714 33.7023 49.7834 33.567C49.9001 33.4317 49.9584 33.245 49.9584 33.007V32.769C50.0284 32.7177 50.0798 32.6687 50.1124 32.622L50.0844 32.587C49.9631 32.7083 49.7998 32.8063 49.5944 32.881C49.3938 32.9557 49.2048 32.993 49.0274 32.993C48.7661 32.993 48.5328 32.9417 48.3274 32.839C48.1221 32.7317 47.9588 32.5823 47.8374 32.391C47.7208 32.1997 47.6624 31.9827 47.6624 31.74V30.697C47.6624 30.4637 47.7231 30.2513 47.8444 30.06C47.9704 29.864 48.1338 29.7123 48.3344 29.605C48.5398 29.493 48.7591 29.437 48.9924 29.437C49.2491 29.437 49.4661 29.4883 49.6434 29.591C49.8254 29.6937 49.9911 29.8407 50.1404 30.032L50.1684 30.004C50.1451 29.962 50.1008 29.9013 50.0354 29.822C50.0354 29.5653 50.3038 29.437 50.8404 29.437V32.881C50.8404 33.189 50.7704 33.462 50.6304 33.7C50.4904 33.938 50.2944 34.1247 50.0424 34.26C49.7951 34.3953 49.5151 34.463 49.2024 34.463ZM49.2514 32.244C49.4568 32.244 49.6294 32.1927 49.7694 32.09C49.9094 31.9827 49.9794 31.8567 49.9794 31.712V30.718C49.9794 30.5687 49.9094 30.4427 49.7694 30.34C49.6341 30.2373 49.4614 30.186 49.2514 30.186C49.0228 30.186 48.8454 30.235 48.7194 30.333C48.5981 30.431 48.5374 30.571 48.5374 30.753V31.677C48.5374 31.8543 48.5981 31.9943 48.7194 32.097C48.8408 32.195 49.0181 32.244 49.2514 32.244ZM53.2604 33.063C52.9711 33.063 52.7074 33.007 52.4694 32.895C52.2314 32.7783 52.0424 32.622 51.9024 32.426C51.7624 32.2253 51.6924 32.0013 51.6924 31.754V30.823C51.6924 30.5617 51.7647 30.326 51.9094 30.116C52.0541 29.906 52.2454 29.7403 52.4834 29.619C52.7261 29.4977 52.9874 29.437 53.2674 29.437C53.5427 29.437 53.7947 29.4953 54.0234 29.612C54.2567 29.724 54.4411 29.8827 54.5764 30.088C54.7117 30.2887 54.7794 30.5197 54.7794 30.781V31.173C54.7794 31.2757 54.7397 31.362 54.6604 31.432C54.5857 31.502 54.4901 31.537 54.3734 31.537H52.5394V31.691C52.5394 31.8917 52.6001 32.055 52.7214 32.181C52.8427 32.307 53.0247 32.37 53.2674 32.37C53.5007 32.37 53.6734 32.3187 53.7854 32.216C53.9021 32.1133 53.9604 31.9803 53.9604 31.817C54.0444 31.8077 54.1027 31.803 54.1354 31.803C54.3081 31.803 54.4434 31.8427 54.5414 31.922C54.6394 31.9967 54.6884 32.104 54.6884 32.244C54.6884 32.3793 54.6254 32.51 54.4994 32.636C54.3734 32.762 54.2007 32.8647 53.9814 32.944C53.7621 33.0233 53.5217 33.063 53.2604 33.063ZM53.9884 30.914V30.781C53.9884 30.585 53.9207 30.4263 53.7854 30.305C53.6501 30.1837 53.4751 30.123 53.2604 30.123C53.0457 30.123 52.8707 30.1837 52.7354 30.305C52.6047 30.4217 52.5394 30.5803 52.5394 30.781V30.914H53.9884ZM57.9228 33C57.7968 33 57.6872 32.958 57.5938 32.874C57.5005 32.79 57.4538 32.6897 57.4538 32.573V28.527C57.4538 28.4103 57.4982 28.31 57.5868 28.226C57.6802 28.142 57.7922 28.1 57.9228 28.1H59.8058C60.2538 28.1 60.6108 28.226 60.8768 28.478C61.1475 28.7253 61.2828 29.059 61.2828 29.479C61.2828 29.6797 61.2292 29.871 61.1218 30.053C61.0145 30.2303 60.8722 30.368 60.6948 30.466V30.487C60.9375 30.571 61.1288 30.7087 61.2688 30.9C61.4135 31.0913 61.4858 31.3107 61.4858 31.558C61.4858 31.838 61.4205 32.0877 61.2898 32.307C61.1592 32.5263 60.9772 32.6967 60.7438 32.818C60.5105 32.9393 60.2445 33 59.9458 33H57.9228ZM59.7918 30.158C59.9458 30.158 60.0765 30.095 60.1838 29.969C60.2958 29.843 60.3518 29.6913 60.3518 29.514C60.3518 29.3227 60.3005 29.171 60.1978 29.059C60.0998 28.947 59.9645 28.891 59.7918 28.891H58.3638V30.158H59.7918ZM59.9318 32.209C60.1232 32.209 60.2748 32.153 60.3868 32.041C60.4988 31.9243 60.5548 31.7657 60.5548 31.565C60.5548 31.369 60.4988 31.2173 60.3868 31.11C60.2795 30.998 60.1278 30.942 59.9318 30.942H58.3638V32.209H59.9318ZM65.3628 32.384C65.3628 32.6033 65.2928 32.7713 65.1528 32.888C65.0175 33.0047 64.8098 33.063 64.5298 33.063V32.643C64.5905 32.573 64.6465 32.496 64.6978 32.412L64.6558 32.384C64.3571 32.8367 63.9558 33.063 63.4518 33.063C63.2138 33.063 62.9991 33.0093 62.8078 32.902C62.6211 32.79 62.4718 32.636 62.3598 32.44C62.2525 32.244 62.1988 32.0223 62.1988 31.775V29.969C62.1988 29.7777 62.2688 29.6423 62.4088 29.563C62.5535 29.479 62.7728 29.437 63.0668 29.437V31.712C63.0668 31.894 63.1228 32.0387 63.2348 32.146C63.3468 32.2533 63.5078 32.307 63.7178 32.307C63.9511 32.307 64.1378 32.2347 64.2778 32.09C64.4225 31.9407 64.4948 31.7563 64.4948 31.537V29.969C64.4948 29.7777 64.5648 29.6423 64.7048 29.563C64.8448 29.479 65.0641 29.437 65.3628 29.437V32.384ZM67.7046 33.063C67.2566 33.063 66.895 32.9837 66.6196 32.825C66.349 32.6617 66.2113 32.4447 66.2066 32.174C66.2066 32.0573 66.2533 31.9593 66.3466 31.88C66.4446 31.8007 66.5986 31.7587 66.8086 31.754C66.8506 31.9593 66.9486 32.118 67.1026 32.23C67.2566 32.3373 67.4433 32.391 67.6626 32.391C67.9006 32.391 68.0873 32.3607 68.2226 32.3C68.358 32.2393 68.4256 32.1483 68.4256 32.027C68.4256 31.915 68.3696 31.8217 68.2576 31.747C68.1503 31.6723 67.9356 31.5977 67.6136 31.523C67.2636 31.439 66.9906 31.355 66.7946 31.271C66.6033 31.187 66.461 31.0797 66.3676 30.949C66.2743 30.8183 66.2276 30.6457 66.2276 30.431C66.2276 30.1323 66.3536 29.892 66.6056 29.71C66.8576 29.528 67.203 29.437 67.6416 29.437C68.0663 29.437 68.4186 29.514 68.6986 29.668C68.9786 29.8173 69.1186 30.018 69.1186 30.27C69.1186 30.396 69.072 30.4893 68.9786 30.55C68.8853 30.6107 68.7313 30.6433 68.5166 30.648C68.47 30.4613 68.3813 30.3213 68.2506 30.228C68.12 30.1347 67.9356 30.088 67.6976 30.088C67.5203 30.088 67.3663 30.1183 67.2356 30.179C67.1096 30.2397 67.0466 30.319 67.0466 30.417C67.0466 30.5197 67.1003 30.599 67.2076 30.655C67.315 30.711 67.5016 30.767 67.7676 30.823C68.2903 30.935 68.6683 31.0843 68.9016 31.271C69.1396 31.4577 69.2586 31.712 69.2586 32.034C69.2586 32.3467 69.1186 32.5963 68.8386 32.783C68.5633 32.9697 68.1853 33.063 67.7046 33.063ZM73.3569 28.912H71.6699C71.6699 28.3707 71.9149 28.1 72.4049 28.1H75.9819C75.9819 28.6413 75.7345 28.912 75.2399 28.912H74.2949V32.37C74.2949 32.594 74.2155 32.7667 74.0569 32.888C73.8982 33.0047 73.6649 33.063 73.3569 33.063V28.912ZM77.6393 30.193C77.364 30.193 77.14 30.2677 76.9673 30.417C76.7947 30.5617 76.7083 30.7437 76.7083 30.963V32.531C76.7083 32.7177 76.6383 32.853 76.4983 32.937C76.3583 33.021 76.139 33.063 75.8403 33.063V30.109C75.8403 29.8943 75.908 29.7287 76.0433 29.612C76.1833 29.4953 76.3933 29.437 76.6733 29.437V29.85C76.6033 29.9293 76.5473 30.0063 76.5053 30.081L76.5473 30.109C76.8413 29.661 77.21 29.437 77.6533 29.437C77.854 29.437 78.0057 29.4907 78.1083 29.598C78.211 29.7007 78.2623 29.8313 78.2623 29.99C78.2623 30.1113 78.2297 30.214 78.1643 30.298C78.0383 30.228 77.8633 30.193 77.6393 30.193ZM79.8074 33.063C79.5694 33.063 79.35 33.0163 79.1494 32.923C78.9534 32.8297 78.7947 32.6967 78.6734 32.524C78.5567 32.3467 78.4984 32.1367 78.4984 31.894C78.4984 31.6513 78.5614 31.4413 78.6874 31.264C78.8134 31.082 78.9837 30.9443 79.1984 30.851C79.4177 30.753 79.658 30.704 79.9194 30.704C80.134 30.704 80.3254 30.739 80.4934 30.809C80.666 30.8743 80.8247 30.9747 80.9694 31.11L81.0044 31.075C80.9624 31.033 80.89 30.97 80.7874 30.886V30.746C80.7874 30.5547 80.7197 30.403 80.5844 30.291C80.449 30.179 80.26 30.123 80.0174 30.123C79.5834 30.123 79.2637 30.2817 79.0584 30.599C78.9557 30.5663 78.8694 30.515 78.7994 30.445C78.7294 30.3703 78.6944 30.291 78.6944 30.207C78.6944 30.067 78.7574 29.9387 78.8834 29.822C79.0094 29.7053 79.1797 29.612 79.3944 29.542C79.609 29.472 79.8424 29.437 80.0944 29.437C80.589 29.437 80.9717 29.5537 81.2424 29.787C81.513 30.0157 81.6484 30.3283 81.6484 30.725V32.475C81.6484 32.6803 81.583 32.8297 81.4524 32.923C81.3217 33.0163 81.1164 33.063 80.8364 33.063V32.776C80.9157 32.6967 80.9694 32.6383 80.9974 32.601L80.9694 32.566C80.8154 32.7293 80.6497 32.853 80.4724 32.937C80.2997 33.021 80.078 33.063 79.8074 33.063ZM80.0314 32.426C80.274 32.426 80.463 32.3793 80.5984 32.286C80.7337 32.1927 80.8014 32.0597 80.8014 31.887C80.8014 31.719 80.7314 31.586 80.5914 31.488C80.456 31.39 80.2717 31.341 80.0384 31.341C79.8237 31.341 79.6534 31.39 79.5274 31.488C79.406 31.5813 79.3454 31.7143 79.3454 31.887C79.3454 32.0643 79.406 32.1997 79.5274 32.293C79.6487 32.3817 79.8167 32.426 80.0314 32.426ZM83.9329 33.063C83.6296 33.063 83.3613 33.0093 83.1279 32.902C82.8946 32.79 82.7126 32.636 82.5819 32.44C82.4513 32.244 82.3859 32.0223 82.3859 31.775V30.795C82.3859 30.529 82.4513 30.2933 82.5819 30.088C82.7126 29.8827 82.8946 29.724 83.1279 29.612C83.3613 29.4953 83.6273 29.437 83.9259 29.437C84.2059 29.437 84.4533 29.4767 84.6679 29.556C84.8873 29.6353 85.0576 29.7473 85.1789 29.892C85.3003 30.032 85.3609 30.1953 85.3609 30.382C85.3609 30.5267 85.3049 30.6433 85.1929 30.732C85.0809 30.8207 84.9339 30.865 84.7519 30.865C84.7006 30.865 84.6633 30.8627 84.6399 30.858C84.6399 30.6573 84.5746 30.4963 84.4439 30.375C84.3179 30.2537 84.1523 30.193 83.9469 30.193C83.7416 30.193 83.5736 30.2513 83.4429 30.368C83.3169 30.4847 83.2539 30.6387 83.2539 30.83V31.712C83.2539 31.8893 83.3193 32.034 83.4499 32.146C83.5806 32.2533 83.7486 32.307 83.9539 32.307C84.1593 32.307 84.3273 32.2463 84.4579 32.125C84.5886 31.999 84.6539 31.8403 84.6539 31.649C84.6819 31.6443 84.7216 31.642 84.7729 31.642C84.9549 31.642 85.1019 31.684 85.2139 31.768C85.3259 31.852 85.3819 31.9663 85.3819 32.111C85.3819 32.2977 85.3189 32.4633 85.1929 32.608C85.0716 32.748 84.9013 32.86 84.6819 32.944C84.4626 33.0233 84.2129 33.063 83.9329 33.063ZM89.306 32.811C89.264 32.8903 89.2033 32.9533 89.124 33C89.0446 33.042 88.9536 33.063 88.851 33.063C88.7623 33.063 88.683 33.042 88.613 33C88.543 32.9627 88.4753 32.8997 88.41 32.811L87.486 31.446L87.01 31.887V32.531C87.01 32.7177 86.9376 32.853 86.793 32.937C86.653 33.021 86.4383 33.063 86.149 33.063V28.709C86.149 28.261 86.4406 28.037 87.024 28.037V30.928L88.627 29.437C88.8603 29.619 88.977 29.7683 88.977 29.885C88.977 29.9597 88.956 30.025 88.914 30.081C88.8766 30.137 88.816 30.2023 88.732 30.277L87.997 30.963L89.306 32.811ZM90.6424 29.108C90.4744 29.108 90.3344 29.059 90.2224 28.961C90.1151 28.8583 90.0614 28.7277 90.0614 28.569C90.0614 28.415 90.1151 28.289 90.2224 28.191C90.3344 28.0883 90.4744 28.037 90.6424 28.037C90.8104 28.037 90.9481 28.0883 91.0554 28.191C91.1674 28.289 91.2234 28.415 91.2234 28.569C91.2234 28.7277 91.1674 28.8583 91.0554 28.961C90.9481 29.059 90.8104 29.108 90.6424 29.108ZM90.2014 29.969C90.2014 29.7777 90.2738 29.6423 90.4184 29.563C90.5631 29.479 90.7824 29.437 91.0764 29.437V32.531C91.0764 32.7177 91.0041 32.853 90.8594 32.937C90.7148 33.021 90.4954 33.063 90.2014 33.063V29.969ZM92.1487 30.109C92.1487 29.8943 92.2163 29.7287 92.3517 29.612C92.4917 29.4953 92.7017 29.437 92.9817 29.437V29.857C92.9257 29.9223 92.8697 29.997 92.8137 30.081L92.8557 30.109C92.9957 29.899 93.1753 29.7357 93.3947 29.619C93.614 29.4977 93.8567 29.437 94.1227 29.437C94.3607 29.437 94.5707 29.4907 94.7527 29.598C94.9347 29.7053 95.0747 29.8523 95.1727 30.039C95.2753 30.2257 95.3267 30.4357 95.3267 30.669V32.531C95.3267 32.7177 95.2543 32.853 95.1097 32.937C94.965 33.021 94.7457 33.063 94.4517 33.063V30.795C94.4517 30.6177 94.398 30.473 94.2907 30.361C94.188 30.249 94.0363 30.193 93.8357 30.193C93.5977 30.193 93.4017 30.2677 93.2477 30.417C93.0937 30.5617 93.0167 30.7437 93.0167 30.963V32.531C93.0167 32.7177 92.9467 32.853 92.8067 32.937C92.6667 33.021 92.4473 33.063 92.1487 33.063V30.109ZM97.6467 34.463C97.3714 34.463 97.1264 34.4233 96.9117 34.344C96.697 34.2693 96.529 34.1667 96.4077 34.036C96.2864 33.9053 96.2257 33.7607 96.2257 33.602C96.2257 33.4433 96.2794 33.3313 96.3867 33.266C96.4987 33.2007 96.655 33.168 96.8557 33.168C96.8744 33.3593 96.949 33.5063 97.0797 33.609C97.2104 33.7163 97.3994 33.77 97.6467 33.77C97.922 33.77 98.1157 33.7023 98.2277 33.567C98.3444 33.4317 98.4027 33.245 98.4027 33.007V32.769C98.4727 32.7177 98.524 32.6687 98.5567 32.622L98.5287 32.587C98.4074 32.7083 98.244 32.8063 98.0387 32.881C97.838 32.9557 97.649 32.993 97.4717 32.993C97.2104 32.993 96.977 32.9417 96.7717 32.839C96.5664 32.7317 96.403 32.5823 96.2817 32.391C96.165 32.1997 96.1067 31.9827 96.1067 31.74V30.697C96.1067 30.4637 96.1674 30.2513 96.2887 30.06C96.4147 29.864 96.578 29.7123 96.7787 29.605C96.984 29.493 97.2034 29.437 97.4367 29.437C97.6934 29.437 97.9104 29.4883 98.0877 29.591C98.2697 29.6937 98.4354 29.8407 98.5847 30.032L98.6127 30.004C98.5894 29.962 98.545 29.9013 98.4797 29.822C98.4797 29.5653 98.748 29.437 99.2847 29.437V32.881C99.2847 33.189 99.2147 33.462 99.0747 33.7C98.9347 33.938 98.7387 34.1247 98.4867 34.26C98.2394 34.3953 97.9594 34.463 97.6467 34.463ZM97.6957 32.244C97.901 32.244 98.0737 32.1927 98.2137 32.09C98.3537 31.9827 98.4237 31.8567 98.4237 31.712V30.718C98.4237 30.5687 98.3537 30.4427 98.2137 30.34C98.0784 30.2373 97.9057 30.186 97.6957 30.186C97.467 30.186 97.2897 30.235 97.1637 30.333C97.0424 30.431 96.9817 30.571 96.9817 30.753V31.677C96.9817 31.8543 97.0424 31.9943 97.1637 32.097C97.285 32.195 97.4624 32.244 97.6957 32.244ZM102.578 33.063C102.378 33.0397 102.219 32.9697 102.102 32.853C101.99 32.7363 101.934 32.5893 101.934 32.412C101.934 32.2767 101.967 32.1367 102.032 31.992L103.635 28.345C103.724 28.1397 103.878 28.037 104.097 28.037C104.312 28.037 104.464 28.1397 104.552 28.345L106.155 31.992C106.221 32.146 106.253 32.286 106.253 32.412C106.253 32.5893 106.195 32.7363 106.078 32.853C105.966 32.9697 105.808 33.0397 105.602 33.063L105.014 31.733H103.173L102.578 33.063ZM104.727 30.935L103.957 29.017L103.873 29.052L104.041 29.486L103.453 30.935H104.727ZM107.033 30.039C107.033 29.8663 107.101 29.724 107.236 29.612C107.371 29.4953 107.572 29.437 107.838 29.437V29.815C107.759 29.9223 107.714 29.9853 107.705 30.004L107.733 30.032C107.882 29.836 108.046 29.689 108.223 29.591C108.405 29.4883 108.629 29.437 108.895 29.437C109.152 29.437 109.378 29.4907 109.574 29.598C109.775 29.7007 109.931 29.8477 110.043 30.039C110.155 30.2303 110.211 30.4497 110.211 30.697V31.803C110.211 32.055 110.148 32.2767 110.022 32.468C109.901 32.6593 109.733 32.8063 109.518 32.909C109.303 33.0117 109.061 33.063 108.79 33.063C108.617 33.063 108.438 33.028 108.251 32.958C108.069 32.8833 107.915 32.783 107.789 32.657L107.761 32.692C107.794 32.7387 107.845 32.7877 107.915 32.839V33.875C107.915 34.267 107.621 34.463 107.033 34.463V30.039ZM108.622 32.307C108.851 32.307 109.028 32.258 109.154 32.16C109.28 32.062 109.343 31.9243 109.343 31.747V30.753C109.343 30.571 109.28 30.4333 109.154 30.34C109.033 30.242 108.855 30.193 108.622 30.193C108.412 30.193 108.239 30.2443 108.104 30.347C107.969 30.445 107.901 30.5687 107.901 30.718V31.782C107.901 31.9267 107.966 32.0503 108.097 32.153C108.232 32.2557 108.407 32.307 108.622 32.307ZM111.007 30.039C111.007 29.8663 111.075 29.724 111.21 29.612C111.345 29.4953 111.546 29.437 111.812 29.437V29.815C111.733 29.9223 111.688 29.9853 111.679 30.004L111.707 30.032C111.856 29.836 112.02 29.689 112.197 29.591C112.379 29.4883 112.603 29.437 112.869 29.437C113.126 29.437 113.352 29.4907 113.548 29.598C113.749 29.7007 113.905 29.8477 114.017 30.039C114.129 30.2303 114.185 30.4497 114.185 30.697V31.803C114.185 32.055 114.122 32.2767 113.996 32.468C113.875 32.6593 113.707 32.8063 113.492 32.909C113.277 33.0117 113.035 33.063 112.764 33.063C112.591 33.063 112.412 33.028 112.225 32.958C112.043 32.8833 111.889 32.783 111.763 32.657L111.735 32.692C111.768 32.7387 111.819 32.7877 111.889 32.839V33.875C111.889 34.267 111.595 34.463 111.007 34.463V30.039ZM112.596 32.307C112.825 32.307 113.002 32.258 113.128 32.16C113.254 32.062 113.317 31.9243 113.317 31.747V30.753C113.317 30.571 113.254 30.4333 113.128 30.34C113.007 30.242 112.829 30.193 112.596 30.193C112.386 30.193 112.213 30.2443 112.078 30.347C111.943 30.445 111.875 30.5687 111.875 30.718V31.782C111.875 31.9267 111.94 32.0503 112.071 32.153C112.206 32.2557 112.381 32.307 112.596 32.307Z" fill="black"/>
</svg>
