<svg width="31" height="31" viewBox="0 0 31 31" fill="none" xmlns="http://www.w3.org/2000/svg">
<path d="M0 15.5C0 6.93959 6.93959 0 15.5 0C24.0604 0 31 6.93959 31 15.5C31 24.0604 24.0604 31 15.5 31C6.93959 31 0 24.0604 0 15.5Z" fill="#EB3E3E"/>
<path d="M25.1251 19.6667H7.34598L7.35823 19.651L9.32173 17.2708C9.40764 17.1747 9.47636 17.059 9.52376 16.9305C9.57116 16.802 9.59626 16.6634 9.59756 16.5231C9.59885 16.3828 9.57632 16.2436 9.5313 16.1139C9.48629 15.9842 9.41973 15.8666 9.33561 15.7683C9.25149 15.67 9.15155 15.593 9.04179 15.5418C8.93204 15.4906 8.81472 15.4663 8.69689 15.4704C8.57906 15.4746 8.46314 15.507 8.3561 15.5658C8.24906 15.6245 8.1531 15.7085 8.07398 15.8125L6.11485 18.1844C5.97223 18.3542 5.77273 18.6146 5.56885 18.8885C5.20274 19.3814 5.00064 20.0166 5.00064 20.6745C5.00064 21.3324 5.20274 21.9676 5.56885 22.4604C5.77273 22.7333 5.97223 22.9937 6.1096 23.1583L8.07398 25.5375C8.23865 25.7217 8.45679 25.8229 8.68272 25.8199C8.90865 25.817 9.12487 25.7101 9.2861 25.5216C9.44733 25.3332 9.54108 25.0778 9.54772 24.8089C9.55436 24.5401 9.47338 24.2786 9.32173 24.0792L7.4011 21.75H25.1251C25.3572 21.75 25.5797 21.6403 25.7438 21.4449C25.9079 21.2496 26.0001 20.9846 26.0001 20.7083C26.0001 20.4321 25.9079 20.1671 25.7438 19.9718C25.5797 19.7764 25.3572 19.6667 25.1251 19.6667Z" fill="white"/>
<path d="M5.875 11.3333H23.5981L21.6784 13.6594C21.5925 13.7555 21.5237 13.8712 21.4763 13.9997C21.4289 14.1282 21.4038 14.2668 21.4025 14.4071C21.4013 14.5474 21.4238 14.6866 21.4688 14.8163C21.5138 14.946 21.5804 15.0636 21.6645 15.1619C21.7486 15.2602 21.8486 15.3373 21.9583 15.3884C22.0681 15.4396 22.1854 15.4639 22.3032 15.4598C22.421 15.4557 22.537 15.4232 22.644 15.3644C22.751 15.3057 22.847 15.2217 22.9261 15.1177L24.8853 12.7437C25.0279 12.574 25.2274 12.3135 25.4313 12.0406C25.7974 11.5478 25.9995 10.9126 25.9995 10.2547C25.9995 9.59678 25.7974 8.96158 25.4313 8.46875C25.2274 8.19479 25.0279 7.93437 24.8905 7.77083L22.9261 5.39583C22.7615 5.21166 22.5433 5.11046 22.3174 5.11342C22.0915 5.11637 21.8752 5.22326 21.714 5.4117C21.5528 5.60015 21.459 5.85553 21.4524 6.1244C21.4457 6.39327 21.5267 6.65477 21.6784 6.85417L23.648 9.23958L23.655 9.25H5.875C5.64294 9.25 5.42038 9.35975 5.25628 9.5551C5.09219 9.75045 5 10.0154 5 10.2917C5 10.5679 5.09219 10.8329 5.25628 11.0282C5.42038 11.2236 5.64294 11.3333 5.875 11.3333Z" fill="white"/>
</svg>
